SplineFontDB: 3.2
FontName: SovngardeLight
FullName: Sovngarde Light
FamilyName: Sovngarde
Weight: Light
Copyright: (c) All Rights Reserved. Designed and developed by K.
Version: 8.9
ItalicAngle: 0
UnderlinePosition: -100
UnderlineWidth: 50
Ascent: 800
Descent: 200
InvalidEm: 0
LayerCount: 2
Layer: 0 0 "Back" 1
Layer: 1 0 "Fore" 0
XUID: [1021 726 -1732314294 23016]
FSType: 0
OS2Version: 0
OS2_WeightWidthSlopeOnly: 0
OS2_UseTypoMetrics: 1
CreationTime: 1464055314
ModificationTime: 1599534046
PfmFamily: 17
TTFWeight: 300
TTFWidth: 5
LineGap: 90
VLineGap: 0
OS2TypoAscent: 0
OS2TypoAOffset: 1
OS2TypoDescent: 0
OS2TypoDOffset: 1
OS2TypoLinegap: 90
OS2WinAscent: 0
OS2WinAOffset: 1
OS2WinDescent: 0
OS2WinDOffset: 1
HheadAscent: 0
HheadAOffset: 1
HheadDescent: 0
HheadDOffset: 1
OS2Vendor: 'PfEd'
Lookup: 258 0 0 "Default" { "Default-1" [150,0,2] } ['kern' ('DFLT' <'dflt' > 'latn' <'dflt' > ) ]
MarkAttachClasses: 1
DEI: 91125
KernClass2: 9 23 "Default-1"
 1 T
 1 Y
 1 f
 1 A
 9 parenleft
 11 bracketleft
 1 V
 7 uni1E6A
 1 A
 1 G
 1 J
 1 o
 1 a
 1 b
 1 c
 1 d
 1 e
 1 f
 1 g
 1 h
 1 i
 1 j
 1 k
 1 l
 1 V
 1 T
 1 Y
 10 parenright
 12 bracketright
 0 

StartChar: A
Encoding: 65 65 0
Width: 507
VWidth: 0
Flags: W
HStem: 0.566406 21G<27.6904 129.176 379.465 480.069> 112.745 76.4668<247.314 283.404> 467.565 20G<240.185 259.504>
LayerCount: 2
Fore
SplineSet
456.403320312 70.150390625 m 2
 464.041015625 54.5966796875 474.232421875 34.5126953125 480.069335938 29.5732421875 c 1
 480.069335938 0.56640625 l 1
 399.208007812 0.56640625 l 1
 379.46484375 0.56640625 l 1
 379.46484375 28.9013671875 l 1
 379.46484375 28.9013671875 392.250976562 53.19140625 365.306640625 85.6435546875 c 2
 341.263671875 118.662109375 l 5
 315.001953125 111.28125 283.404296875 112.745117188 283.404296875 112.745117188 c 1
 156.125 109.452148438 l 1
 127.126953125 49.4560546875 l 1
 122.09765625 30.609375 129.17578125 28.9013671875 129.17578125 28.9013671875 c 1
 129.17578125 0.56640625 l 1
 113.033203125 0.56640625 l 1
 27.6904296875 0.56640625 l 1
 27.6904296875 29.5732421875 l 1
 31.7890625 33.048828125 37.6875 42.748046875 43.4609375 53.603515625 c 2
 249.689453125 487.565429688 l 1
 442.103515625 95.47265625 l 1
 456.403320312 70.150390625 l 2
330.190429688 186.041015625 m 1
 335.654296875 189.578125 l 1
 327.334960938 193.360351562 333.465820312 196.653320312 333.465820312 196.653320312 c 1
 319.387695312 174.662109375 l 1
 322.127929688 194.458007812 l 1
 322.127929688 199.336914062 l 1
 312.071289062 200.435546875 l 1
 252.0078125 336.471679688 l 1
 229.36328125 281.211914062 l 2
 228.495117188 282.310546875 227.06640625 284.018554688 225.452148438 285.237304688 c 0
 222.907226562 287.189453125 220.051757812 298.534179688 216.884765625 286.154296875 c 1
 219.057617188 283.774414062 l 1
 218.374023438 281.211914062 l 1
 221.913085938 278.7109375 l 1
 224.396484375 270.35546875 l 1
 180.221679688 161.947265625 l 1
 224.116210938 167.986328125 245.578125 191.712890625 245.578125 191.712890625 c 1
 283.450195312 189.760742188 266.571289062 189.08984375 287.368164062 189.211914062 c 1
 301.756835938 177.623046875 l 1
 307.037109375 186.041015625 l 1
 330.190429688 186.041015625 l 1
EndSplineSet
Validated: 37
EndChar

StartChar: B
Encoding: 66 66 1
Width: 380
VWidth: 0
Flags: W
HStem: 1.36719 32.8799<15.4893 29.347> 214.419 67.2705<116.176 197.479> 424.488 62.8994<115.746 182.916>
VStem: 37.6826 78.4932<96.9648 214.297 281.689 282.425 291.561 339.949 374.341 413.521 416.157 424.488>
LayerCount: 2
Fore
SplineSet
168.999023438 281.689453125 m 2
 260.48046875 281.689453125 255.987304688 349.599609375 255.987304688 349.599609375 c 1
 255.200195312 419.759765625 182.916015625 424.48828125 182.916015625 424.48828125 c 1
 115.74609375 424.48828125 l 1
 115.74609375 378.694335938 l 1
 115.317382812 374.340820312 l 1
 113.110351562 378.264648438 l 1
 110.903320312 372.625 l 1
 110.044921875 364.013671875 l 1
 113.5390625 356.594726562 l 1
 115.74609375 351.813476562 l 1
 115.74609375 291.560546875 l 1
 112.251953125 291.130859375 l 1
 110.534179688 287.63671875 l 1
 116.17578125 282.424804688 l 1
 116.17578125 281.689453125 l 1
 168.999023438 281.689453125 l 2
267.615234375 253.2890625 m 1
 321.13671875 236.18359375 354.745117188 178.391601562 343.647460938 100.100585938 c 0
 327.647460938 -12.6435546875 218.384765625 1.18359375 218.384765625 1.18359375 c 1
 107.869140625 1.3671875 l 1
 15.4892578125 1.3671875 l 1
 15.4892578125 34.2470703125 l 1
 36.2724609375 39.826171875 37.6826171875 96.96484375 37.6826171875 96.96484375 c 1
 37.6826171875 333.391601562 l 1
 39.3984375 341.668945312 l 1
 42.2197265625 348.657226562 l 1
 65.5166015625 348.657226562 l 1
 69.0107421875 353.439453125 l 1
 54.2353515625 355.646484375 l 1
 40.318359375 359.140625 l 1
 40.318359375 368.704101562 l 1
 35.537109375 368.704101562 l 1
 35.537109375 413.520507812 l 1
 32.0419921875 416.157226562 l 1
 32.0419921875 429.215820312 l 1
 15.4892578125 446.198242188 l 1
 15.4892578125 483.463867188 l 1
 15.4892578125 487.387695312 l 1
 191.102539062 487.387695312 l 1
 191.102539062 487.387695312 330.879882812 501.599609375 322.734375 343.743164062 c 0
 320.309570312 296.755859375 296.552734375 268.431640625 267.615234375 253.2890625 c 1
117.072265625 63.310546875 m 1
 265.759765625 27.2802734375 261.360351562 142.559570312 261.360351562 142.559570312 c 1
 260.48046875 215.599609375 197.479492188 214.418945312 197.479492188 214.418945312 c 1
 121.508789062 214.418945312 l 1
 116.17578125 214.296875 l 1
 116.17578125 73.3173828125 l 2
 116.17578125 67.2705078125 116.501953125 68.6259765625 117.072265625 63.310546875 c 1
EndSplineSet
Validated: 33
EndChar

StartChar: C
Encoding: 67 67 2
Width: 475
VWidth: 0
Flags: W
HStem: 0.34082 21G<247.284 315.78>
VStem: 27.4424 84.2871<149.386 250.378>
LayerCount: 2
Fore
SplineSet
278.080078125 81.83984375 m 1
 278.080078125 81.83984375 374.879882812 84.48046875 423.462890625 167.23828125 c 1
 448.639648438 172.545898438 l 1
 447.759765625 120.31640625 l 1
 447.759765625 120.31640625 384.275390625 4.2392578125 247.284179688 0.3408203125 c 1
 247.284179688 0.3408203125 31.3408203125 -9.6826171875 27.4423828125 250.377929688 c 1
 27.4423828125 250.377929688 24.3486328125 494.969726562 254.15234375 486.493164062 c 1
 342.385742188 486.493164062 401.229492188 443.119140625 401.229492188 443.119140625 c 1
 432.970703125 399.744140625 447.697265625 416.017578125 447.697265625 416.017578125 c 1
 429.939453125 370.291992188 388.696289062 319.541015625 388.696289062 319.541015625 c 1
 367.170898438 325.65234375 l 1
 364.3203125 420.639648438 277.200195312 418.879882812 277.200195312 418.879882812 c 1
 277.200195312 418.879882812 111.729492188 430.3203125 111.729492188 233.84375 c 0
 111.729492188 69.51953125 278.080078125 81.83984375 278.080078125 81.83984375 c 1
EndSplineSet
Validated: 33
EndChar

StartChar: D
Encoding: 68 68 3
Width: 434
VWidth: 0
Flags: W
HStem: 0.0175781 74.6074<120.388 211.716> 411.252 74.793<120.388 207.57>
VStem: 47.7471 72.6406<98.9346 328.01 345.953 402.26> 327.112 75.1299<138.752 346.83>
LayerCount: 2
Fore
SplineSet
207.5703125 486.044921875 m 1
 207.5703125 486.044921875 402.180664062 482.951171875 402.2421875 243.0625 c 0
 402.2421875 3.1728515625 211.715820312 0.017578125 211.715820312 0.017578125 c 1
 133.381835938 0.017578125 l 1
 97.556640625 0.017578125 l 1
 23.80078125 0.017578125 l 1
 23.80078125 34.08984375 l 1
 49.703125 47.51953125 47.7470703125 98.9345703125 47.7470703125 98.9345703125 c 1
 47.7470703125 319.470703125 l 1
 49.603515625 328.009765625 l 1
 52.634765625 335.1875 l 1
 77.755859375 335.1875 l 1
 81.5302734375 340.13671875 l 1
 65.56640625 342.364257812 l 1
 50.53125 345.953125 l 1
 50.53125 355.853515625 l 1
 45.333984375 355.853515625 l 1
 45.333984375 402.259765625 l 1
 41.5595703125 404.982421875 l 1
 41.5595703125 418.470703125 l 1
 23.677734375 444.84375 l 1
 23.677734375 481.961914062 l 1
 23.677734375 486.044921875 l 1
 207.5703125 486.044921875 l 1
221.766601562 74.625 m 1
 221.766601562 74.625 327.112304688 78.3203125 327.112304688 241.88671875 c 0
 327.112304688 407.440429688 221.766601562 411.251953125 221.766601562 411.251953125 c 1
 139.30859375 411.251953125 l 1
 120.387695312 411.251953125 l 1
 120.387695312 74.625 l 1
 139.30859375 74.625 l 1
 221.766601562 74.625 l 1
EndSplineSet
Validated: 33
EndChar

StartChar: E
Encoding: 69 69 4
Width: 351
VWidth: 0
Flags: W
HStem: 0.450195 65.7666<140.414 247.923 247.962 301.586> 221.027 57.3652<166.578 186.46> 221.131 43.4092<123.451 166.572> 396.271 89.7734<264.951 328.793> 422.974 63.0713<177.097 214.889>
VStem: 45.0967 78.292<83.1335 221.131 264.54 328.855 347.418 418.49>
LayerCount: 2
Fore
SplineSet
328.79296875 396.642578125 m 1x94
 306.73828125 396.271484375 l 1x94
 291.280273438 423.280273438 214.888671875 422.973632812 214.888671875 422.973632812 c 1
 177.096679688 422.973632812 l 1
 177.096679688 422.973632812 130.133789062 426.129882812 124.193359375 397.419921875 c 1
 124.193359375 347.41796875 l 1
 118.129882812 343.458007812 l 1
 117.510742188 339.807617188 l 1
 110.766601562 339.807617188 l 1
 109.158203125 337.146484375 l 1
 108.848632812 334.176757812 l 1
 106.311523438 335.84765625 l 1
 106.62109375 330.897460938 l 1
 111.076171875 330.897460938 l 1
 114.231445312 328.85546875 l 1
 115.778320312 329.96875 l 1
 118.500976562 333.186523438 l 1
 123.327148438 335.475585938 l 1
 123.388671875 264.540039062 l 1xac
 158.83984375 264.540039062 166.578125 278.392578125 166.578125 278.392578125 c 1
 265.3203125 272.799804688 289.61328125 282.786132812 289.61328125 282.786132812 c 1
 282.919921875 261.360351562 l 1
 275.443359375 243.680664062 l 2
 264.984375 221.4140625 186.459960938 221.02734375 186.459960938 221.02734375 c 1xc4
 123.451171875 221.130859375 l 1
 123.63671875 133.227539062 l 6
 125.18359375 115.592773438 134.432617188 66.216796875 189.904296875 66.216796875 c 4
 279.400390625 66.216796875 301.602539062 85.2607421875 301.602539062 85.2607421875 c 5
 328.79296875 85.2607421875 l 5
 328.79296875 0.326171875 l 1
 301.321289062 0.388671875 247.922851562 0.2646484375 247.922851562 0.2646484375 c 1
 127.940429688 0.4501953125 l 1
 127.81640625 0.326171875 l 1
 22.326171875 0.326171875 l 1
 22.326171875 51.765625 l 5
 22.326171875 51.765625 43.1162109375 51.33203125 44.97265625 110.546875 c 6
 45.0966796875 364.474609375 l 1
 45.0966796875 386.935546875 l 2
 44.2919921875 397.639648438 42.25 410.32421875 37.30078125 420.41015625 c 0
 33.958984375 426.349609375 29.1943359375 431.91796875 22.326171875 435.754882812 c 1
 22.326171875 436.125976562 l 1
 22.326171875 485.673828125 l 1
 22.326171875 486.044921875 l 1
 55.86328125 486.044921875 l 1
 146.426757812 486.044921875 l 1xac
 328.79296875 486.044921875 l 1
 328.79296875 396.642578125 l 1x94
EndSplineSet
Validated: 33
EndChar

StartChar: F
Encoding: 70 70 5
Width: 333
VWidth: 0
Flags: W
HStem: -0.0449219 39.8271<129.73 145.657> 229.141 43.8145<123.87 163.008> 405.89 80.1553<263.598 313.62> 432.654 53.3906<186.516 229.519> 447.504 38.541<19.8994 44.8728>
VStem: 52.0127 71.8574<99.1201 229.141 272.955 304.064 322.069 402.645> 291.875 21.7451<406.199 419.229>
LayerCount: 2
Fore
SplineSet
287.275390625 271.868164062 m 2xd6
 277.666992188 231.538085938 209.484375 231.553710938 209.484375 231.491210938 c 2
 123.870117188 229.140625 l 1
 123.870117188 99.1201171875 l 1
 123.870117188 99.1201171875 123.200195312 45.759765625 145.657226562 39.7822265625 c 1
 145.657226562 -0.044921875 l 1
 31.2431640625 -0.044921875 l 1
 31.2431640625 40.21484375 l 1
 31.2431640625 40.21484375 50.7138671875 39.7822265625 52.0126953125 100.048828125 c 2
 52.0126953125 402.64453125 l 5
 52.0126953125 402.64453125 51.0400390625 442.639648438 19.8994140625 447.50390625 c 5
 19.8994140625 486.044921875 l 1
 52.0126953125 486.044921875 l 1
 138.24609375 486.044921875 l 1xce
 313.620117188 486.044921875 l 1
 313.620117188 406.19921875 l 5
 291.875 405.889648438 l 5xe6
 281.599609375 432.959960938 229.518554688 432.654296875 229.518554688 432.654296875 c 5
 186.515625 432.654296875 l 5
 186.515625 432.654296875 124.736328125 433.64453125 125.045898438 397.879882812 c 6
 125.045898438 322.069335938 l 1
 118.053710938 318.294921875 l 1
 117.311523438 314.830078125 l 1
 109.577148438 314.830078125 l 1
 107.720703125 312.29296875 l 1
 111.75 309.447265625 l 1
 108.841796875 311.055664062 l 1
 109.212890625 306.291992188 l 1
 109.948242188 306.291992188 l 1
 113.970703125 304.064453125 l 1
 118.36328125 308.51953125 l 1
 123.870117188 310.74609375 l 1
 123.870117188 272.955078125 l 1
 151.548828125 273.6796875 163.016601562 283.76171875 163.016601562 283.76171875 c 1
 263.30859375 269.280273438 256.626953125 288.155273438 256.626953125 288.155273438 c 1
 289.921875 282.978515625 l 1
 287.275390625 271.868164062 l 2xd6
EndSplineSet
Validated: 33
EndChar

StartChar: G
Encoding: 71 71 6
Width: 496
VWidth: 0
Flags: W
HStem: -0.0449219 78.1348<179.323 344.423> 180.837 24.1719<334.249 379.332> 414.194 71.9746<182.241 349.32>
VStem: 24.9971 83.9443<151.937 337.124> 379.604 67.5811<113.591 136.808 350.326 386.528>
LayerCount: 2
Fore
SplineSet
509.602539062 227.071289062 m 1
 522.362304688 224.905273438 l 1
 505.594726562 194.139648438 l 2
 500.458984375 188.26171875 481.139648438 184.982421875 469.81640625 183.1875 c 1
 457.776367188 177.759765625 446.999023438 134.010742188 446.999023438 134.010742188 c 1
 379.7265625 160.411132812 l 1
 382.095703125 170.719726562 378.576171875 181.145507812 363.825195312 181.145507812 c 1
 316.009765625 180.836914062 l 1
 334.249023438 205.008789062 l 1
 375.829101562 206.432617188 402.634765625 226.266601562 402.634765625 226.266601562 c 1
 503.536132812 212.959960938 509.602539062 227.071289062 509.602539062 227.071289062 c 1
267.856445312 78.08984375 m 0
 337.040039062 78.08984375 364.49609375 105.599609375 379.603515625 160.47265625 c 1
 447.184570312 134.073242188 l 1
 415.360351562 14.080078125 340.869140625 -0.044921875 260.741210938 -0.044921875 c 0
 130.494140625 -0.044921875 24.9970703125 108.916992188 24.9970703125 243.124023438 c 0
 24.9970703125 377.331054688 132.31640625 486.168945312 262.563476562 486.168945312 c 0
 359.919921875 486.168945312 430.3203125 433.83984375 447.040039062 349.360351562 c 1
 384.133789062 350.326171875 l 1
 374.879882812 381.040039062 338.799804688 414.194335938 259.056640625 414.194335938 c 0
 187.616210938 414.194335938 108.94140625 362.559570312 108.94140625 245.598632812 c 0
 108.94140625 140.799804688 165.515625 78.08984375 267.856445312 78.08984375 c 0
66.0205078125 344.041992188 m 1
 66.0205078125 344.041992188 72.0224609375 365.388671875 94.2353515625 369.596679688 c 1
 79.818359375 369.596679688 l 1
 71.0322265625 361.181640625 l 1
 64.783203125 361.80078125 l 1
 61.0087890625 354.684570312 l 1
 50.9853515625 354.06640625 l 1
 66.0205078125 344.041992188 l 1
EndSplineSet
Validated: 37
EndChar

StartChar: S
Encoding: 83 83 7
Width: 373
VWidth: 0
Flags: W
VStem: 275.763 40.3975<368.964 392.305>
LayerCount: 2
Fore
SplineSet
316.16015625 427.470703125 m 1
 316.16015625 368.963867188 l 1
 275.762695312 368.963867188 l 5
 252.559570312 419.759765625 132.879882812 442.639648438 115.712890625 363.45703125 c 5
 115.712890625 363.45703125 102.080078125 315.040039062 169.55859375 286.079101562 c 1
 169.55859375 286.079101562 185.061523438 277.911132812 250.030273438 246.107421875 c 1
 250.030273438 246.107421875 326.48046875 212.080078125 337.24609375 150.59375 c 1
 337.24609375 150.59375 351.120117188 93.2802734375 306.061523438 44.814453125 c 1
 306.061523438 44.814453125 269.974609375 -4.06640625 171.96484375 0.2646484375 c 1
 171.96484375 0.2646484375 56.3681640625 3.234375 23.388671875 68.822265625 c 1
 23.388671875 145.71875 l 1
 60.1083984375 145.71875 l 1
 60.1083984375 145.71875 75.28125 81.92578125 164.2578125 74.810546875 c 1
 164.2578125 74.810546875 266.137695312 70.400390625 266.137695312 127.576171875 c 1
 266.137695312 127.576171875 273.6796875 183.919921875 149.255859375 209.3125 c 1
 149.255859375 209.3125 155.072265625 223.296875 178.4609375 234.991210938 c 1
 163.549804688 234.991210938 l 1
 154.454101562 226.576171875 l 1
 147.95703125 227.194335938 l 1
 144.05859375 220.079101562 l 1
 133.6640625 219.459960938 l 1
 133.6640625 219.459960938 51.693359375 236.647460938 46.3720703125 344.43359375 c 1
 46.3720703125 344.43359375 42.240234375 432.959960938 120.669921875 467.90234375 c 1
 120.608398438 467.778320312 219.120117188 520.959960938 316.16015625 427.470703125 c 1
EndSplineSet
Validated: 33
EndChar

StartChar: T
Encoding: 84 84 8
Width: 445
VWidth: 0
Flags: W
HStem: -0.0449219 31.0273<263.612 276.097> 401.489 84.5557<18.2773 39.6514 379.584 426.941> 428.254 57.791<42.9711 183.924 278.736 344.434>
VStem: 183.931 73.0264<90.3203 308.464 326.47 406.007> 405.752 21.251<401.489 415.614>
LayerCount: 2
Fore
SplineSet
426.94140625 486.044921875 m 1xd8
 427.002929688 401.489257812 l 1
 405.751953125 401.489257812 l 1xd8
 399.51953125 428.559570312 344.43359375 428.25390625 344.43359375 428.25390625 c 1
 278.736328125 428.25390625 l 1
 278.736328125 428.25390625 257.884765625 426.799804688 257.884765625 411.080078125 c 2
 257.884765625 326.469726562 l 1
 251.8828125 322.6953125 l 1
 251.263671875 319.23046875 l 1
 244.643554688 319.23046875 l 1
 243.03515625 316.693359375 l 1
 242.725585938 313.84765625 l 1
 240.188476562 315.456054688 l 1
 240.498046875 310.69140625 l 1
 244.953125 310.69140625 l 1
 248.41796875 308.463867188 l 1
 252.192382812 312.918945312 l 1
 256.95703125 315.146484375 l 1
 256.95703125 90.3203125 l 1
 256.95703125 90.3203125 256.959960938 35.2001953125 276.096679688 30.982421875 c 1
 276.096679688 -0.044921875 l 1
 165.870117188 -0.044921875 l 1
 164.989257812 30.53515625 l 1
 164.989257812 30.53515625 182.81640625 30.982421875 183.930664062 91.248046875 c 2
 183.930664062 406.006835938 l 1
 183.930664062 406.006835938 183.919921875 428.192382812 156.258789062 428.192382812 c 1
 128.662109375 428.192382812 119.28515625 428.192382812 101.588867188 428.25390625 c 0xb8
 51.0361328125 428.377929688 39.6513671875 401.489257812 39.6513671875 401.489257812 c 1
 18.27734375 401.489257812 l 1
 18.27734375 486.044921875 l 1
 426.94140625 486.044921875 l 1xd8
EndSplineSet
Validated: 33
EndChar

StartChar: U
Encoding: 85 85 9
Width: 424
VWidth: 0
Flags: W
HStem: -0.0449219 70.6816<207.956 277.457> 460.374 25.6709<106.21 118.959 306.509 318.461>
VStem: 21.9941 79.0215<161.74 422.493> 324.453 77.5088<165.533 171.473 171.633 421.441>
LayerCount: 2
Fore
SplineSet
306.508789062 485.873046875 m 1
 420.337890625 486.044921875 l 1
 420.337890625 458.827148438 l 1
 420.337890625 458.827148438 401.837890625 450.96875 402.39453125 421.455078125 c 0
 402.951171875 391.940429688 401.961914062 171.47265625 401.961914062 171.47265625 c 1
 401.961914062 165.533203125 l 1
 397.444335938 157.1796875 l 1
 401.961914062 155.756835938 l 1
 401.961914062 155.756835938 389.62109375 -0.044921875 202.634765625 -0.044921875 c 0
 37.056640625 -0.044921875 21.994140625 161.573242188 21.994140625 161.573242188 c 1
 21.994140625 161.573242188 21.560546875 391.940429688 22.1181640625 421.455078125 c 0
 22.6748046875 450.96875 4.173828125 458.827148438 4.173828125 458.827148438 c 1
 4.173828125 486.044921875 l 1
 118.958984375 486.044921875 l 1
 118.958984375 460.374023438 l 1
 100.458007812 453.196289062 101.015625 422.493164062 101.015625 422.493164062 c 1
 101.015625 201.399414062 l 1
 101.015625 65.1201171875 207.956054688 70.63671875 207.956054688 70.63671875 c 5
 295.6796875 70.63671875 319.069335938 142.866210938 323.462890625 177.88671875 c 0
 323.709960938 185.126953125 324.01953125 192.61328125 324.453125 200.41015625 c 2
 324.143554688 211.23828125 l 1
 324.453125 421.44140625 l 1
 324.453125 421.44140625 325.009765625 452.083007812 306.508789062 459.322265625 c 1
 306.508789062 485.873046875 l 1
EndSplineSet
Validated: 33
EndChar

StartChar: V
Encoding: 86 86 10
Width: 455
VWidth: 0
Flags: W
HStem: -0.0595703 21G<185.849 282.699> 456.626 29.0469<302.231 317.503>
LayerCount: 2
Fore
SplineSet
302.231445312 485.672851562 m 1
 433.66796875 485.672851562 l 1
 433.66796875 455.759765625 l 1
 433.66796875 455.759765625 409.908203125 445.138671875 384.663085938 373.982421875 c 2
 276.938476562 -0.0595703125 l 1
 192.575195312 -0.0595703125 l 1
 67.7119140625 371.197265625 l 1
 67.7119140625 371.197265625 37.7646484375 444.994140625 22.171875 457.5546875 c 1
 22.171875 485.672851562 l 1
 156.076171875 485.672851562 l 5
 156.014648438 457.616210938 l 5
 156.014648438 457.616210938 116.10546875 451.586914062 154.900390625 344.419921875 c 6
 233.481445312 96.7060546875 l 1
 236.314453125 96.7060546875 l 1
 315.596679688 377.508789062 l 1
 315.596679688 377.508789062 338.243164062 442.766601562 302.045898438 456.625976562 c 1
 302.231445312 485.672851562 l 1
EndSplineSet
Validated: 33
EndChar

StartChar: W
Encoding: 87 87 11
Width: 586
VWidth: 0
Flags: W
HStem: -0.175781 20.2461<127.518 131.127 448.598 452.128> 457.272 28.999<22.626 41.863 544.817 563.454>
VStem: 497.062 1.2998<269.042 282.159>
LayerCount: 2
Fore
SplineSet
257.221679688 105.692382812 m 1
 257.46875 106.55859375 l 1
 257.344726562 106.55859375 l 1
 257.221679688 105.692382812 l 1
442.818359375 486.271484375 m 1
 563.454101562 486.271484375 l 1
 563.454101562 457.272460938 l 1
 534.9296875 455.044921875 521.193359375 373.6796875 521.193359375 373.6796875 c 1
 498.362304688 269.041992188 l 1
 497.0625 282.159179688 l 1
 490.1328125 280.1171875 l 1
 489.823242188 275.10546875 l 1
 482.150390625 274.239257812 l 1
 484.31640625 270.712890625 l 1
 484.31640625 270.712890625 478.12890625 269.3515625 475.901367188 265.82421875 c 0
 473.673828125 262.297851562 471.075195312 256.60546875 471.075195312 256.60546875 c 1
 477.509765625 259.265625 l 1
 480.48046875 255.739257812 l 1
 483.326171875 259.69921875 l 1
 487.34765625 256.666992188 l 1
 496.010742188 256.047851562 l 1
 456.149414062 94.8779296875 l 1
 456.2109375 94.8779296875 l 1
 456.2109375 94.8779296875 441.91796875 22.1123046875 452.250976562 19.513671875 c 1
 452.127929688 -0.1142578125 l 1
 449.71484375 -0.1142578125 l 1
 377.1484375 -0.1142578125 l 1
 376.83984375 -0.1142578125 l 1
 368.293945312 20.6279296875 l 1
 340.97265625 75.833984375 l 1
 342.471679688 89.96875 l 1
 340.97265625 75.833984375 l 1
 333.086914062 95.78515625 l 1
 327.923828125 108.38671875 l 1
 294.951171875 178.68359375 l 1
 263.3125 118.748046875 l 1
 262.384765625 120.232421875 l 1
 260.899414062 119.861328125 l 1
 262.5703125 129.018554688 l 1
 261.951171875 126.482421875 l 1
 261.33203125 124.068359375 l 1
 261.33203125 124.068359375 259.599609375 123.388671875 258.362304688 123.388671875 c 0
 257.186523438 123.388671875 261.33203125 126.172851562 261.33203125 126.172851562 c 1
 259.166992188 126.172851562 l 1
 259.166992188 144.549804688 l 1
 257.310546875 146.529296875 l 1
 259.84765625 132.731445312 258.176757812 123.450195312 256.75390625 118.809570312 c 1
 251.184570312 117.509765625 l 1
 251.184570312 115.282226562 l 1
 245.616210938 113.0546875 l 1
 246.826171875 103.7734375 l 1
 256.849609375 106.373046875 l 1
 257.283203125 105.692382812 l 1
 209.020507812 19.576171875 l 1
 199.780273438 -0.17578125 l 1
 129.930664062 -0.17578125 l 1
 127.517578125 -0.17578125 l 1
 127.393554688 20.0703125 l 1
 136.1796875 24.4638671875 128.4453125 76.376953125 125.78515625 92.7119140625 c 2
 70.166015625 373.6796875 l 1
 70.166015625 373.6796875 56.099609375 449.166992188 22.6259765625 457.272460938 c 1
 22.6259765625 486.271484375 l 1
 153.002929688 486.271484375 l 1
 152.94140625 457.333984375 l 1
 152.94140625 457.333984375 134.935546875 451.0234375 145.021484375 378.072265625 c 1
 143.969726562 378.567382812 141.432617188 379.43359375 138.338867188 379.557617188 c 2
 138.338867188 379.557617188 124.6640625 387.353515625 130.8515625 375.412109375 c 1
 134.0078125 374.669921875 l 1
 134.935546875 372.1328125 l 1
 139.266601562 372.0703125 l 1
 146.75390625 366.130859375 l 1
 148.115234375 357.654296875 149.84765625 347.430664062 152.012695312 337.283203125 c 2
 193.249023438 147.958984375 l 1
 195.662109375 147.958984375 l 1
 249.583007812 236.921875 l 1
 294.96484375 311.6328125 l 1
 339.109375 230.76171875 l 1
 387.75 137.399414062 l 1
 390.163085938 137.399414062 l 1
 441.987304688 337.283203125 l 2
 464.509765625 445.935546875 442.880859375 457.333984375 442.880859375 457.333984375 c 1
 442.818359375 486.271484375 l 1
EndSplineSet
Validated: 37
EndChar

StartChar: X
Encoding: 88 88 12
Width: 484
VWidth: 0
Flags: W
HStem: 0.0175781 27.2451<146.013 159.043> 458.429 27.2451<281.871 294.902>
LayerCount: 2
Fore
SplineSet
368.709960938 71.689453125 m 1
 368.709960938 71.689453125 390.379882812 42.05078125 415.748046875 26.953125 c 1
 415.748046875 -0.044921875 l 1
 277.911132812 -0.044921875 l 1
 277.973632812 26.7060546875 l 1
 277.973632812 26.7060546875 305.07421875 46.505859375 278.963867188 90.6845703125 c 2
 223.620117188 189.74609375 l 1
 222.1484375 189.74609375 l 1
 147.286132812 68.2861328125 l 1
 147.286132812 68.2861328125 135.654296875 34.75 159.228515625 27.2626953125 c 1
 159.04296875 0.017578125 l 1
 16.33203125 0.017578125 l 1
 16.33203125 27.7578125 l 1
 16.33203125 27.7578125 37.3076171875 32.02734375 59.58203125 70.2041015625 c 2
 180.251953125 245.310546875 l 1
 80.9423828125 387.725585938 l 1
 80.9423828125 387.725585938 48.7744140625 443.763671875 23.4677734375 458.73828125 c 1
 23.4677734375 485.736328125 l 1
 153.384765625 485.736328125 l 1
 153.323242188 458.985351562 l 1
 153.323242188 458.985351562 121.891601562 449.6015625 143.533203125 412.606445312 c 2
 212.076171875 310.904296875 l 5
 222.34765625 310.904296875 l 5
 293.627929688 417.405273438 l 1
 293.627929688 417.405273438 305.260742188 450.94140625 281.685546875 458.428710938 c 1
 281.87109375 485.673828125 l 1
 409.623046875 485.673828125 l 1
 409.623046875 457.995117188 l 1
 409.623046875 457.995117188 388.647460938 453.725585938 366.372070312 415.548828125 c 2
 260.600585938 245.72265625 l 1
 368.709960938 71.689453125 l 1
EndSplineSet
Validated: 33
EndChar

StartChar: Y
Encoding: 89 89 13
Width: 445
VWidth: 0
Flags: W
HStem: -0.167969 31.3359<265.95 279.874> 458.813 27.2314<20.4873 32.8014 314.572 322.432>
VStem: 191.132 68.7568<81.2861 92.3623 109.316 192.496>
LayerCount: 2
Fore
SplineSet
314.572265625 486.044921875 m 1
 424.79296875 486.044921875 l 1
 424.79296875 458.008789062 l 1
 424.79296875 458.008789062 411.874023438 452.935546875 388.794921875 407.705078125 c 2
 259.888671875 192.49609375 l 1
 259.888671875 81.2861328125 l 1
 259.888671875 81.2861328125 259.888671875 36.921875 279.874023438 31.16796875 c 1
 279.874023438 -0.16796875 l 1
 164.092773438 -0.16796875 l 1
 164.092773438 28.5068359375 l 1
 164.092773438 28.5068359375 189.15234375 35.1279296875 191.37890625 92.3623046875 c 1
 200.041992188 99.044921875 l 1
 239.951171875 95.951171875 l 1
 241.74609375 100.838867188 l 1
 226.21484375 102.200195312 l 1
 221.759765625 106.655273438 l 1
 196.01953125 106.655273438 l 1
 191.131835938 109.31640625 l 1
 191.131835938 193.748046875 l 1
 57.32421875 405.91015625 l 1
 57.32421875 405.91015625 27.2802734375 458.813476562 20.4873046875 458.813476562 c 1
 20.4873046875 486.044921875 l 1
 151.030273438 486.044921875 l 1
 150.967773438 459.184570312 l 1
 150.967773438 459.184570312 122.876953125 435.671875 149.916015625 383.326171875 c 2
 226.153320312 264.739257812 l 5
 232.395507812 264.739257812 l 5
 300.362304688 383.532226562 l 1
 300.362304688 383.532226562 338.765625 449.65625 314.38671875 458.50390625 c 1
 314.572265625 486.044921875 l 1
EndSplineSet
Validated: 33
EndChar

StartChar: H
Encoding: 72 72 14
Width: 447
VWidth: 0
Flags: W
HStem: 0.0175781 31.6455<28.167 43.8106 298.602 314.246> 202.754 71.8301<148.624 298.664> 466.045 20G<28.167 148.5 298.54 418.873>
VStem: 28.167 120.395<0.0175781 31.6631 454.895 486.045> 49.9473 75.1025<93.6611 202.603 275.073 413.253> 298.602 120.271<0.0175781 31.6631 454.957 486.107> 321.372 74.0508<93.6611 202.816 274.601 324.332 343.142 413.253>
LayerCount: 2
Fore
SplineSet
418.873046875 457.24609375 m 1xec
 395.793945312 444.685546875 395.422851562 413.252929688 395.422851562 413.252929688 c 1
 395.422851562 94.6513671875 l 2xe2
 396.59765625 31.6630859375 418.873046875 32.095703125 418.873046875 32.095703125 c 1
 418.873046875 0.017578125 l 1
 298.6015625 0.017578125 l 1
 298.6015625 31.6630859375 l 1xe4
 320.876953125 31.6630859375 321.372070312 93.6611328125 321.372070312 93.6611328125 c 1
 321.372070312 164.391601562 l 2
 319.454101562 201.763671875 298.6640625 202.939453125 298.6640625 202.939453125 c 1
 148.685546875 202.75390625 l 2
 131.298828125 202.75390625 126.348632812 179.489257812 125.111328125 160.678710938 c 2
 125.111328125 138.58984375 l 2
 125.172851562 137.78515625 125.235351562 137.290039062 125.235351562 137.290039062 c 1
 125.111328125 137.661132812 l 1
 125.111328125 94.6513671875 l 2
 126.287109375 31.6630859375 148.561523438 32.095703125 148.561523438 32.095703125 c 1
 148.561523438 0.017578125 l 1
 28.1669921875 0.017578125 l 1
 28.1669921875 31.6630859375 l 1xf2
 50.44140625 31.6630859375 50.9365234375 93.6611328125 50.9365234375 93.6611328125 c 1
 49.947265625 418.57421875 l 2xe8
 49.947265625 447.655273438 28.1669921875 454.89453125 28.1669921875 454.89453125 c 1
 28.1669921875 486.044921875 l 1xf0
 148.5 486.044921875 l 1
 148.5 457.18359375 l 1
 125.358398438 444.623046875 125.049804688 413.252929688 125.049804688 413.252929688 c 1
 125.049804688 341.841796875 l 1
 125.172851562 342.213867188 l 1
 125.606445312 276.564453125 148.624023438 274.583984375 148.624023438 274.583984375 c 1
 298.6015625 274.522460938 l 2
 317.721679688 275.698242188 320.815429688 309.54296875 321.309570312 320.37109375 c 2
 321.309570312 331.26171875 l 1
 326.259765625 328.97265625 l 1
 330.219726562 324.33203125 l 1
 333.87109375 326.62109375 l 1
 338.51171875 326.62109375 l 1
 338.8203125 331.571289062 l 1
 336.16015625 329.900390625 l 1
 335.850585938 332.870117188 l 1
 334.1796875 335.53125 l 1
 327.25 335.53125 l 1
 326.569335938 339.181640625 l 1
 320.3203125 343.141601562 l 1
 320.3203125 418.635742188 l 2
 320.3203125 447.716796875 298.540039062 454.95703125 298.540039062 454.95703125 c 1
 298.540039062 486.107421875 l 1
 418.873046875 486.107421875 l 1
 418.873046875 457.24609375 l 1xec
EndSplineSet
Validated: 33
EndChar

StartChar: I
Encoding: 73 73 15
Width: 162
VWidth: 0
Flags: W
HStem: -0.0449219 31.6455<125.514 141.157> 466.045 20G<21.6426 141.157>
VStem: 21.6426 119.515<-0.0449219 31.6006 454.895 486.045> 45.0928 73.2949<93.5996 322.51 341.319 413.253>
LayerCount: 2
Fore
SplineSet
21.642578125 486.044921875 m 5xe0
 141.157226562 486.044921875 l 5
 141.157226562 454.89453125 l 5xe0
 141.157226562 454.89453125 119.377929688 447.655273438 119.377929688 418.57421875 c 6
 119.377929688 341.319335938 l 5
 113.127929688 337.359375 l 5
 112.447265625 333.708984375 l 5
 105.517578125 333.708984375 l 5
 103.846679688 331.048828125 l 5
 103.537109375 328.078125 l 5
 100.876953125 329.749023438 l 5
 101.186523438 324.798828125 l 5
 105.827148438 324.798828125 l 5
 109.477539062 322.509765625 l 5
 113.4375 327.150390625 l 5
 118.387695312 329.439453125 l 5
 118.387695312 93.599609375 l 5xd0
 118.387695312 93.599609375 118.8828125 31.6005859375 141.157226562 31.6005859375 c 5
 141.157226562 -0.044921875 l 5
 21.642578125 -0.044921875 l 5
 21.642578125 32.0341796875 l 5xe0
 21.642578125 32.0341796875 43.91796875 31.6005859375 45.0927734375 94.58984375 c 6
 45.0927734375 413.252929688 l 5xd0
 45.0927734375 413.252929688 44.7841796875 444.623046875 21.642578125 457.18359375 c 5
 21.642578125 486.044921875 l 5xe0
141.095703125 31.6005859375 m 1028
EndSplineSet
Validated: 33
EndChar

StartChar: J
Encoding: 74 74 16
Width: 301
VWidth: 0
Flags: W
HStem: -20.8418 20G<28.2115 47.5439> 459.611 26.4961<266.162 277.83>
VStem: 178.904 75.625<-39.144 421.496 457.198 459.549 461.22 463.323>
LayerCount: 2
Fore
SplineSet
167.643554688 56.013671875 m 1028
156.196289062 486.044921875 m 1
 156.196289062 486.107421875 l 1
 277.98046875 486.107421875 l 1
 277.98046875 465.921875 l 1
 274.762695312 464.127929688 272.040039062 461.961914062 269.626953125 459.611328125 c 2
 266.162109375 459.611328125 l 1
 264.05859375 464.994140625 l 1
 255.272460938 463.323242188 l 1
 255.272460938 461.219726562 l 1
 250.87890625 459.548828125 l 1
 250.87890625 457.198242188 l 1
 253.16796875 454.166015625 l 1
 259.665039062 452.309570312 l 1
 260.96484375 456.083984375 l 1
 264.305664062 455.403320312 l 1
 267.5234375 457.4453125 l 1
 254.77734375 442.78125 254.529296875 421.49609375 254.529296875 421.49609375 c 1
 254.529296875 -15.025390625 l 1
 254.529296875 -107.360351562 177.481445312 -128.627929688 177.481445312 -128.627929688 c 1
 177.481445312 -128.627929688 50.16015625 -183.040039062 15.0595703125 -58.3173828125 c 5
 35.23046875 -0.841796875 l 1
 47.5439453125 -0.841796875 l 1
 47.5439453125 -0.841796875 64.9306640625 -32.529296875 89.43359375 -47.1318359375 c 6
 89.185546875 -47.0078125 l 5
 85.720703125 -50.287109375 l 5
 87.453125 -52.453125 l 5
 89.185546875 -50.7822265625 l 5
 89.185546875 -52.453125 l 5
 87.453125 -54.123046875 l 5
 89.185546875 -55.484375 l 5
 90.0517578125 -56.9697265625 l 5
 93.0224609375 -57.9599609375 l 5
 91.3515625 -56.103515625 l 5
 91.8466796875 -54.123046875 l 5
 89.37109375 -53.9375 l 5
 91.3515625 -52.453125 l 5
 90.6708984375 -50.5966796875 l 5
 94.81640625 -50.1630859375 l 5
 94.3837890625 -49.916015625 l 6
 104.53125 -54.9892578125 115.66796875 -57.650390625 127.176757812 -55.298828125 c 5
 127.176757812 -55.298828125 178.904296875 -51.5869140625 178.904296875 26.80859375 c 6
 178.904296875 327.70703125 l 1
 177.915039062 426.817382812 l 2
 177.915039062 456.208007812 156.196289062 464.560546875 156.196289062 464.560546875 c 1
 156.196289062 486.044921875 l 1
EndSplineSet
Validated: 33
EndChar

StartChar: K
Encoding: 75 75 17
Width: 440
VWidth: 0
Flags: W
HStem: 0.0175781 20.9375G<15.7676 130.944 282.745 424.232> 461.948 24.0967<15.7676 31.0731 408.041 421.971>
VStem: 15.7676 115.177<-0.0449219 31.7383 460.34 486.045> 36.6816 77.3711<73.4602 165.595 176.794 432.001>
LayerCount: 2
Fore
SplineSet
15.767578125 461.948242188 m 1xe0
 15.767578125 486.044921875 l 1xe0
 134.966796875 486.044921875 l 1
 134.966796875 460.33984375 l 1
 134.966796875 460.33984375 113.372070312 452.234375 114.052734375 421.791992188 c 0
 114.733398438 391.348632812 114.052734375 73.2294921875 114.052734375 73.2294921875 c 1xd0
 114.052734375 73.2294921875 113.928710938 42.2919921875 130.944335938 30.6591796875 c 1
 130.944335938 -0.044921875 l 1
 15.767578125 -0.044921875 l 1
 15.767578125 31.73828125 l 1xe0
 15.767578125 31.73828125 36.681640625 40.48046875 36.681640625 75.298828125 c 2
 36.681640625 165.594726562 l 1
 51.53125 163.243164062 l 1
 61.3076171875 157.1796875 l 1
 66.1962890625 158.169921875 l 1
 68.0517578125 152.786132812 l 1
 77.51953125 155.508789062 l 1
 80.921875 159.90234375 l 1
 80.921875 163.305664062 l 1
 74.4873046875 165.65625 l 1
 74.4873046875 168.688476562 l 1
 61.6787109375 171.040039062 l 1
 58.6474609375 163.243164062 l 1
 51.53125 163.243164062 l 1
 36.3720703125 176.793945312 l 1
 36.681640625 432.000976562 l 1xd0
 36.681640625 432.000976562 37.3623046875 454.5234375 15.767578125 461.948242188 c 1xe0
352.33984375 103.946289062 m 2
 397.323242188 35.7607421875 424.232421875 31.4775390625 424.232421875 31.5390625 c 2
 424.232421875 0.017578125 l 1
 282.745117188 0.017578125 l 1
 282.745117188 28.47265625 l 1
 302.719726562 43.1201171875 265.759765625 80.9599609375 265.759765625 80.9599609375 c 1
 226.93359375 125.651367188 l 1
 226.93359375 134.189453125 l 1
 255.272460938 134.189453125 l 1
 260.655273438 137.778320312 l 1
 250.322265625 142.233398438 l 1
 248.094726562 144.02734375 l 1
 244.505859375 140.439453125 l 1
 244.505859375 140.439453125 232.811523438 142.666992188 231.450195312 142.666992188 c 0
 230.088867188 142.666992188 231.450195312 147.616210938 231.450195312 147.616210938 c 1
 215.671875 149.411132812 l 1
 135.963867188 254.694335938 l 1
 280.977539062 416.841796875 l 2
 305.41796875 445.551757812 280.977539062 459.473632812 280.977539062 459.473632812 c 1
 280.977539062 486.044921875 l 1
 421.970703125 486.044921875 l 1
 422.403320312 459.473632812 l 1
 403.284179688 454.028320312 357.33203125 396.526367188 357.33203125 396.526367188 c 1
 229.120117188 254.694335938 l 1
 266.4921875 197.76953125 316.177734375 174.030273438 316.177734375 174.030273438 c 1
 352.33984375 103.946289062 l 2
269.008789062 133.942382812 m 1
 272.783203125 135.736328125 l 1
 270.555664062 137.53125 l 1
 269.008789062 141.986328125 l 1
 263.377929688 137.53125 l 1
 269.008789062 133.942382812 l 1
EndSplineSet
Validated: 37
EndChar

StartChar: L
Encoding: 76 76 18
Width: 336
VWidth: 0
Flags: W
HStem: -0.0449219 79.627<296.364 323.864> -0.0449219 58.9121<126.035 143.251 143.375 262.546 262.57 296.313> 466.045 20G<17.5762 130.051>
VStem: 35.7461 75.9346<141.546 322.51 341.319 413.253>
LayerCount: 2
Fore
SplineSet
296.364257812 79.58203125 m 1xb0
 323.864257812 79.58203125 l 1
 323.864257812 -0.044921875 l 1xb0
 295.525390625 0.017578125 262.545898438 -0.1064453125 262.545898438 -0.1064453125 c 1
 143.375 0.0791015625 l 1
 143.250976562 -0.044921875 l 1
 12.2958984375 -0.044921875 l 1
 14.0556640625 46.994140625 l 1
 14.0556640625 46.994140625 35.74609375 65.1201171875 35.74609375 147.389648438 c 2
 35.74609375 413.252929688 l 1
 35.74609375 413.252929688 36.9599609375 447.040039062 17.576171875 457.18359375 c 1
 17.576171875 486.044921875 l 1
 130.05078125 486.044921875 l 1
 130.05078125 454.89453125 l 1
 130.05078125 454.89453125 112.670898438 447.040039062 112.670898438 409.774414062 c 2
 112.670898438 341.319335938 l 1
 106.421875 337.359375 l 1
 105.741210938 333.708984375 l 1
 98.810546875 333.708984375 l 1
 97.140625 331.048828125 l 1
 96.8310546875 328.078125 l 1
 94.169921875 329.749023438 l 1
 94.4794921875 324.798828125 l 1
 99.1201171875 324.798828125 l 1
 102.770507812 322.509765625 l 1
 106.73046875 327.150390625 l 1
 111.680664062 329.439453125 l 1
 111.680664062 141.545898438 l 1
 111.680664062 141.545898438 109.120117188 58.8671875 162.76171875 58.8671875 c 0x70
 226.16015625 58.8671875 296.364257812 79.58203125 296.364257812 79.58203125 c 1xb0
EndSplineSet
Validated: 33
EndChar

StartChar: M
Encoding: 77 77 19
Width: 567
VWidth: 0
Flags: W
HStem: 0.508789 31.625<134.181 149.189 523.011 534.42> 453.784 32.1514<39.6084 52.4343 499.824 512.739 515.135 534.303>
VStem: 55.7373 72.5312<85.6621 105.181 122.653 360.415> 432.728 83.752<80.2861 292.916 317.869 360.006>
LayerCount: 2
Fore
SplineSet
499.82421875 453.784179688 m 1
 499.473632812 449.986328125 l 1
 492.227539062 445.836914062 l 1
 504.733398438 444.200195312 l 1
 507.12890625 447.53125 l 1
 516.538085938 446.713867188 l 1
 520.5703125 450.453125 l 1
 518.93359375 442.564453125 l 1
 518.93359375 317.869140625 l 1
 507.24609375 317.05078125 l 1
 503.623046875 314.12890625 l 1
 500.818359375 317.869140625 l 1
 498.012695312 314.538085938 l 1
 491.935546875 317.05078125 l 1
 495.55859375 309.162109375 l 1
 499.590820312 305.831054688 l 1
 504.44140625 303.727539062 l 1
 502.395507812 300.396484375 l 1
 509.641601562 299.578125 l 1
 510.05078125 293.325195312 l 1
 516.479492188 292.916015625 l 1
 516.479492188 80.2861328125 l 1
 516.479492188 80.2861328125 518.93359375 39.205078125 534.419921875 32.1337890625 c 1
 534.419921875 0.5087890625 l 1
 415.372070312 0.5087890625 l 1
 415.372070312 32.0166015625 l 1
 415.372070312 32.0166015625 433.545898438 37.2177734375 432.727539062 81.513671875 c 2
 432.727539062 360.005859375 l 1
 429.104492188 360.005859375 l 1
 283.829101562 159.166992188 l 1
 132.709960938 360.415039062 l 1
 128.268554688 360.415039062 l 1
 128.268554688 122.653320312 l 1
 122.19140625 115.58203125 l 1
 118.159179688 114.764648438 l 1
 117.75 112.251953125 l 1
 114.9453125 111.024414062 l 1
 114.9453125 111.024414062 111.73046875 103.077148438 118.159179688 105.180664062 c 2
 118.159179688 105.180664062 121.431640625 108.51171875 122.600585938 108.51171875 c 0
 123.768554688 108.51171875 129.028320312 111.43359375 129.028320312 111.43359375 c 1
 129.028320312 85.662109375 l 1
 129.028320312 85.662109375 127.80078125 35.1142578125 149.189453125 31.3740234375 c 1
 149.189453125 0.5087890625 l 1
 33.1806640625 0.5087890625 l 1
 33.1806640625 31.3740234375 l 1
 33.1806640625 31.3740234375 55.7373046875 39.4384765625 55.7373046875 83.1494140625 c 0
 55.7373046875 126.861328125 55.7373046875 421.760742188 55.7373046875 421.760742188 c 1
 55.7373046875 421.760742188 54.1015625 449.635742188 39.6083984375 453.784179688 c 1
 39.6083984375 485.935546875 l 1
 153.572265625 485.935546875 l 1
 287.04296875 293.325195312 l 1
 424.956054688 485.935546875 l 1
 534.302734375 485.935546875 l 1
 534.302734375 457.524414062 l 1
 515.134765625 457.115234375 l 1
 512.739257812 453.784179688 l 1
 499.82421875 453.784179688 l 1
355.240234375 270.981445312 m 1
 358.86328125 276.883789062 l 1
 354.831054688 278.75390625 l 1
 353.603515625 283.545898438 l 1
 342.325195312 286.467773438 l 1
 339.520507812 277.702148438 l 1
 344.779296875 275.59765625 l 1
 344.779296875 273.494140625 l 1
 355.240234375 270.981445312 l 1
EndSplineSet
Validated: 33
EndChar

StartChar: N
Encoding: 78 78 20
Width: 508
VWidth: 0
Flags: W
HStem: -0.167969 31.6455<134.715 149.022 468.768 484.412> 465.922 20G<24.2275 146.878 364.78 484.351>
VStem: 47.6777 78.5752<93.4756 234.51 253.319 337.395> 386.018 75.625<125.589 410.84>
LayerCount: 2
Fore
SplineSet
148.9609375 31.6005859375 m 1024
462.5703125 418.57421875 m 2
 461.642578125 329.439453125 l 1
 461.642578125 93.599609375 l 1
 461.642578125 93.599609375 462.137695312 31.6005859375 484.412109375 31.6005859375 c 1
 484.412109375 -0.044921875 l 1
 385.3984375 -0.044921875 l 1
 127.2421875 337.39453125 l 1
 127.2421875 253.319335938 l 1
 120.993164062 249.359375 l 1
 120.3125 245.708984375 l 1
 113.3828125 245.708984375 l 1
 111.711914062 243.048828125 l 1
 111.40234375 240.078125 l 1
 108.7421875 241.749023438 l 1
 109.05078125 236.798828125 l 1
 113.69140625 236.798828125 l 1
 117.342773438 234.509765625 l 1
 121.302734375 239.150390625 l 1
 126.252929688 241.439453125 l 1
 126.252929688 93.4755859375 l 1
 126.252929688 93.4755859375 124.959960938 40.48046875 149.022460938 31.4775390625 c 1
 149.022460938 -0.16796875 l 1
 24.2275390625 -0.16796875 l 1
 24.2275390625 31.91015625 l 1
 24.2275390625 31.91015625 46.5029296875 31.4775390625 47.677734375 94.4658203125 c 2
 47.677734375 413.12890625 l 1
 47.677734375 413.12890625 47.369140625 444.5 24.2275390625 457.060546875 c 1
 24.2275390625 485.921875 l 1
 124.478515625 485.921875 l 1
 146.258789062 485.921875 l 1
 146.877929688 484.807617188 l 1
 139.637695312 447.194335938 l 1
 136.791992188 447.008789062 l 1
 136.543945312 441.997070312 l 1
 125.530273438 435.067382812 l 1
 122.250976562 438.717773438 l 1
 109.56640625 429.68359375 l 1
 133.512695312 419.66015625 l 1
 127.881835938 425.91015625 l 1
 148.610351562 435.795898438 l 5
 148.918945312 437.095703125 l 5
 386.017578125 125.588867188 l 1
 388.059570312 410.83984375 l 1
 388.059570312 410.83984375 386.499023438 441.467773438 364.780273438 457.18359375 c 1
 364.780273438 486.044921875 l 1
 484.350585938 486.044921875 l 1
 484.350585938 454.89453125 l 1
 484.350585938 454.89453125 462.5703125 447.655273438 462.5703125 418.57421875 c 2
EndSplineSet
Validated: 33
EndChar

StartChar: O
Encoding: 79 79 21
Width: 523
VWidth: 0
Flags: W
HStem: 0.369141 78.2539<184.411 340.02> 409.984 75.8838<188.456 333.919>
VStem: 22.1309 95.5303<148.437 310.485> 404.221 97.249<147.32 331.576>
LayerCount: 2
Fore
SplineSet
261.799804688 485.868164062 m 0
 394.142578125 485.868164062 501.469726562 374.141601562 501.469726562 241.798828125 c 0
 501.469726562 109.456054688 394.204101562 0.369140625 261.799804688 0.369140625 c 0
 129.396484375 0.369140625 22.130859375 109.456054688 22.130859375 241.798828125 c 0
 22.130859375 374.141601562 129.45703125 485.868164062 261.799804688 485.868164062 c 0
263.142578125 78.623046875 m 0
 359.040039062 78.623046875 404.220703125 148.719726562 404.220703125 243.32421875 c 4
 404.220703125 319.440429688 359.040039062 409.984375 261.677734375 409.984375 c 0
 176 409.984375 125.349609375 336.16015625 125.349609375 299.336914062 c 1
 123.884765625 300.740234375 121.87109375 302.448242188 119.796875 303.607421875 c 2
 119.796875 303.607421875 126.231445312 324.4140625 124.888671875 302.631835938 c 1
 111.1328125 299.153320312 l 1
 110.461914062 294.8828125 l 1
 116.501953125 291.404296875 l 1
 121.078125 280.360351562 l 1
 118.8203125 268.03515625 117.661132812 255.161132812 117.661132812 241.73828125 c 0
 117.661132812 139.919921875 174.240234375 78.623046875 263.142578125 78.623046875 c 0
EndSplineSet
Validated: 5
EndChar

StartChar: P
Encoding: 80 80 22
Width: 415
VWidth: 0
Flags: W
HStem: -0.106445 21G<26.4648 144.845> 418.814 67.2305<123.993 205.455>
VStem: 49.1104 74.8828<97.6973 272.652 281.934 337.689 366.352 367.885 369.617 418.814> 292.177 70.0215<340.914 393.356>
LayerCount: 2
Fore
SplineSet
207.38671875 208.129882812 m 1
 169.471679688 229.435546875 l 1
 169.471679688 273.484375 l 5
 172.633789062 273.484375 l 5
 301.83984375 265.759765625 292.176757812 340.9140625 292.176757812 340.9140625 c 1
 289.51953125 417.120117188 214.998046875 418.814453125 214.998046875 418.814453125 c 1
 123.993164062 418.814453125 l 1
 123.993164062 374.072265625 l 1
 123.560546875 369.6171875 l 1
 121.333007812 373.638671875 l 1
 119.10546875 367.884765625 l 1
 118.239257812 350.126953125 l 1
 121.765625 342.578125 l 1
 123.993164062 337.689453125 l 1
 123.993164062 281.93359375 l 1
 120.466796875 281.5 l 1
 118.671875 277.973632812 l 1
 124.426757812 272.65234375 l 1
 124.426757812 90.58203125 l 1
 121.333007812 42.2568359375 144.844726562 34.7080078125 144.844726562 34.7080078125 c 1
 144.844726562 -0.1064453125 l 1
 26.46484375 -0.1064453125 l 1
 26.46484375 33.841796875 l 1
 49.8466796875 48.400390625 49.1103515625 97.697265625 49.1103515625 97.697265625 c 1
 49.1103515625 340.240234375 l 1
 50.9052734375 348.655273438 l 1
 53.8134765625 355.770507812 l 1
 77.51171875 355.770507812 l 1
 81.0380859375 360.659179688 l 1
 65.9404296875 362.88671875 l 1
 51.708984375 366.3515625 l 1
 51.708984375 376.127929688 l 1
 46.8212890625 376.127929688 l 1
 46.8212890625 421.791992188 l 1
 43.294921875 424.452148438 l 1
 43.294921875 437.754882812 l 1
 26.46484375 455.080078125 l 1
 26.46484375 482.0234375 l 1
 26.46484375 486.044921875 l 1
 205.455078125 486.044921875 l 1
 205.455078125 486.044921875 362.198242188 486.639648438 362.198242188 339.7109375 c 0
 362.198242188 207.6796875 207.38671875 208.129882812 207.38671875 208.129882812 c 1
EndSplineSet
Validated: 33
EndChar

StartChar: Q
Encoding: 81 81 23
Width: 501
VWidth: 0
Flags: W
HStem: 6.6416 74.543<178.832 263.037> 414.196 72.1123<183.383 323.212>
VStem: 28.3848 79.1328<157.574 328.026> 390.955 82.2598<143.388 338.605>
LayerCount: 2
Fore
SplineSet
385.505859375 57.361328125 m 1
 432.080078125 -8.7998046875 459.936523438 -24.66796875 459.936523438 -24.66796875 c 2
 461.499023438 -31.2421875 l 1
 413.670898438 -43.2607421875 l 2
 383.4609375 -43.6640625 327.125 12.5302734375 327.125 12.5302734375 c 1
 324.998046875 15.0126953125 l 1
 298.3203125 7.0400390625 280.133789062 6.6416015625 250.799804688 6.6416015625 c 0
 127.958984375 6.6416015625 28.384765625 113.421875 28.384765625 245.154296875 c 0
 28.384765625 376.887695312 127.958984375 486.30859375 250.799804688 486.30859375 c 0
 373.641601562 486.30859375 473.21484375 376.887695312 473.21484375 245.154296875 c 0
 473.21484375 163.59375 443.798828125 100.356445312 385.505859375 57.361328125 c 1
67.2275390625 344.290039062 m 1
 67.2275390625 344.290039062 72.8564453125 365.216796875 93.87109375 369.375 c 1
 80.236328125 369.375 l 1
 71.98046875 361.125976562 l 1
 66.0380859375 361.728515625 l 1
 62.47265625 354.75390625 l 1
 53.0283203125 354.149414062 l 1
 67.2275390625 344.290039062 l 1
252.05078125 81.1845703125 m 0
 257.83984375 81.1845703125 263.509765625 83.1318359375 263.509765625 83.1318359375 c 1
 220.903320312 136.294921875 l 1
 304.745117188 130.764648438 l 1
 321.200195312 102.080078125 333.51953125 101.200195312 333.51953125 101.200195312 c 2
 337.272460938 105.27734375 l 1
 355.1953125 123.200195312 390.955078125 148.719726562 390.955078125 246.697265625 c 0
 390.955078125 320.3203125 350.240234375 414.196289062 250.737304688 414.196289062 c 0
 156.639648438 414.196289062 107.517578125 313.280273438 107.517578125 245.087890625 c 0
 107.517578125 163.6796875 161.040039062 81.1845703125 252.05078125 81.1845703125 c 0
EndSplineSet
Validated: 33
EndChar

StartChar: R
Encoding: 82 82 24
Width: 435
VWidth: 0
Flags: W
HStem: -0.0449219 33.8867<18.1084 34.308> 418.244 67.8633<115.837 195.8>
VStem: 40.5693 75.2676<90.0869 265.337 274.557 329.694 342.007 349.46 367.094 418.244> 279.324 71.2871<341.986 396.496>
LayerCount: 2
Fore
SplineSet
288.502929688 154.368164062 m 1
 317.6796875 36.9599609375 369.153320312 31.6357421875 369.153320312 31.6357421875 c 1
 369.153320312 -0.044921875 l 1
 322.073242188 -0.044921875 l 1
 282.844726562 2.4306640625 225.176757812 92.224609375 225.176757812 92.224609375 c 1
 172.4453125 185.28515625 l 1
 172.4453125 273.270507812 l 1
 192.9609375 273.270507812 l 5
 281.599609375 273.270507812 279.32421875 341.986328125 279.32421875 341.986328125 c 1
 279.32421875 351.274414062 l 1
 279.32421875 418.879882812 196.48046875 418.244140625 196.48046875 418.244140625 c 1
 115.836914062 418.244140625 l 1
 115.836914062 365.829101562 l 1
 115.403320312 361.435546875 l 1
 113.17578125 365.395507812 l 1
 110.94921875 359.641601562 l 1
 110.08203125 342.006835938 l 1
 113.609375 334.520507812 l 1
 115.836914062 329.694335938 l 1
 115.836914062 274.556640625 l 1
 112.309570312 274.123046875 l 1
 110.577148438 270.596679688 l 1
 116.33203125 265.336914062 l 1
 116.33203125 88.4501953125 l 2
 116.33203125 28.6787109375 136.626953125 32.9482421875 136.626953125 32.9482421875 c 1
 136.626953125 -0.044921875 l 1
 18.1083984375 -0.044921875 l 1
 18.1083984375 33.841796875 l 1
 39.7646484375 33.841796875 40.5693359375 90.0869140625 40.5693359375 90.0869140625 c 1
 40.5693359375 341.106445312 l 1
 42.3017578125 349.459960938 l 1
 45.1484375 356.513671875 l 1
 68.72265625 356.513671875 l 1
 72.2490234375 361.33984375 l 1
 57.275390625 363.567382812 l 1
 43.16796875 367.09375 l 1
 43.16796875 376.80859375 l 1
 38.341796875 376.80859375 l 1
 38.341796875 422.163085938 l 1
 34.8154296875 424.823242188 l 1
 34.8154296875 438.064453125 l 1
 18.046875 455.265625 l 1
 18.046875 482.147460938 l 1
 18.046875 486.107421875 l 1
 195.799804688 486.107421875 l 1
 195.799804688 486.107421875 350.611328125 487.51953125 350.611328125 344.220703125 c 0
 350.611328125 226.16015625 241.731445312 223.942382812 241.731445312 223.942382812 c 1
 258.280273438 185.6796875 288.502929688 154.368164062 288.502929688 154.368164062 c 1
EndSplineSet
Validated: 33
EndChar

StartChar: Z
Encoding: 90 90 25
Width: 450
VWidth: 0
Flags: W
HStem: 0.0175781 69.1689<157.266 218.027 232.938 317.474> 416.395 69.6504<92.084 324.308>
VStem: 375.217 41.876<69.9438 82.957>
LayerCount: 2
Fore
SplineSet
417.092773438 486.044921875 m 1
 417.092773438 425.772460938 l 1
 157.265625 70.609375 l 5
 218.02734375 70.609375 l 5
 221.182617188 61.947265625 l 5
 224.028320312 61.01953125 l 5
 224.028320312 51.490234375 l 5
 226.1328125 49.201171875 l 5
 228.483398438 48.767578125 l 5
 227.184570312 45.1171875 l 5
 231.08203125 45.55078125 l 5
 231.08203125 51.923828125 l 5
 232.938476562 56.935546875 l 5
 229.288085938 62.3798828125 l 5
 227.431640625 69.1865234375 l 5
 317.473632812 69.1865234375 l 5
 317.473632812 69.1865234375 375.216796875 64.240234375 375.216796875 82.95703125 c 5
 417.092773438 100.557617188 l 5
 417.092773438 0.017578125 l 1
 42.3154296875 0.017578125 l 1
 42.3154296875 0.017578125 42.3154296875 0.017578125 33.4677734375 0.017578125 c 1
 33.4677734375 45.908203125 l 5
 33.4677734375 51.27734375 l 5
 37.3037109375 54.927734375 l 5
 324.307617188 417.384765625 l 1
 92.083984375 416.39453125 l 1
 92.083984375 416.39453125 60.7197265625 416.240234375 55.515625 403.119140625 c 1
 33.4677734375 385.51953125 l 1
 33.4677734375 486.044921875 l 1
 417.092773438 486.044921875 l 1
EndSplineSet
Validated: 33
EndChar

StartChar: backslash
Encoding: 92 92 26
Width: 264
VWidth: 0
Flags: W
HStem: 467.111 20G<33.4248 73.396>
VStem: 33.4248 195.642
LayerCount: 2
Fore
SplineSet
163.127929688 45.880859375 m 1
 163.127929688 45.880859375 113.3671875 406.1796875 33.4248046875 487.111328125 c 1
 33.4248046875 487.111328125 109.420898438 455.926757812 151.372070312 425.11328125 c 1
 151.372070312 425.11328125 243.359375 3.2490234375 229.06640625 0.2177734375 c 0
 227.024414062 -0.154296875 163.127929688 45.880859375 163.127929688 45.880859375 c 1
EndSplineSet
Validated: 33
EndChar

StartChar: bracketright
Encoding: 93 93 27
Width: 274
VWidth: 0
Flags: W
VStem: 174.57 69.3408<407.402 449.57>
LayerCount: 2
Fore
SplineSet
243.911132812 506.879882812 m 1
 30.6484375 506.879882812 l 1
 30.6484375 449.5703125 l 1
 174.5703125 449.5703125 l 1
 174.5703125 393.51171875 89.4921875 381.177734375 89.4921875 381.177734375 c 1
 211.014648438 344.733398438 188.168945312 -42.4052734375 188.168945312 -42.4052734375 c 1
 243.911132812 -120.22265625 l 1
 243.911132812 506.879882812 l 1
EndSplineSet
Validated: 41
EndChar

StartChar: bracketleft
Encoding: 91 91 28
Width: 274
VWidth: 0
Flags: W
HStem: 449.57 57.3096<99.9902 243.911>
VStem: 30.6484 69.3418<407.402 449.57>
LayerCount: 2
Fore
SplineSet
30.6484375 506.879882812 m 1
 243.911132812 506.879882812 l 1
 243.911132812 449.5703125 l 1
 99.990234375 449.5703125 l 1
 99.990234375 393.51171875 185.068359375 381.177734375 185.068359375 381.177734375 c 1
 63.5458984375 344.733398438 86.3916015625 -42.4052734375 86.3916015625 -42.4052734375 c 1
 30.6484375 -120.22265625 l 1
 30.6484375 506.879882812 l 1
EndSplineSet
Validated: 33
EndChar

StartChar: parenright
Encoding: 41 41 29
Width: 281
VWidth: 0
Flags: W
HStem: 448.91 57.9697<26.3037 60.2726>
VStem: 26.3037 211.393
LayerCount: 2
Fore
SplineSet
26.3037109375 448.91015625 m 1
 26.3037109375 506.879882812 l 1
 237.696289062 506.879882812 l 1
 237.696289062 506.879882812 178.543945312 465.073242188 178.543945312 440.075195312 c 2
 178.543945312 438.494140625 l 1
 178.543945312 438.494140625 232.9453125 363.440429688 232.9453125 197.133789062 c 1
 232.9453125 197.133789062 235.83984375 -9.6796875 61.8818359375 -117.809570312 c 1
 61.8818359375 -117.809570312 136.427734375 10.2373046875 143.54296875 117.837890625 c 0
 143.60546875 117.899414062 186.622070312 383.817382812 26.3037109375 448.91015625 c 1
EndSplineSet
Validated: 33
EndChar

StartChar: parenleft
Encoding: 40 40 30
Width: 281
VWidth: 0
Flags: W
HStem: 446.336 60.6924<172.789 256.878> 507.028 0<42.3223 112.281>
LayerCount: 2
Fore
SplineSet
42.322265625 507.028320312 m 1x40
 256.877929688 507.028320312 l 1
 256.877929688 446.3359375 l 1
 172.7890625 446.3359375 l 1x80
 171.737304688 434.641601562 l 1
 208.862304688 405.670898438 l 1
 208.862304688 405.670898438 41.0009765625 112.639648438 217.33984375 -120.198242188 c 1
 217.33984375 -120.198242188 -24.6396484375 110.879882812 100.11328125 428.268554688 c 0
 100.145507812 428.350585938 112.28125 494.559570312 42.322265625 507.028320312 c 1x40
EndSplineSet
Validated: 33
EndChar

StartChar: dollar
Encoding: 36 36 31
Width: 285
VWidth: 0
Flags: W
HStem: -0.197266 21G<141.879 150.793>
VStem: 111.561 0.124023<197.555 219.459>
LayerCount: 2
Fore
SplineSet
85.078125 224.59375 m 2
 78.705078125 196.46875 l 1
 103.455078125 168.5625 l 1
 107.291015625 172.399414062 l 1
 107.291015625 79.3740234375 l 1
 13.9833984375 271.048828125 l 1
 108.776367188 483.541015625 l 1
 108.28125 462.379882812 l 1
 114.654296875 452.232421875 116.881835938 446.168945312 116.881835938 446.168945312 c 2
 111.189453125 454.3984375 105.235351562 447.77734375 105.235351562 447.77734375 c 1
 78.2373046875 348.708984375 l 1
 89.6220703125 342.2734375 94.79296875 325.140625 95.1640625 324.274414062 c 1
 88.791015625 335.041015625 74.44921875 332.662109375 74.44921875 332.662109375 c 1
 65.40234375 288.202148438 l 2
 64.2880859375 281.766601562 67.2578125 274.712890625 73.81640625 274.651367188 c 2
 90.646484375 274.465820312 l 1
 116.696289062 277.9921875 89.2236328125 292.594726562 89.2236328125 292.594726562 c 1
 109.581054688 287.892578125 114.221679688 267.783203125 114.221679688 267.783203125 c 1
 116.077148438 271.557617188 111.189453125 287.026367188 111.065429688 287.458984375 c 1
 119.666015625 282.508789062 125.916015625 272.052734375 126.287109375 271.372070312 c 1
 108.528320312 303.484375 114.90234375 321.119140625 114.90234375 321.119140625 c 1
 116.16015625 334.400390625 142.065429688 344.577148438 142.065429688 344.577148438 c 1
 161.040039062 352.879882812 160.682617188 365.291015625 160.682617188 365.291015625 c 1
 159.280273438 380.16015625 142.065429688 378.807617188 142.065429688 378.807617188 c 1
 117.500976562 380.416015625 114.90234375 355.975585938 114.90234375 355.975585938 c 1
 114.90234375 355.975585938 109.986328125 367.622070312 109.986328125 368.302734375 c 0
 109.986328125 368.983398438 113.822265625 380.368164062 113.822265625 380.368164062 c 1
 113.204101562 391.237304688 l 1
 121.956054688 403.041992188 l 1
 117.500976562 424.017578125 127.029296875 432.247070312 127.029296875 432.247070312 c 2
 125.111328125 415.7265625 135.78125 406.561523438 135.78125 406.561523438 c 1
 154.838867188 400.188476562 167.0625 414.591796875 167.0625 414.591796875 c 1
 167.681640625 410.13671875 165.14453125 403.041992188 161.370117188 401.185546875 c 0
 147.32421875 394.131835938 148.108398438 389.73828125 148.108398438 389.73828125 c 1
 176 383.6796875 174.672851562 361.15234375 174.672851562 361.15234375 c 1
 175.291992188 340.857421875 148.004882812 330.6484375 142.126953125 328.111328125 c 0
 117.12890625 317.283203125 142.126953125 298.287109375 142.126953125 298.287109375 c 1
 152.150390625 286.221679688 158.15234375 267.1640625 158.15234375 267.1640625 c 1
 158.771484375 279.229492188 172.754882812 287.458984375 172.754882812 287.458984375 c 2
 162.607421875 270.938476562 168.918945312 265.24609375 168.918945312 265.24609375 c 1
 180.798828125 290.615234375 193.544921875 293.08984375 193.544921875 293.08984375 c 1
 175.787109375 278.487304688 190.512695312 274.774414062 190.512695312 274.774414062 c 1
 207.342773438 274.774414062 l 2
 216.12890625 274.774414062 222.564453125 283.127929688 220.212890625 291.666992188 c 2
 210.450195312 328.0078125 l 2
 205.438476562 339.26953125 187.171875 325.752929688 186.73828125 325.2578125 c 1
 195.958007812 344.005859375 203.452148438 351.245117188 203.452148438 351.245117188 c 1
 178.08984375 447.983398438 l 6
 174.25390625 453.67578125 167.0625 444.930664062 167.0625 444.930664062 c 1
 167.0625 453.840820312 174.672851562 463.370117188 174.672851562 463.370117188 c 1
 175.16796875 484.90234375 l 1
 271.13671875 269.192382812 l 1
 189.15234375 102.638671875 l 1
 185.315429688 113.405273438 l 1
 181.479492188 110.868164062 l 1
 176.405273438 117.859375 l 1
 176.405273438 174.193359375 l 1
 183.397460938 168.500976562 l 1
 188.471679688 172.956054688 l 1
 189.08984375 178.030273438 l 1
 202.393554688 194.55078125 l 1
 199.237304688 204.856445312 l 1
 206.229492188 208.01171875 l 1
 199.237304688 217.540039062 l 1
 199.237304688 224.532226562 l 1
 178.26171875 220.696289062 173.002929688 196.998046875 173.002929688 196.998046875 c 1
 173.188476562 218.220703125 l 1
 163.041015625 215.684570312 156.048828125 199.1640625 156.048828125 199.1640625 c 1
 161.741210938 155.356445312 l 1
 143.71484375 112.166992188 l 1
 152.439453125 86.798828125 l 1
 132.88671875 56.2939453125 l 1
 142.3125 33.970703125 l 1
 161.6796875 44.228515625 l 1
 141.87890625 -0.197265625 l 1
 141.87890625 -0.197265625 116.201171875 53.8193359375 114.221679688 56.2939453125 c 0
 115.706054688 57.53125 130.618164062 86.798828125 130.618164062 86.798828125 c 1
 119.8515625 109.630859375 l 1
 133.141601562 151.51953125 l 1
 133.079101562 161.048828125 l 2
 134.193359375 201.700195312 111.560546875 219.458984375 111.560546875 219.458984375 c 1
 111.684570312 197.5546875 l 1
 106.177734375 223.727539062 85.7587890625 224.59375 85.078125 224.59375 c 2
EndSplineSet
Validated: 33
EndChar

StartChar: exclam
Encoding: 33 33 32
Width: 140
VWidth: 0
Flags: W
HStem: 0.0292969 90.5264<44.4404 91.8359>
VStem: 17.2217 106.356
LayerCount: 2
Fore
SplineSet
44.4404296875 90.5556640625 m 1
 91.8359375 90.5556640625 l 1
 118.172851562 45.2919921875 l 1
 91.8359375 0.029296875 l 1
 44.4404296875 0.029296875 l 1
 17.2216796875 46.171875 l 1
 44.4404296875 90.5556640625 l 1
39.978515625 481.360351562 m 6
 123.578125 492.799804688 l 6
 123.578125 492.799804688 116.538085938 467.805664062 116.010742188 462.219726562 c 6
 115.658203125 458.48046875 l 5
 92.880859375 153.874023438 l 6
 92.0947265625 143.356445312 84.537109375 135.053710938 74.365234375 132.49609375 c 6
 47.8984375 125.83984375 l 6
 47.8984375 125.83984375 48.8876953125 130.37890625 47.8984375 143.741210938 c 6
 24.7705078125 460.5078125 l 6
 23.158203125 482.26953125 39.978515625 481.360351562 39.978515625 481.360351562 c 6
EndSplineSet
Validated: 1
EndChar

StartChar: period
Encoding: 46 46 33
Width: 132
VWidth: 0
Flags: W
HStem: 0.0292969 86.127<49.3418 87.9395>
VStem: 22.125 92.1504
LayerCount: 2
Fore
SplineSet
49.341796875 86.15625 m 1
 87.939453125 86.15625 l 1
 114.275390625 45.2919921875 l 1
 87.939453125 0.029296875 l 1
 49.341796875 0.029296875 l 1
 22.125 46.171875 l 1
 49.341796875 86.15625 l 1
EndSplineSet
Validated: 1
EndChar

StartChar: comma
Encoding: 44 44 34
Width: 132
VWidth: 0
Flags: W
HStem: -123.2 201.362
VStem: 27.3613 86.2803
LayerCount: 2
Fore
SplineSet
71.3271484375 78.162109375 m 1
 71.3271484375 78.162109375 113.641601562 57.2001953125 113.641601562 12.296875 c 0
 113.641601562 -16.9130859375 73.2978515625 -72.0302734375 73.2978515625 -72.0302734375 c 2
 62.1884765625 -95.2509765625 27.361328125 -123.200195312 27.361328125 -123.200195312 c 1
 83.681640625 -18.48046875 32.544921875 -0.1064453125 32.544921875 -0.1064453125 c 1
 27.158203125 51.9033203125 l 1
 71.3271484375 78.162109375 l 1
EndSplineSet
Validated: 33
EndChar

StartChar: slash
Encoding: 47 47 35
Width: 283
VWidth: 0
Flags: W
HStem: 467.111 20G<217.772 257.744>
VStem: 26.9023 230.842
LayerCount: 2
Fore
SplineSet
110.440429688 45.880859375 m 1
 110.440429688 45.880859375 28.943359375 -0.154296875 26.90234375 0.2177734375 c 0
 12.6083984375 3.2490234375 122.196289062 425.11328125 122.196289062 425.11328125 c 1
 164.147460938 455.926757812 257.744140625 487.111328125 257.744140625 487.111328125 c 1
 177.80078125 406.1796875 110.440429688 45.880859375 110.440429688 45.880859375 c 1
EndSplineSet
Validated: 33
EndChar

StartChar: question
Encoding: 63 63 36
Width: 265
VWidth: 0
Flags: W
HStem: 0.0292969 90.5264<58.501 105.898> 429.004 59.4268<90.2871 122.564>
VStem: 16.4971 232.327
LayerCount: 2
Fore
SplineSet
58.5009765625 90.5556640625 m 1
 105.8984375 90.5556640625 l 1
 132.234375 45.2919921875 l 1
 105.8984375 0.029296875 l 1
 58.5009765625 0.029296875 l 1
 31.2841796875 46.171875 l 1
 58.5009765625 90.5556640625 l 1
133.20703125 488.685546875 m 1
 237.958984375 487.51953125 248.82421875 379.317382812 248.82421875 379.317382812 c 1
 254.6796875 306.240234375 200.999023438 268.400390625 140.103515625 249.462890625 c 0
 100.587890625 237.174804688 105.079101562 130.240234375 105.079101562 130.240234375 c 1
 62.8388671875 118.799804688 59.9609375 141.814453125 59.9609375 141.814453125 c 1
 10.9189453125 300.080078125 104.96484375 307.165039062 104.96484375 307.165039062 c 1
 190.439453125 319.440429688 178.719726562 372.869140625 178.719726562 372.869140625 c 1
 174.599609375 430.3203125 122.564453125 429.00390625 122.564453125 429.00390625 c 1
 61.0791015625 429.00390625 35.5068359375 356.080078125 35.5068359375 356.080078125 c 1
 35.5068359375 356.080078125 16.4970703125 450.501953125 16.4970703125 452.791015625 c 0
 16.4970703125 455.080078125 90.287109375 488.430664062 90.287109375 488.430664062 c 1
 133.20703125 488.685546875 l 1
EndSplineSet
Validated: 33
EndChar

StartChar: asterisk
Encoding: 42 42 37
Width: 162
VWidth: 0
Flags: W
HStem: 361.271 143.187
VStem: 11.5977 137.626
LayerCount: 2
Fore
SplineSet
28.978515625 478.7734375 m 5
 28.978515625 478.7734375 50.24609375 479.221679688 57.150390625 474.208007812 c 4
 70.998046875 464.15234375 85.982421875 432.43359375 85.982421875 432.43359375 c 6
 90.29296875 426.190429688 83.7353515625 414.91015625 83.7353515625 414.91015625 c 5
 67.67578125 457.028320312 34.2099609375 446.017578125 34.2099609375 446.017578125 c 5
 25.4169921875 459.08984375 l 5
 28.978515625 478.7734375 l 5
75.0751953125 429.641601562 m 1030
11.59765625 417.146484375 m 5
 11.59765625 417.146484375 25.265625 433.446289062 33.583984375 435.341796875 c 4
 50.271484375 439.141601562 84.0107421875 429.530273438 84.0107421875 429.530273438 c 6
 91.5478515625 428.6640625 95.71875 416.301757812 95.71875 416.301757812 c 5
 53.4443359375 431.94921875 39.6943359375 399.514648438 39.6943359375 399.514648438 c 5
 24.06640625 401.504882812 l 5
 11.59765625 417.146484375 l 5
78.9287109375 419.484375 m 1030
69.283203125 361.270507812 m 5
 69.283203125 361.270507812 58.1640625 379.404296875 59.009765625 387.895507812 c 4
 60.7060546875 404.92578125 79.27734375 437.6328125 79.27734375 437.6328125 c 6
 82.4931640625 444.501953125 95.5400390625 444.53515625 95.5400390625 444.53515625 c 5
 67.27734375 409.416992188 94.9248046875 382.313476562 94.9248046875 382.313476562 c 5
 88.07421875 368.125 l 5
 69.283203125 361.270507812 l 5
87.1904296875 429.623046875 m 1030
149.223632812 395.395507812 m 5
 149.223632812 395.395507812 131.088867188 384.278320312 122.598632812 385.125 c 4
 105.569335938 386.8203125 86.671875 415.434570312 86.671875 415.434570312 c 6
 79.8017578125 418.649414062 79.7685546875 431.696289062 79.7685546875 431.696289062 c 5
 114.88671875 403.435546875 128.180664062 421.038085938 128.180664062 421.038085938 c 5
 142.369140625 414.186523438 l 5
 149.223632812 395.395507812 l 5
94.6806640625 423.34765625 m 1030
151.202148438 465.229492188 m 5
 151.202148438 465.229492188 145.272460938 444.7421875 138.400390625 439.668945312 c 4
 124.623046875 429.493164062 91.0009765625 424.853515625 91.0009765625 424.853515625 c 6
 83.728515625 422.637695312 74.880859375 432.359375 74.880859375 432.359375 c 5
 120.043945312 434.8515625 119.504882812 470.239257812 119.504882812 470.239257812 c 5
 134.662109375 474.657226562 l 5
 151.202148438 465.229492188 l 5
96.9697265625 504.45703125 m 5
 96.9697265625 504.45703125 109.61328125 487.280273438 109.455078125 478.741210938 c 4
 109.138671875 461.616210938 91.5849609375 436.143554688 91.5849609375 436.143554688 c 6
 88.916015625 429.026367188 72.759765625 423.94140625 72.759765625 423.94140625 c 5
 98.2802734375 461.287109375 72.935546875 481.366210938 72.935546875 481.366210938 c 5
 78.658203125 496.080078125 l 5
 96.9697265625 504.45703125 l 5
EndSplineSet
Validated: 37
EndChar

StartChar: bar
Encoding: 124 124 38
Width: 126
VWidth: 0
Flags: W
VStem: 29.04 68.6396<185.114 468.703> 41.7246 55.9551<-59.957 241.824>
LayerCount: 2
Fore
SplineSet
41.724609375 -59.95703125 m 1x40
 29.0400390625 486.89453125 l 1
 46.2412109375 503.786132812 l 1
 97.6796875 468.703125 l 1x80
 97.6796875 -123.625976562 l 1
 55.7080078125 -98.380859375 l 1
 41.724609375 -59.95703125 l 1x40
EndSplineSet
Validated: 1
EndChar

StartChar: percent
Encoding: 37 37 39
Width: 633
VWidth: 0
HStem: 54.4521 46.4961<372.939 462.701> 219.693 45.1338<373.238 462.391> 243.171 46.5576<169.102 262.695> 410.233 43.3125<171.629 329.63> 465.412 20G<467.332 513.521>
VStem: 109.643 46.0898<302.832 394.225> 275.784 44.2334<302.727 396.128> 311.513 48.6689<113.67 207.463> 474.952 46.9355<113.14 207.491>
LayerCount: 2
Fore
SplineSet
513.521484375 485.412109375 m 1xbe80
 421.141601562 407.573242188 194.837890625 9.1669921875 194.837890625 9.1669921875 c 1
 194.837890625 9.1669921875 132.625976562 -0.4921875 130.645507812 0.1259765625 c 0
 116.971679688 4.271484375 391.634765625 412.509765625 391.634765625 412.509765625 c 2
 393.985351562 413.994140625 396.4609375 415.41796875 398.935546875 416.90234375 c 1
 391.38671875 414.551757812 387.1171875 413.4375 387.1171875 413.4375 c 2
 343.000976562 401.186523438 318.271484375 409.044921875 299.584960938 411.890625 c 1
 312.26953125 398.33984375 314.077148438 390.248046875 317.418945312 371.561523438 c 0
 319.151367188 364.13671875 320.017578125 356.340820312 320.017578125 348.358398438 c 0
 320.017578125 290.2578125 272.930664062 243.170898438 214.830078125 243.170898438 c 0
 156.729492188 243.170898438 109.642578125 290.2578125 109.642578125 348.358398438 c 0
 109.642578125 406.458984375 156.729492188 453.545898438 214.830078125 453.545898438 c 0
 219.903320312 453.545898438 224.977539062 453.174804688 229.865234375 452.494140625 c 0
 238.465820312 451.380859375 246.6953125 449.27734375 254.4296875 446.306640625 c 0
 298.856445312 433.189453125 443.416992188 464.807617188 490.936523438 476.31640625 c 0
 504.549804688 482.008789062 513.521484375 485.412109375 513.521484375 485.412109375 c 1xbe80
214.830078125 410.233398438 m 0
 181.280273438 410.233398438 155.732421875 377.51953125 155.732421875 348.358398438 c 0
 155.732421875 321.200195312 176 289.728515625 215.44921875 289.728515625 c 0
 256.080078125 289.728515625 275.784179688 320.3203125 275.784179688 349.1015625 c 0
 275.784179688 380.16015625 251.6796875 410.233398438 214.830078125 410.233398438 c 0
416.700195312 264.827148438 m 0xdd80
 474.80078125 264.827148438 521.887695312 217.740234375 521.887695312 159.639648438 c 0
 521.887695312 101.5390625 474.80078125 54.4521484375 416.700195312 54.4521484375 c 0
 358.599609375 54.4521484375 311.512695312 101.5390625 311.512695312 159.639648438 c 0
 311.512695312 217.740234375 358.599609375 264.827148438 416.700195312 264.827148438 c 0xdd80
417.2578125 100.948242188 m 0
 453.200195312 100.948242188 474.952148438 125.83984375 474.952148438 160.3203125 c 0
 474.952148438 194.48046875 451.440429688 219.693359375 416.638671875 219.693359375 c 0
 385.440429688 219.693359375 360.181640625 194.48046875 360.181640625 159.578125 c 0
 360.181640625 121.440429688 388.959960938 100.948242188 417.2578125 100.948242188 c 0
EndSplineSet
Validated: 33
EndChar

StartChar: hyphen
Encoding: 45 45 40
Width: 387
VWidth: 0
Flags: W
HStem: 193.07 59.208
VStem: 42.9434 299.049
LayerCount: 2
Fore
SplineSet
60.2412109375 198.721679688 m 5
 60.2412109375 198.721679688 43.1298828125 244.619140625 42.943359375 246.228515625 c 4
 41.7685546875 257.489257812 335.94921875 252.278320312 335.94921875 252.278320312 c 5
 349.986328125 229.6796875 341.9921875 193.0703125 341.9921875 193.0703125 c 5
 264.879882812 213.83984375 60.2412109375 198.721679688 60.2412109375 198.721679688 c 5
EndSplineSet
Validated: 33
EndChar

StartChar: quotedbl
Encoding: 34 34 41
Width: 202
VWidth: 0
Flags: W
HStem: 322.433 168.129
VStem: 10.2871 181.826
LayerCount: 2
Fore
SplineSet
52.662109375 490.561523438 m 1
 52.662109375 490.561523438 86.513671875 466.751953125 86.513671875 430.830078125 c 0
 86.513671875 407.461914062 54.23828125 363.368164062 54.23828125 363.368164062 c 2
 45.3505859375 344.791992188 17.4892578125 322.432617188 17.4892578125 322.432617188 c 1
 62.544921875 406.208007812 14.5966796875 420.90625 14.5966796875 420.90625 c 1
 10.287109375 469.5546875 l 1
 52.662109375 490.561523438 l 1
158.26171875 490.561523438 m 1
 158.26171875 490.561523438 192.11328125 466.751953125 192.11328125 430.830078125 c 0
 192.11328125 407.461914062 159.838867188 363.368164062 159.838867188 363.368164062 c 2
 150.951171875 344.791992188 123.088867188 322.432617188 123.088867188 322.432617188 c 1
 168.145507812 406.208007812 120.196289062 420.90625 120.196289062 420.90625 c 1
 115.88671875 469.5546875 l 1
 158.26171875 490.561523438 l 1
EndSplineSet
Validated: 33
EndChar

StartChar: quotesingle
Encoding: 39 39 42
Width: 110
VWidth: 0
Flags: W
HStem: 303.6 192.562
VStem: 11.9619 86.2803
LayerCount: 2
Fore
SplineSet
55.927734375 496.162109375 m 1
 55.927734375 496.162109375 98.2421875 475.200195312 98.2421875 430.296875 c 0
 98.2421875 401.086914062 69.337890625 360.9296875 69.337890625 360.9296875 c 2
 58.228515625 337.708984375 11.9619140625 303.599609375 11.9619140625 303.599609375 c 1
 68.28125 408.3203125 17.1455078125 426.693359375 17.1455078125 426.693359375 c 1
 11.7578125 469.903320312 l 1
 55.927734375 496.162109375 l 1
EndSplineSet
Validated: 33
EndChar

StartChar: colon
Encoding: 58 58 43
Width: 132
VWidth: 0
Flags: W
HStem: 0.0292969 90.5264<42.7422 90.1387> 190.989 90.5264<42.7422 90.1387>
VStem: 15.5244 100.951
LayerCount: 2
Fore
SplineSet
42.7421875 281.515625 m 5
 90.138671875 281.515625 l 5
 116.475585938 236.251953125 l 5
 90.138671875 190.989257812 l 5
 42.7421875 190.989257812 l 5
 15.5244140625 237.131835938 l 5
 42.7421875 281.515625 l 5
42.7421875 90.5556640625 m 5
 90.138671875 90.5556640625 l 5
 116.475585938 45.2919921875 l 5
 90.138671875 0.029296875 l 5
 42.7421875 0.029296875 l 5
 15.5244140625 46.171875 l 5
 42.7421875 90.5556640625 l 5
EndSplineSet
Validated: 1
EndChar

StartChar: semicolon
Encoding: 59 59 44
Width: 132
VWidth: 0
Flags: W
HStem: 190.989 90.5264<42.7422 90.1387>
VStem: 15.6367 100.839
LayerCount: 2
Fore
SplineSet
68.60546875 91.3623046875 m 5
 68.60546875 91.3623046875 110.919921875 61.599609375 110.919921875 16.697265625 c 4
 110.919921875 -12.513671875 70.576171875 -67.6298828125 70.576171875 -67.6298828125 c 6
 59.466796875 -90.8505859375 24.6396484375 -118.799804688 24.6396484375 -118.799804688 c 5
 80.9599609375 -14.080078125 21.0234375 4.29296875 21.0234375 4.29296875 c 5
 15.63671875 65.103515625 l 5
 68.60546875 91.3623046875 l 5
42.7421875 281.515625 m 1
 90.138671875 281.515625 l 1
 116.475585938 236.251953125 l 1
 90.138671875 190.989257812 l 1
 42.7421875 190.989257812 l 1
 15.5244140625 237.131835938 l 1
 42.7421875 281.515625 l 1
EndSplineSet
Validated: 33
EndChar

StartChar: one
Encoding: 49 49 45
Width: 189
VWidth: 0
Flags: W
HStem: 0.460938 49.4521<36.9824 67.1606 148.62 177.314> 409.496 40.0938<47.6494 72.5383> 465.049 20G<99.7856 139.666>
VStem: 75.8535 63.8125<51.9004 408.973>
LayerCount: 2
Fore
SplineSet
33.3330078125 449.58984375 m 2
 34.9443359375 449.58984375 l 2
 70.916015625 449.58984375 84.24609375 461.4375 115.325195312 485.048828125 c 1
 139.666015625 485.048828125 l 1
 139.666015625 133.451171875 l 2
 139.666015625 94.38671875 149.599609375 49.9130859375 166.794921875 49.9130859375 c 2
 177.314453125 49.9130859375 l 1
 177.314453125 0.4609375 l 1
 36.982421875 0.4609375 l 1
 36.982421875 49.9130859375 l 1
 47.94921875 49.9130859375 l 2
 66.8798828125 49.9130859375 75.853515625 94.38671875 75.853515625 133.451171875 c 2
 75.853515625 350.083984375 l 2
 75.853515625 389.662109375 72.291015625 409.49609375 47.6494140625 409.49609375 c 1
 47.6494140625 409.49609375 22.7724609375 408.46484375 22.7724609375 393.010742188 c 2
 22.7724609375 393.010742188 -7.7060546875 449.58984375 33.3330078125 449.58984375 c 2
EndSplineSet
Validated: 33
EndChar

StartChar: two
Encoding: 50 50 46
Width: 360
VWidth: 0
Flags: W
HStem: 0.734375 56.1064<148.834 249.781> 419.794 64.3643<180.054 239.119>
VStem: 42.5352 282.185
LayerCount: 2
Fore
SplineSet
55.80859375 390.96875 m 0
 72.6943359375 447.669921875 110.317382812 484.158203125 185.974609375 484.158203125 c 0
 223.555664062 484.158203125 264.169921875 467.084960938 291.280273438 441.759765625 c 0
 330.584960938 405.041992188 331.046875 333.813476562 324.719726562 297.440429688 c 0
 315.7734375 246.000976562 259.452148438 182.526367188 250.799804688 172.48046875 c 2
 183.0234375 93.7841796875 l 2
 153.780273438 61.900390625 170.639648438 81.123046875 148.833984375 56.8408203125 c 1
 198.739257812 56.8408203125 l 2
 218.06640625 56.8408203125 240.815429688 60.30859375 250.232421875 67.248046875 c 0
 258.65625 74.1865234375 268.787109375 85.8623046875 278.946289062 109.40234375 c 1
 325.3046875 109.40234375 l 1
 305.819335938 0.734375 l 1
 42.53515625 0.734375 l 1
 43.1201171875 52.7998046875 l 1
 57.490234375 68.9052734375 71.9833984375 83.427734375 117.040039062 128.48046875 c 0
 143.470703125 154.909179688 150.116210938 159.9140625 176.879882812 189.200195312 c 0
 190.012695312 203.5703125 212.3203125 230.837890625 219.120117188 241.120117188 c 0
 228.7734375 255.717773438 246.400390625 275.440429688 255.200195312 304.48046875 c 0
 263.9296875 333.287109375 264 373.120117188 241.120117188 396.879882812 c 0
 227.188476562 411.34765625 214.719726562 419.793945312 180.053710938 419.793945312 c 5
 180.053710938 419.793945312 124.959960938 418.879882812 104.880859375 340.15234375 c 5
 104.880859375 340.15234375 97.283203125 317.724609375 107.358398438 311.529296875 c 0
 113.140625 308.142578125 36.080078125 324.719726562 55.80859375 390.96875 c 0
EndSplineSet
Validated: 33
EndChar

StartChar: three
Encoding: 51 51 47
Width: 369
VWidth: 0
Flags: W
LayerCount: 2
Fore
SplineSet
105.486328125 269.545898438 m 1
 123.548828125 278.577148438 244.671875 329.873046875 242.216796875 373.713867188 c 0
 239.76171875 417.555664062 197.059570312 435.649414062 158.303710938 416.271484375 c 0
 119.547851562 396.892578125 64.1884765625 330.421875 62.873046875 318.759765625 c 0
 61.5576171875 307.098632812 38.05859375 370.380859375 38.05859375 397.563476562 c 1
 38.05859375 397.563476562 48.4052734375 399.405273438 78.392578125 431.41015625 c 0
 116.53515625 471.919921875 166.338867188 484.807617188 206.41015625 484.807617188 c 0
 246.48046875 484.807617188 311.190429688 461.572265625 315.049804688 402.03515625 c 0
 318.907226562 342.498046875 252.444335938 296.991210938 252.444335938 296.991210938 c 1
 252.444335938 296.991210938 366.783203125 284.27734375 349.947265625 161.431640625 c 0
 333.111328125 38.5888671875 225.875976562 -5.7666015625 142.401367188 0.7216796875 c 0
 58.9267578125 7.2099609375 28.1494140625 28.6044921875 19.2060546875 37.5498046875 c 0
 10.2626953125 46.4931640625 61.23828125 75.484375 59.9228515625 102.577148438 c 1
 59.9228515625 102.577148438 103.063476562 59.2626953125 189.95703125 75.1337890625 c 0
 234.061523438 83.19921875 284.280273438 131.666992188 284.280273438 175.860351562 c 0
 284.280273438 220.052734375 206.84765625 249.848632812 163.620117188 234.942382812 c 0
 103.293945312 214.162109375 105.486328125 269.545898438 105.486328125 269.545898438 c 1
EndSplineSet
Validated: 33
EndChar

StartChar: four
Encoding: 52 52 48
Width: 382
VWidth: 0
Flags: W
HStem: 0.0615234 33.7402<185.718 216.944 299.196 328.702>
VStem: 227.065 62.9336<204.967 351.51>
LayerCount: 2
Fore
SplineSet
350.3515625 134.59375 m 0
 360.012695312 101.09375 320.663085938 134.59375 289.821289062 134.59375 c 1
 289.821289062 134.59375 284.240234375 34.693359375 317.623046875 34.693359375 c 0
 331.802734375 34.693359375 330.384765625 23.1044921875 330.384765625 0.0615234375 c 1
 181.741210938 0.0615234375 l 1
 181.741210938 0.0615234375 178.905273438 33.8017578125 194.858398438 33.8017578125 c 0
 210.810546875 33.8017578125 227.065429688 44.3740234375 227.065429688 134.59375 c 1
 227.065429688 134.59375 54.0078125 134.59375 32.7373046875 134.59375 c 0
 11.4677734375 134.59375 14.1259765625 147.178710938 19.443359375 156.926757812 c 2
 19.443359375 156.926757812 130.053710938 320.706054688 159.477539062 361.650390625 c 0
 209.106445312 430.778320312 232.256835938 469.684570312 248.120117188 480.408203125 c 0
 269.036132812 494.5 288.23828125 491.04296875 288.23828125 491.04296875 c 1
 288.23828125 396.213867188 289.999023438 241.208007812 289.999023438 212.848632812 c 0
 289.999023438 184.489257812 301.520507812 182.715820312 331.653320312 236.77734375 c 1
 367.102539062 236.77734375 l 1
 367.102539062 236.77734375 340.693359375 168.09375 350.3515625 134.59375 c 0
227.065429688 191.932617188 m 1
 227.065429688 351.509765625 l 1
 123.615234375 191.932617188 l 2
 123.615234375 193.173828125 227.065429688 191.932617188 227.065429688 191.932617188 c 1
EndSplineSet
Validated: 37
EndChar

StartChar: five
Encoding: 53 53 49
Width: 397
VWidth: 0
Flags: W
HStem: 410.754 67.8701<138.779 352.548>
VStem: 283.895 82.25<113.021 219.155>
LayerCount: 2
Fore
SplineSet
33.244140625 103.76953125 m 1
 118.799804688 63.3603515625 283.89453125 54.5595703125 283.89453125 170.228515625 c 0
 283.89453125 283.360351562 89.529296875 219.0234375 89.529296875 219.0234375 c 5
 63.0625 219.0234375 47.69921875 241.108398438 47.69921875 241.108398438 c 5
 49.4169921875 328.758789062 63.1484375 478.624023438 109.724609375 478.624023438 c 0
 131.463867188 478.624023438 212.240234375 478.022460938 267.838867188 478.022460938 c 0
 323.436523438 478.022460938 316.475585938 484.897460938 325.755859375 484.897460938 c 0
 335.037109375 484.897460938 380.151367188 484.897460938 380.151367188 484.897460938 c 1
 380.151367188 484.897460938 361.84765625 405.59765625 342.943359375 404.99609375 c 0
 324.038085938 404.481445312 183.865234375 410.75390625 156.3671875 410.75390625 c 0
 128.868164062 410.75390625 123.23828125 296.372070312 123.23828125 296.372070312 c 1
 151.84375 314.16015625 231.923828125 305.360351562 238.088867188 304.38671875 c 0
 294.110351562 295.547851562 366.14453125 250.799804688 366.14453125 172.583984375 c 0
 366.14453125 32.0791015625 237.504882812 7.078125 211.466796875 3.7275390625 c 0
 121.23828125 -7.7880859375 19.8388671875 7.1650390625 17.77734375 26.7578125 c 0
 15.7138671875 46.349609375 33.244140625 103.76953125 33.244140625 103.76953125 c 1
EndSplineSet
Validated: 33
EndChar

StartChar: six
Encoding: 54 54 50
Width: 325
VWidth: 0
Flags: W
HStem: 0.791016 21G<65.7803 236.519>
LayerCount: 2
Fore
SplineSet
307.916015625 208.845703125 m 0
 325.599609375 120.559570312 314.696289062 0.791015625 158.341796875 0.791015625 c 0
 -26.78125 0.791015625 5.5546875 237.1796875 39.513671875 349.772460938 c 0
 79.2001953125 481.360351562 183.758789062 479.2578125 200.41015625 479.107421875 c 0
 340.559570312 477.83984375 284.56640625 354.6953125 284.56640625 354.6953125 c 1
 284.56640625 354.6953125 248.741210938 445.055664062 150.48046875 395.120117188 c 0
 96.7998046875 367.83984375 92.9775390625 281.733398438 92.9775390625 281.733398438 c 1
 214.719726562 364.3203125 295.190429688 272.374023438 307.916015625 208.845703125 c 0
251.7421875 137.797851562 m 0
 261.360351562 251.6796875 154 273.6796875 88.3330078125 190.61328125 c 1
 88.3330078125 190.61328125 92.5185546875 102.141601562 123.373046875 79.7109375 c 0
 154.143554688 57.279296875 246.624023438 77.1962890625 251.7421875 137.797851562 c 0
EndSplineSet
Validated: 33
EndChar

StartChar: seven
Encoding: 55 55 51
Width: 321
VWidth: 0
Flags: W
HStem: 0.910156 21G<91.25 164.028> 424.442 60.2705<65.9222 218.403> 472.101 20G<24.7162 58.9507>
VStem: 91.25 72.5312<0.910156 157.526>
LayerCount: 2
Fore
SplineSet
14.3525390625 408.240234375 m 2xd0
 27.9619140625 492.100585938 l 1
 54.1484375 492.100585938 l 1xb0
 63.7529296875 487.17578125 79.4306640625 484.712890625 101.34765625 484.712890625 c 2
 307.256835938 484.712890625 l 1
 307.256835938 449.478515625 l 1
 299.868164062 438.642578125 290.674804688 422.307617188 279.59375 400.47265625 c 0
 258.661132812 359.4296875 221.2421875 284.645507812 203.594726562 230.139648438 c 0
 177.572265625 149.778320312 164.274414062 62.146484375 163.78125 0.91015625 c 1
 91.25 0.91015625 l 1
 91.25 14.865234375 l 2
 91.25 56.400390625 109.115234375 158.467773438 130.322265625 222.491210938 c 0
 162.7265625 320.3203125 188.1953125 379.048828125 221.686523438 429.203125 c 2
 218.403320312 424.442382812 l 1
 107.997070312 424.442382812 l 2
 88.7890625 424.442382812 73.1923828125 422.0625 65.55859375 413.032226562 c 0
 47.169921875 391.033203125 52.228515625 383.77734375 70.287109375 372.28515625 c 1
 70.287109375 372.28515625 8.3603515625 370.64453125 14.3525390625 408.240234375 c 2xd0
EndSplineSet
Validated: 33
EndChar

StartChar: nine
Encoding: 57 57 52
Width: 359
VWidth: 0
Flags: W
LayerCount: 2
Fore
SplineSet
70.0498046875 0.232421875 m 0
 -38.80859375 0.5087890625 30.5234375 30.1318359375 20.82421875 66.388671875 c 0
 13.482421875 94.033203125 54.08984375 97.5771484375 61.3408203125 90.8681640625 c 0
 68.591796875 84.1611328125 84.408203125 52.2529296875 149.547851562 81.1728515625 c 0
 196.298828125 101.930664062 243.747070312 209.333007812 243.747070312 209.333007812 c 1
 100.3203125 139.919921875 20.8076171875 227.643554688 15.4658203125 278.209960938 c 0
 5.568359375 371.932617188 69.8466796875 468.262695312 156.5703125 476.63671875 c 0
 269.280273438 487.51953125 348.48046875 390.719726562 301.484375 184.551757812 c 0
 262.260742188 12.4794921875 161.919921875 0 70.0498046875 0.232421875 c 0
91.6904296875 316.630859375 m 0
 86.412109375 242.874023438 186.032226562 246.505859375 248.120117188 281.85546875 c 1
 248.120117188 281.85546875 249.125976562 383.015625 194.997070312 404.469726562 c 0
 132 429.440429688 95.0400390625 363.440429688 91.6904296875 316.630859375 c 0
EndSplineSet
Validated: 33
EndChar

StartChar: eight
Encoding: 56 56 53
Width: 371
VWidth: 0
Flags: W
HStem: 0.282227 21G<164.529 207.792> 426.562 58.8857<123.376 246.956>
VStem: 15.6836 73.2695<99.028 189.004> 34.8232 66.4541<336.87 406.139> 273.754 60.3271<323.586 400.354> 277.713 69.1631<88.4805 189.243>
LayerCount: 2
Fore
SplineSet
107.25390625 255.930664062 m 1xe4
 76.3115234375 277.081054688 68.060546875 284.678710938 58.0107421875 298.051757812 c 0
 44.8984375 315.270507812 34.8232421875 335.990234375 34.8232421875 358.453125 c 0
 34.8232421875 396.296875 50.90625 427.413085938 83.0703125 451.884765625 c 0
 112.700195312 474.260742188 147.309570312 485.447265625 186.990234375 485.447265625 c 0
 224.048828125 485.447265625 256.912109375 475.571289062 285.4921875 455.73046875 c 0
 318.443359375 433.618164062 334.081054688 404.513671875 334.081054688 368.416992188 c 0xd8
 334.081054688 324.366210938 320.3203125 287.759765625 259.245117188 263.061523438 c 1
 322.959960938 227.919921875 346.875976562 195.885742188 346.875976562 136.627929688 c 0
 346.875976562 94.150390625 330.330078125 60.1513671875 297.116210938 34.6298828125 c 0
 267.2265625 11.73046875 230.080078125 0.2822265625 185.504882812 0.2822265625 c 0
 143.552734375 0.2822265625 107.368164062 10.8564453125 76.9521484375 31.9208984375 c 0
 41.904296875 56.1298828125 15.68359375 88.20703125 15.68359375 128.0625 c 0
 15.68359375 167.7421875 34.447265625 209.171875 71.7685546875 234.8671875 c 0
 81.294921875 241.684570312 93.0927734375 248.676757812 107.25390625 255.930664062 c 1xe4
167.997070312 231.228515625 m 1
 127.092773438 212.436523438 88.953125 173.423828125 88.953125 150.262695312 c 0
 88.953125 121.944335938 97.869140625 110.145507812 115.610351562 93.9755859375 c 0
 132.829101562 77.1953125 160.24609375 64.986328125 199.576171875 68.83203125 c 0
 223.700195312 71.1904296875 237.102539062 75.486328125 257.37890625 88.5087890625 c 0
 274.946289062 99.7841796875 277.712890625 135.086914062 277.712890625 150.469726562 c 0xe4
 277.712890625 176.952148438 262.565429688 190.0625 214.669921875 212.69921875 c 2
 167.997070312 231.228515625 l 1
203.275390625 290.307617188 m 1
 238.584960938 306.040039062 273.75390625 340.360351562 273.75390625 355.7421875 c 0
 273.75390625 378.904296875 265.799804688 388.606445312 249.98046875 402.415039062 c 0
 234.159179688 416.224609375 205.870117188 426.561523438 182.70703125 426.561523438 c 0
 163.654296875 426.561523438 138.333984375 417.88671875 124.438476562 407.573242188 c 0
 108.969726562 396.47265625 101.27734375 380.303710938 101.27734375 371.475585938 c 0xd8
 101.27734375 357.927734375 112.377929688 343.045898438 134.489257812 328.624023438 c 0
 138.59765625 325.828125 159.049804688 310.497070312 195.93359375 293.19140625 c 2
 203.275390625 290.307617188 l 1
EndSplineSet
Validated: 33
EndChar

StartChar: asciitilde
Encoding: 126 126 54
Width: 570
VWidth: 0
Flags: W
LayerCount: 2
Fore
SplineSet
496.98046875 275.377929688 m 0
 349.22265625 190.423828125 348.48046875 152.240234375 242.26171875 206.435546875 c 4
 142.395507812 257.389648438 72.5791015625 202.860351562 73.259765625 202.860351562 c 4
 73.9404296875 202.860351562 73.259765625 255.08984375 73.259765625 255.08984375 c 1
 73.259765625 255.08984375 132.075195312 311.432617188 215.861328125 277.598632812 c 0
 301.83984375 242.879882812 332.825195312 213.688476562 496.98046875 275.377929688 c 0
EndSplineSet
Validated: 37
EndChar

StartChar: numbersign
Encoding: 35 35 56
Width: 453
VWidth: 0
Flags: W
HStem: 115.185 58.7188<36.057 79.6641 152.646 256.316 328.638 413.576> 282.321 59.0547<36.0653 106.537 186.009 283.007 361.898 426.127>
VStem: 118.179 67.8301<341.376 374.658>
LayerCount: 2
Fore
SplineSet
336.518554688 461.200195312 m 1
 399.305664062 467.924804688 l 1
 399.305664062 467.924804688 383.111328125 436.354492188 380.892578125 429.017578125 c 2
 379.408203125 424.102539062 l 1
 361.8984375 340.845703125 l 1
 395.490234375 340.556640625 426.149414062 340.278320312 426.149414062 340.278320312 c 1
 440.186523438 317.6796875 432.192382812 272.270507812 432.192382812 272.270507812 c 1
 415.912109375 276.655273438 380.049804688 279.440429688 347.483398438 281.106445312 c 1
 328.637695312 173.903320312 l 1
 380.34375 173.549804688 417.349609375 173.078125 417.349609375 173.078125 c 1
 431.38671875 150.48046875 414.592773438 105.0703125 414.592773438 105.0703125 c 1
 393.0625 110.870117188 361.475585938 113.87109375 314.4375 115.184570312 c 1
 292.685546875 11.7578125 l 2
 288.78515625 -2.1162109375 285.215820312 -11.189453125 270.900390625 -11.86328125 c 2
 233.651367188 -13.6142578125 l 1
 233.651367188 -13.6142578125 236.205078125 -7.802734375 238.49609375 10.3623046875 c 2
 256.31640625 116.034179688 l 1
 215.556640625 116.043945312 174.072265625 115.284179688 138.258789062 114.3359375 c 1
 116.685546875 11.7578125 l 2
 112.78515625 -2.1162109375 100.415039062 -11.189453125 86.099609375 -11.86328125 c 2
 57.6513671875 -13.6142578125 l 1
 57.6513671875 -13.6142578125 60.205078125 -7.802734375 62.49609375 10.3623046875 c 2
 79.6640625 112.166992188 l 1
 58.0185546875 111.346679688 36.041015625 110.721679688 36.041015625 110.721679688 c 2
 36.041015625 110.721679688 18.9296875 165.418945312 18.744140625 167.028320312 c 0
 18.4482421875 169.859375 52.857421875 171.649414062 91.3623046875 172.743164062 c 1
 106.537109375 280.32421875 l 1
 69.3994140625 279.0859375 36.041015625 277.921875 36.041015625 277.921875 c 2
 36.041015625 277.921875 18.9296875 332.619140625 18.744140625 334.228515625 c 0
 18.3837890625 337.67578125 65.2197265625 339.578125 118.178710938 340.560546875 c 1
 134.506835938 437.389648438 l 2
 138.237304688 466.970703125 160.518554688 461.200195312 160.518554688 461.200195312 c 1
 223.305664062 467.924804688 l 1
 223.305664062 467.924804688 207.111328125 436.354492188 204.892578125 429.017578125 c 2
 203.408203125 424.102539062 l 1
 186.008789062 341.375976562 l 1
 222.110351562 341.546875 259.790039062 341.494140625 294.310546875 341.344726562 c 1
 310.506835938 437.389648438 l 2
 314.237304688 466.970703125 336.518554688 461.200195312 336.518554688 461.200195312 c 1
171.73828125 282.321289062 m 1
 152.646484375 173.9453125 l 1
 189.405273438 174.287109375 229.614257812 174.334960938 267.614257812 174.237304688 c 1
 283.006835938 283.110351562 l 1
 246.05859375 283.45703125 207.306640625 283.041992188 171.73828125 282.321289062 c 1
EndSplineSet
Validated: 33
EndChar

StartChar: braceleft
Encoding: 123 123 57
Width: 184
VWidth: 0
Flags: W
VStem: 19.2012 146.307
LayerCount: 2
Fore
SplineSet
165.5078125 412.872070312 m 1
 166.724609375 415.360351562 155.28515625 422.400390625 155.28515625 422.400390625 c 0
 152.923828125 423.581054688 128.279296875 328.556640625 128.279296875 328.556640625 c 0
 115.760742188 280.19140625 l 1
 130.64453125 263.120117188 131.091796875 242.72265625 131.6484375 241.361328125 c 1
 123.604492188 263.120117188 107.5859375 255.379882812 107.5859375 255.379882812 c 1
 87.078125 193.79296875 l 2
 85.5927734375 183.708007812 113.079101562 129.807617188 121.741210938 129.68359375 c 1
 122.188476562 73.3017578125 l 1
 146.05859375 20.8798828125 l 1
 164.270507812 33.8603515625 l 1
 146.669921875 -119.087890625 l 1
 19.201171875 207.137695312 l 1
 155.56640625 506.633789062 l 1
 165.5078125 412.872070312 l 1
EndSplineSet
Validated: 37
EndChar

StartChar: braceright
Encoding: 125 125 58
Width: 184
VWidth: 0
Flags: W
VStem: 19.292 10.2236<419.585 422.4>
LayerCount: 2
Fore
SplineSet
19.2919921875 412.872070312 m 1
 18.0751953125 415.360351562 29.515625 422.400390625 29.515625 422.400390625 c 0
 31.8759765625 423.581054688 56.5205078125 328.556640625 56.5205078125 328.556640625 c 0
 69.0400390625 280.19140625 l 1
 54.1552734375 263.120117188 53.7080078125 242.72265625 53.1513671875 241.361328125 c 1
 61.1953125 263.120117188 77.2138671875 255.379882812 77.2138671875 255.379882812 c 1
 97.7216796875 193.79296875 l 2
 99.20703125 183.708007812 71.720703125 129.807617188 63.05859375 129.68359375 c 1
 62.611328125 73.3017578125 l 1
 38.7412109375 20.8798828125 l 1
 20.529296875 33.8603515625 l 1
 38.1298828125 -119.087890625 l 1
 165.598632812 207.137695312 l 1
 29.2333984375 506.633789062 l 1
 19.2919921875 412.872070312 l 1
EndSplineSet
Validated: 37
EndChar

StartChar: underscore
Encoding: 95 95 59
Width: 652
VWidth: 0
Flags: W
HStem: -79.1289 77.5566
LayerCount: 2
Fore
SplineSet
90.2861328125 -79.12890625 m 5
 90.2861328125 -79.12890625 10.5908203125 -32.447265625 10.28125 -29.353515625 c 0
 7.55859375 -8.25390625 642.334960938 -1.572265625 642.334960938 -1.572265625 c 1
 602.734375 -66.7265625 602.734375 -79.92578125 602.734375 -79.92578125 c 5
 311.51953125 -49.2802734375 90.2861328125 -79.12890625 90.2861328125 -79.12890625 c 5
EndSplineSet
Validated: 33
EndChar

StartChar: asciicircum
Encoding: 94 94 60
Width: 184
VWidth: 0
Flags: W
HStem: 383.279 119.508
VStem: 23.1348 138.505
LayerCount: 2
Fore
SplineSet
118.900390625 394.310546875 m 1
 118.900390625 394.310546875 114.387695312 411.6640625 95.5302734375 434.9921875 c 1
 75.2705078125 416.453125 70.2861328125 397.256835938 70.2861328125 397.256835938 c 1
 70.2861328125 397.256835938 23.751953125 386.84375 23.134765625 387.180664062 c 0
 19.1767578125 389.342773438 84.33203125 488.725585938 94.828125 502.787109375 c 0
 95.193359375 503.517578125 95.55859375 504.274414062 95.9521484375 505.088867188 c 2
 95.9521484375 505.088867188 166.046875 385.356445312 161.639648438 383.279296875 c 0
 160.994140625 382.970703125 118.900390625 394.310546875 118.900390625 394.310546875 c 1
EndSplineSet
Validated: 33
EndChar

StartChar: less
Encoding: 60 60 61
Width: 303
VWidth: 0
Flags: W
LayerCount: 2
Fore
SplineSet
265.177734375 142.291992188 m 1
 265.177734375 142.291992188 173.360351562 178.639648438 121.9296875 220.212890625 c 1
 162.799804688 264.879882812 258.680664062 302.266601562 258.680664062 302.266601562 c 1
 258.680664062 302.266601562 281.635742188 397.856445312 280.893554688 399.217773438 c 0
 276.12890625 407.94140625 57.0302734375 244.901367188 26.0302734375 221.759765625 c 0
 24.421875 220.956054688 22.7509765625 220.151367188 20.95703125 219.28515625 c 2
 20.95703125 219.28515625 284.915039062 45.3544921875 289.494140625 55.068359375 c 0
 290.174804688 56.4921875 265.177734375 142.291992188 265.177734375 142.291992188 c 1
EndSplineSet
Validated: 41
EndChar

StartChar: greater
Encoding: 62 62 62
Width: 303
VWidth: 0
Flags: W
VStem: 17.5381 268.537
LayerCount: 2
Fore
SplineSet
41.85546875 142.291992188 m 1
 41.85546875 142.291992188 133.671875 178.639648438 185.102539062 220.212890625 c 5
 144.232421875 264.879882812 48.3515625 302.266601562 48.3515625 302.266601562 c 1
 48.3515625 302.266601562 25.396484375 397.856445312 26.138671875 399.217773438 c 0
 30.9033203125 407.94140625 250.002929688 244.901367188 281.001953125 221.759765625 c 0
 282.610351562 220.956054688 284.28125 220.151367188 286.075195312 219.28515625 c 2
 286.075195312 219.28515625 22.1171875 45.3544921875 17.5380859375 55.068359375 c 0
 16.857421875 56.4921875 41.85546875 142.291992188 41.85546875 142.291992188 c 1
EndSplineSet
Validated: 33
EndChar

StartChar: equal
Encoding: 61 61 63
Width: 431
VWidth: 0
Flags: W
HStem: 121.206 147.496
LayerCount: 2
Fore
SplineSet
334.478515625 184.27734375 m 1
 358.16015625 184.799804688 364.934570312 174.473632812 364.978515625 174.53515625 c 1
 371.360351562 137.280273438 364.836914062 121.206054688 364.836914062 121.206054688 c 5
 222.639648438 157.51953125 17.056640625 123.0078125 17.056640625 123.0078125 c 5
 17.056640625 123.0078125 16.3154296875 168.333984375 16.0986328125 170.747070312 c 0
 14.5830078125 187.639648438 293.919921875 183.040039062 293.919921875 183.040039062 c 2
 294.049804688 182.916015625 292.0546875 182.9140625 292.234375 182.909179688 c 0
 319.440429688 182.16015625 334.478515625 184.27734375 334.478515625 184.27734375 c 1
378.478515625 252.037109375 m 1
 394.850585938 237.55859375 400.134765625 233.43359375 400.178710938 233.49609375 c 1
 360.799804688 243.759765625 364.836914062 206.56640625 364.836914062 206.56640625 c 1
 222.639648438 242.879882812 17.056640625 208.3671875 17.056640625 208.3671875 c 1
 17.056640625 208.3671875 16.3154296875 253.694335938 16.0986328125 256.107421875 c 0
 14.5830078125 272.999023438 335.844726562 268.702148438 335.844726562 268.702148438 c 2
 335.974609375 268.579101562 336.0546875 268.274414062 336.234375 268.26953125 c 0
 363.440429688 267.51953125 378.478515625 252.037109375 378.478515625 252.037109375 c 1
EndSplineSet
Validated: 37
EndChar

StartChar: plus
Encoding: 43 43 64
Width: 352
VWidth: 0
Flags: W
HStem: 212.885 51.04<60.274 151.909 208.228 314.42>
VStem: 151.909 54.2373<92.9594 97.8906 97.9356 212.885 263.94 355.969>
LayerCount: 2
Fore
SplineSet
60.2412109375 207.521484375 m 2
 60.2412109375 207.521484375 25.529296875 255.1796875 25.34375 256.788085938 c 0
 24.830078125 261.711914062 89.572265625 263.486328125 152.703125 263.924804688 c 1
 151.887695312 314.92578125 148.561523438 355.999023438 148.561523438 355.999023438 c 1
 148.561523438 355.999023438 203.259765625 390.7109375 204.868164062 390.896484375 c 0
 210.008789062 391.432617188 209.883789062 330.419921875 208.227539062 263.940429688 c 1
 263.673828125 263.651367188 318.349609375 262.837890625 318.349609375 262.837890625 c 0
 332.38671875 240.240234375 315.592773438 201.87109375 315.592773438 201.87109375 c 1
 290.901367188 209.8203125 244.733398438 213.021484375 206.146484375 213.784179688 c 1
 204.223632812 159.705078125 202.118164062 97.890625 202.118164062 97.890625 c 0
 179.51953125 83.853515625 134.990234375 91.84765625 134.990234375 91.84765625 c 1
 145.296875 115.044921875 150.067382812 171.762695312 151.909179688 212.884765625 c 1
 105.284179688 211.045898438 60.2412109375 207.521484375 60.2412109375 207.521484375 c 2
EndSplineSet
Validated: 33
EndChar

StartChar: ampersand
Encoding: 38 38 65
Width: 447
VWidth: 0
Flags: W
HStem: 431.961 57.5508<174.036 298.919>
VStem: 365.077 27.8916<442.145 462.073>
LayerCount: 2
Fore
SplineSet
392.96875 462.331054688 m 0
 447.040039062 390.719726562 414.1875 316.159179688 358.874023438 277.573242188 c 0
 303.750976562 238.923828125 282.532226562 204.456054688 311.487304688 152.056640625 c 0
 340.443359375 99.658203125 327.137695312 13.2353515625 235.646484375 -1.0205078125 c 0
 213.850585938 -4.4423828125 192.237304688 -3.427734375 160.430664062 2.78125 c 1
 142.309570312 -37.896484375 135.150390625 -52.546875 130.017578125 -81.3125 c 0
 122.858398438 -121.228515625 125.400390625 -170.966796875 117.099609375 -165.454101562 c 0
 108.799804688 -159.94140625 78.1826171875 -121.35546875 75.39453125 -113.0546875 c 0
 72.6708984375 -104.754882812 76.7890625 -68.5625 94.7197265625 -17.5576171875 c 0
 98.2041015625 -7.546875 104.033203125 5.3779296875 111.3828125 20.0146484375 c 1
 64.2421875 39.65625 24.2001953125 72.603515625 17.4833984375 121.70703125 c 0
 3.6708984375 222.38671875 119.197265625 295.525390625 119.197265625 295.525390625 c 1
 109.946289062 308.387695312 93.958984375 336.357421875 91.107421875 352.767578125 c 0
 88.2568359375 369.176757812 98.267578125 418.866210938 111.827148438 434.579101562 c 0
 125.385742188 450.229492188 158.90234375 489.51171875 225.303710938 489.51171875 c 0
 271.68359375 489.51171875 275.865234375 484.782226562 292.97265625 478.381835938 c 0
 310.080078125 471.982421875 328.240234375 452.3203125 338.810546875 432.635742188 c 0
 344.78515625 421.509765625 357.346679688 399.604492188 338.782226562 391.748046875 c 0
 320.217773438 383.891601562 309.700195312 402.6875 296.837890625 411.9375 c 0
 284.0390625 421.189453125 273.837890625 431.9609375 231.006835938 431.9609375 c 4
 188.17578125 431.9609375 150.93359375 400.5546875 150.93359375 363.42578125 c 0
 150.93359375 326.296875 225.811523438 272.1875 245.072265625 270.73046875 c 1
 149.599609375 256.959960938 88.4052734375 216.990234375 84.5390625 152.951171875 c 0
 81.83984375 108.240234375 104.673828125 89.0205078125 136.1640625 72.80078125 c 1
 164.04296875 120.954101562 204.712890625 179.872070312 223.0234375 205.849609375 c 0
 256.161132812 252.736328125 323.765625 318.947265625 355.446289062 347.90234375 c 0
 387.125976562 376.858398438 367.864257812 436.163085938 365.077148438 441.67578125 c 0
 362.288085938 447.1875 376.85546875 483.671875 392.96875 462.331054688 c 0
194.64453125 57.7841796875 m 1
 278.959960938 42.240234375 270.290039062 161.307617188 247.861328125 131.337890625 c 0
 230.24609375 107.83203125 206.810546875 77.552734375 194.64453125 57.7841796875 c 1
EndSplineSet
Validated: 33
EndChar

StartChar: grave
Encoding: 96 96 66
Width: 154
VWidth: 0
Flags: W
VStem: 29.8096 104.061
LayerCount: 2
Fore
SplineSet
33.640625 489.458984375 m 5
 33.640625 489.458984375 58.1259765625 503.723632812 84.875 487.216796875 c 0
 102.276367188 476.477539062 120.276367188 432.182617188 120.276367188 432.182617188 c 2
 130.025390625 417.028320312 133.870117188 386.006835938 133.870117188 386.006835938 c 1
 92.193359375 458.0546875 59.2158203125 429.10546875 59.2158203125 429.10546875 c 1
 29.8095703125 448.251953125 l 5
 33.640625 489.458984375 l 5
EndSplineSet
Validated: 33
EndChar

StartChar: sterling
Encoding: 163 163 67
Width: 285
VWidth: 0
Flags: W
HStem: -0.197266 21G<141.879 150.793>
VStem: 111.561 0.124023<197.555 219.459>
LayerCount: 2
Fore
SplineSet
85.078125 224.59375 m 2
 78.705078125 196.46875 l 1
 103.455078125 168.5625 l 1
 107.291015625 172.399414062 l 1
 107.291015625 79.3740234375 l 1
 13.9833984375 271.048828125 l 1
 108.776367188 483.541015625 l 1
 108.28125 462.379882812 l 1
 114.654296875 452.232421875 116.881835938 446.168945312 116.881835938 446.168945312 c 2
 111.189453125 454.3984375 105.235351562 447.77734375 105.235351562 447.77734375 c 1
 78.2373046875 348.708984375 l 1
 89.6220703125 342.2734375 94.79296875 325.140625 95.1640625 324.274414062 c 1
 88.791015625 335.041015625 74.44921875 332.662109375 74.44921875 332.662109375 c 1
 65.40234375 288.202148438 l 2
 64.2880859375 281.766601562 67.2578125 274.712890625 73.81640625 274.651367188 c 2
 90.646484375 274.465820312 l 1
 116.696289062 277.9921875 89.2236328125 292.594726562 89.2236328125 292.594726562 c 1
 109.581054688 287.892578125 114.221679688 267.783203125 114.221679688 267.783203125 c 1
 116.077148438 271.557617188 111.189453125 287.026367188 111.065429688 287.458984375 c 1
 119.666015625 282.508789062 125.916015625 272.052734375 126.287109375 271.372070312 c 1
 108.528320312 303.484375 114.90234375 321.119140625 114.90234375 321.119140625 c 1
 116.16015625 334.400390625 142.065429688 344.577148438 142.065429688 344.577148438 c 1
 161.040039062 352.879882812 160.682617188 365.291015625 160.682617188 365.291015625 c 1
 159.280273438 380.16015625 142.065429688 378.807617188 142.065429688 378.807617188 c 1
 117.500976562 380.416015625 114.90234375 355.975585938 114.90234375 355.975585938 c 1
 114.90234375 355.975585938 109.986328125 367.622070312 109.986328125 368.302734375 c 0
 109.986328125 368.983398438 113.822265625 380.368164062 113.822265625 380.368164062 c 1
 113.204101562 391.237304688 l 1
 121.956054688 403.041992188 l 1
 117.500976562 424.017578125 127.029296875 432.247070312 127.029296875 432.247070312 c 2
 125.111328125 415.7265625 135.78125 406.561523438 135.78125 406.561523438 c 1
 154.838867188 400.188476562 167.0625 414.591796875 167.0625 414.591796875 c 1
 167.681640625 410.13671875 165.14453125 403.041992188 161.370117188 401.185546875 c 0
 147.32421875 394.131835938 148.108398438 389.73828125 148.108398438 389.73828125 c 1
 176 383.6796875 174.672851562 361.15234375 174.672851562 361.15234375 c 1
 175.291992188 340.857421875 148.004882812 330.6484375 142.126953125 328.111328125 c 0
 117.12890625 317.283203125 142.126953125 298.287109375 142.126953125 298.287109375 c 1
 152.150390625 286.221679688 158.15234375 267.1640625 158.15234375 267.1640625 c 1
 158.771484375 279.229492188 172.754882812 287.458984375 172.754882812 287.458984375 c 2
 162.607421875 270.938476562 168.918945312 265.24609375 168.918945312 265.24609375 c 1
 180.798828125 290.615234375 193.544921875 293.08984375 193.544921875 293.08984375 c 1
 175.787109375 278.487304688 190.512695312 274.774414062 190.512695312 274.774414062 c 1
 207.342773438 274.774414062 l 2
 216.12890625 274.774414062 222.564453125 283.127929688 220.212890625 291.666992188 c 2
 210.450195312 328.0078125 l 2
 205.438476562 339.26953125 187.171875 325.752929688 186.73828125 325.2578125 c 1
 195.958007812 344.005859375 203.452148438 351.245117188 203.452148438 351.245117188 c 1
 178.08984375 447.983398438 l 6
 174.25390625 453.67578125 167.0625 444.930664062 167.0625 444.930664062 c 1
 167.0625 453.840820312 174.672851562 463.370117188 174.672851562 463.370117188 c 1
 175.16796875 484.90234375 l 1
 271.13671875 269.192382812 l 1
 189.15234375 102.638671875 l 1
 185.315429688 113.405273438 l 1
 181.479492188 110.868164062 l 1
 176.405273438 117.859375 l 1
 176.405273438 174.193359375 l 1
 183.397460938 168.500976562 l 1
 188.471679688 172.956054688 l 1
 189.08984375 178.030273438 l 1
 202.393554688 194.55078125 l 1
 199.237304688 204.856445312 l 1
 206.229492188 208.01171875 l 1
 199.237304688 217.540039062 l 1
 199.237304688 224.532226562 l 1
 178.26171875 220.696289062 173.002929688 196.998046875 173.002929688 196.998046875 c 1
 173.188476562 218.220703125 l 1
 163.041015625 215.684570312 156.048828125 199.1640625 156.048828125 199.1640625 c 1
 161.741210938 155.356445312 l 1
 143.71484375 112.166992188 l 1
 152.439453125 86.798828125 l 1
 132.88671875 56.2939453125 l 1
 142.3125 33.970703125 l 1
 161.6796875 44.228515625 l 1
 141.87890625 -0.197265625 l 1
 141.87890625 -0.197265625 116.201171875 53.8193359375 114.221679688 56.2939453125 c 0
 115.706054688 57.53125 130.618164062 86.798828125 130.618164062 86.798828125 c 1
 119.8515625 109.630859375 l 1
 133.141601562 151.51953125 l 1
 133.079101562 161.048828125 l 2
 134.193359375 201.700195312 111.560546875 219.458984375 111.560546875 219.458984375 c 1
 111.684570312 197.5546875 l 1
 106.177734375 223.727539062 85.7587890625 224.59375 85.078125 224.59375 c 2
EndSplineSet
Validated: 33
EndChar

StartChar: yen
Encoding: 165 165 68
Width: 285
VWidth: 0
Flags: W
HStem: -0.197266 21G<141.879 150.793>
VStem: 111.561 0.124023<197.555 219.459>
LayerCount: 2
Fore
SplineSet
85.078125 224.59375 m 2
 78.705078125 196.46875 l 1
 103.455078125 168.5625 l 1
 107.291015625 172.399414062 l 1
 107.291015625 79.3740234375 l 1
 13.9833984375 271.048828125 l 1
 108.776367188 483.541015625 l 1
 108.28125 462.379882812 l 1
 114.654296875 452.232421875 116.881835938 446.168945312 116.881835938 446.168945312 c 2
 111.189453125 454.3984375 105.235351562 447.77734375 105.235351562 447.77734375 c 1
 78.2373046875 348.708984375 l 1
 89.6220703125 342.2734375 94.79296875 325.140625 95.1640625 324.274414062 c 1
 88.791015625 335.041015625 74.44921875 332.662109375 74.44921875 332.662109375 c 1
 65.40234375 288.202148438 l 2
 64.2880859375 281.766601562 67.2578125 274.712890625 73.81640625 274.651367188 c 2
 90.646484375 274.465820312 l 1
 116.696289062 277.9921875 89.2236328125 292.594726562 89.2236328125 292.594726562 c 1
 109.581054688 287.892578125 114.221679688 267.783203125 114.221679688 267.783203125 c 1
 116.077148438 271.557617188 111.189453125 287.026367188 111.065429688 287.458984375 c 1
 119.666015625 282.508789062 125.916015625 272.052734375 126.287109375 271.372070312 c 1
 108.528320312 303.484375 114.90234375 321.119140625 114.90234375 321.119140625 c 1
 116.16015625 334.400390625 142.065429688 344.577148438 142.065429688 344.577148438 c 1
 161.040039062 352.879882812 160.682617188 365.291015625 160.682617188 365.291015625 c 1
 159.280273438 380.16015625 142.065429688 378.807617188 142.065429688 378.807617188 c 1
 117.500976562 380.416015625 114.90234375 355.975585938 114.90234375 355.975585938 c 1
 114.90234375 355.975585938 109.986328125 367.622070312 109.986328125 368.302734375 c 0
 109.986328125 368.983398438 113.822265625 380.368164062 113.822265625 380.368164062 c 1
 113.204101562 391.237304688 l 1
 121.956054688 403.041992188 l 1
 117.500976562 424.017578125 127.029296875 432.247070312 127.029296875 432.247070312 c 2
 125.111328125 415.7265625 135.78125 406.561523438 135.78125 406.561523438 c 1
 154.838867188 400.188476562 167.0625 414.591796875 167.0625 414.591796875 c 1
 167.681640625 410.13671875 165.14453125 403.041992188 161.370117188 401.185546875 c 0
 147.32421875 394.131835938 148.108398438 389.73828125 148.108398438 389.73828125 c 1
 176 383.6796875 174.672851562 361.15234375 174.672851562 361.15234375 c 1
 175.291992188 340.857421875 148.004882812 330.6484375 142.126953125 328.111328125 c 0
 117.12890625 317.283203125 142.126953125 298.287109375 142.126953125 298.287109375 c 1
 152.150390625 286.221679688 158.15234375 267.1640625 158.15234375 267.1640625 c 1
 158.771484375 279.229492188 172.754882812 287.458984375 172.754882812 287.458984375 c 2
 162.607421875 270.938476562 168.918945312 265.24609375 168.918945312 265.24609375 c 1
 180.798828125 290.615234375 193.544921875 293.08984375 193.544921875 293.08984375 c 1
 175.787109375 278.487304688 190.512695312 274.774414062 190.512695312 274.774414062 c 1
 207.342773438 274.774414062 l 2
 216.12890625 274.774414062 222.564453125 283.127929688 220.212890625 291.666992188 c 2
 210.450195312 328.0078125 l 2
 205.438476562 339.26953125 187.171875 325.752929688 186.73828125 325.2578125 c 1
 195.958007812 344.005859375 203.452148438 351.245117188 203.452148438 351.245117188 c 1
 178.08984375 447.983398438 l 2
 174.25390625 453.67578125 167.0625 444.930664062 167.0625 444.930664062 c 1
 167.0625 453.840820312 174.672851562 463.370117188 174.672851562 463.370117188 c 1
 175.16796875 484.90234375 l 1
 271.13671875 269.192382812 l 1
 189.15234375 102.638671875 l 1
 185.315429688 113.405273438 l 1
 181.479492188 110.868164062 l 1
 176.405273438 117.859375 l 1
 176.405273438 174.193359375 l 1
 183.397460938 168.500976562 l 1
 188.471679688 172.956054688 l 1
 189.08984375 178.030273438 l 1
 202.393554688 194.55078125 l 1
 199.237304688 204.856445312 l 1
 206.229492188 208.01171875 l 1
 199.237304688 217.540039062 l 1
 199.237304688 224.532226562 l 1
 178.26171875 220.696289062 173.002929688 196.998046875 173.002929688 196.998046875 c 1
 173.188476562 218.220703125 l 1
 163.041015625 215.684570312 156.048828125 199.1640625 156.048828125 199.1640625 c 1
 161.741210938 155.356445312 l 1
 143.71484375 112.166992188 l 1
 152.439453125 86.798828125 l 1
 132.88671875 56.2939453125 l 1
 142.3125 33.970703125 l 1
 161.6796875 44.228515625 l 1
 141.87890625 -0.197265625 l 1
 141.87890625 -0.197265625 116.201171875 53.8193359375 114.221679688 56.2939453125 c 0
 115.706054688 57.53125 130.618164062 86.798828125 130.618164062 86.798828125 c 1
 119.8515625 109.630859375 l 1
 133.141601562 151.51953125 l 1
 133.079101562 161.048828125 l 2
 134.193359375 201.700195312 111.560546875 219.458984375 111.560546875 219.458984375 c 1
 111.684570312 197.5546875 l 1
 106.177734375 223.727539062 85.7587890625 224.59375 85.078125 224.59375 c 2
EndSplineSet
Validated: 33
EndChar

StartChar: cent
Encoding: 162 162 69
Width: 285
VWidth: 0
Flags: W
HStem: -0.197266 21G<141.879 150.793>
VStem: 111.561 0.124023<197.555 219.459>
LayerCount: 2
Fore
SplineSet
85.078125 224.59375 m 2
 78.705078125 196.46875 l 1
 103.455078125 168.5625 l 1
 107.291015625 172.399414062 l 1
 107.291015625 79.3740234375 l 1
 13.9833984375 271.048828125 l 1
 108.776367188 483.541015625 l 1
 108.28125 462.379882812 l 1
 114.654296875 452.232421875 116.881835938 446.168945312 116.881835938 446.168945312 c 2
 111.189453125 454.3984375 105.235351562 447.77734375 105.235351562 447.77734375 c 1
 78.2373046875 348.708984375 l 1
 89.6220703125 342.2734375 94.79296875 325.140625 95.1640625 324.274414062 c 1
 88.791015625 335.041015625 74.44921875 332.662109375 74.44921875 332.662109375 c 1
 65.40234375 288.202148438 l 2
 64.2880859375 281.766601562 67.2578125 274.712890625 73.81640625 274.651367188 c 2
 90.646484375 274.465820312 l 1
 116.696289062 277.9921875 89.2236328125 292.594726562 89.2236328125 292.594726562 c 1
 109.581054688 287.892578125 114.221679688 267.783203125 114.221679688 267.783203125 c 1
 116.077148438 271.557617188 111.189453125 287.026367188 111.065429688 287.458984375 c 1
 119.666015625 282.508789062 125.916015625 272.052734375 126.287109375 271.372070312 c 1
 108.528320312 303.484375 114.90234375 321.119140625 114.90234375 321.119140625 c 1
 116.16015625 334.400390625 142.065429688 344.577148438 142.065429688 344.577148438 c 1
 161.040039062 352.879882812 160.682617188 365.291015625 160.682617188 365.291015625 c 1
 159.280273438 380.16015625 142.065429688 378.807617188 142.065429688 378.807617188 c 1
 117.500976562 380.416015625 114.90234375 355.975585938 114.90234375 355.975585938 c 1
 114.90234375 355.975585938 109.986328125 367.622070312 109.986328125 368.302734375 c 0
 109.986328125 368.983398438 113.822265625 380.368164062 113.822265625 380.368164062 c 1
 113.204101562 391.237304688 l 1
 121.956054688 403.041992188 l 1
 117.500976562 424.017578125 127.029296875 432.247070312 127.029296875 432.247070312 c 2
 125.111328125 415.7265625 135.78125 406.561523438 135.78125 406.561523438 c 1
 154.838867188 400.188476562 167.0625 414.591796875 167.0625 414.591796875 c 1
 167.681640625 410.13671875 165.14453125 403.041992188 161.370117188 401.185546875 c 0
 147.32421875 394.131835938 148.108398438 389.73828125 148.108398438 389.73828125 c 1
 176 383.6796875 174.672851562 361.15234375 174.672851562 361.15234375 c 1
 175.291992188 340.857421875 148.004882812 330.6484375 142.126953125 328.111328125 c 0
 117.12890625 317.283203125 142.126953125 298.287109375 142.126953125 298.287109375 c 1
 152.150390625 286.221679688 158.15234375 267.1640625 158.15234375 267.1640625 c 1
 158.771484375 279.229492188 172.754882812 287.458984375 172.754882812 287.458984375 c 2
 162.607421875 270.938476562 168.918945312 265.24609375 168.918945312 265.24609375 c 1
 180.798828125 290.615234375 193.544921875 293.08984375 193.544921875 293.08984375 c 1
 175.787109375 278.487304688 190.512695312 274.774414062 190.512695312 274.774414062 c 1
 207.342773438 274.774414062 l 2
 216.12890625 274.774414062 222.564453125 283.127929688 220.212890625 291.666992188 c 2
 210.450195312 328.0078125 l 2
 205.438476562 339.26953125 187.171875 325.752929688 186.73828125 325.2578125 c 1
 195.958007812 344.005859375 203.452148438 351.245117188 203.452148438 351.245117188 c 1
 178.08984375 447.983398438 l 6
 174.25390625 453.67578125 167.0625 444.930664062 167.0625 444.930664062 c 1
 167.0625 453.840820312 174.672851562 463.370117188 174.672851562 463.370117188 c 1
 175.16796875 484.90234375 l 1
 271.13671875 269.192382812 l 1
 189.15234375 102.638671875 l 1
 185.315429688 113.405273438 l 1
 181.479492188 110.868164062 l 1
 176.405273438 117.859375 l 1
 176.405273438 174.193359375 l 1
 183.397460938 168.500976562 l 1
 188.471679688 172.956054688 l 1
 189.08984375 178.030273438 l 1
 202.393554688 194.55078125 l 1
 199.237304688 204.856445312 l 1
 206.229492188 208.01171875 l 1
 199.237304688 217.540039062 l 1
 199.237304688 224.532226562 l 1
 178.26171875 220.696289062 173.002929688 196.998046875 173.002929688 196.998046875 c 1
 173.188476562 218.220703125 l 1
 163.041015625 215.684570312 156.048828125 199.1640625 156.048828125 199.1640625 c 1
 161.741210938 155.356445312 l 1
 143.71484375 112.166992188 l 1
 152.439453125 86.798828125 l 1
 132.88671875 56.2939453125 l 1
 142.3125 33.970703125 l 1
 161.6796875 44.228515625 l 1
 141.87890625 -0.197265625 l 1
 141.87890625 -0.197265625 116.201171875 53.8193359375 114.221679688 56.2939453125 c 0
 115.706054688 57.53125 130.618164062 86.798828125 130.618164062 86.798828125 c 1
 119.8515625 109.630859375 l 1
 133.141601562 151.51953125 l 1
 133.079101562 161.048828125 l 2
 134.193359375 201.700195312 111.560546875 219.458984375 111.560546875 219.458984375 c 1
 111.684570312 197.5546875 l 1
 106.177734375 223.727539062 85.7587890625 224.59375 85.078125 224.59375 c 2
EndSplineSet
Validated: 33
EndChar

StartChar: zero
Encoding: 48 48 70
Width: 371
VWidth: 0
Flags: W
HStem: 0.963867 483.021<41.9775 307.887>
LayerCount: 2
Fore
SplineSet
349.029296875 316.975585938 m 0
 365.73046875 256.609375 359.120117188 0.9638671875 183.239257812 0.9638671875 c 0
 7.3583984375 0.9638671875 16.3173828125 212.942382812 16.3173828125 252.78125 c 0
 16.3173828125 292.620117188 41.9775390625 483.984375 182.020507812 483.984375 c 0
 307.88671875 483.984375 332.329101562 377.342773438 349.029296875 316.975585938 c 0
264.060546875 115.259765625 m 0
 298.3203125 205.919921875 292.16015625 291.280273438 258.76953125 373.717773438 c 0
 233.409179688 436.331054688 123.29296875 438.685546875 100.227539062 356.060546875 c 0
 83.939453125 297.715820312 68.6396484375 177.759765625 105.795898438 108.200195312 c 0
 139.727539062 44.677734375 239.28515625 49.6943359375 264.060546875 115.259765625 c 0
EndSplineSet
Validated: 33
EndChar

StartChar: a
Encoding: 97 97 71
Width: 308
VWidth: 0
Flags: W
HStem: 0.0986328 21G<144.772 191.925 206.669 288.068>
VStem: 207.721 58.4717<81.8701 153.081>
LayerCount: 2
Fore
SplineSet
286.645507812 26.34765625 m 1
 288.068359375 23.6865234375 l 1
 288.068359375 0.0986328125 l 1
 212.051757812 0.0986328125 l 1
 206.668945312 8.748046875 l 1
 206.916015625 26.044921875 l 1
 144.772460938 -0.3134765625 l 1
 144.772460938 -0.3134765625 68.8388671875 -27.9306640625 29.609375 28.4990234375 c 1
 29.609375 28.4990234375 3.931640625 58.8798828125 36.23046875 134.676757812 c 0
 44.521484375 154.229492188 129.056640625 191.162109375 129.056640625 191.162109375 c 1
 207.720703125 204.774414062 l 1
 207.720703125 204.774414062 192.719726562 281.599609375 92.8525390625 209.51171875 c 1
 74.970703125 193.857421875 l 1
 56.4150390625 191.114257812 l 1
 56.0439453125 259.740234375 l 1
 56.0439453125 259.740234375 183.774414062 342.948242188 255.42578125 246.98046875 c 1
 255.42578125 246.98046875 267.51953125 235.83984375 266.192382812 173.224609375 c 0
 265.045898438 119.158203125 266.192382812 54.810546875 266.192382812 54.810546875 c 1
 266.192382812 54.810546875 267.76171875 33.6015625 281.661132812 29.3173828125 c 0
 285.416015625 28.16015625 286.645507812 26.34765625 286.645507812 26.34765625 c 1
206.90234375 81.8701171875 m 1
 206.840820312 81.8701171875 l 1
 207.720703125 153.081054688 l 1
 157.23046875 152.771484375 150.685546875 131.5625 150.685546875 131.5625 c 1
 113.931640625 153.9609375 90.583984375 102.598632812 90.583984375 102.598632812 c 1
 70.6962890625 17.599609375 158.736328125 61.8291015625 158.736328125 61.8291015625 c 1
 206.90234375 81.8701171875 l 1
EndSplineSet
Validated: 33
EndChar

StartChar: b
Encoding: 98 98 72
Width: 308
VWidth: 0
Flags: W
HStem: -6.89062 58.1416<103.07 214.721> 244.576 60.5<101.225 210.007>
VStem: 13.9395 58.7188<82.766 215.069 276.463 322.34 341.149 424.846> 235.851 57.9561<73.2021 217.434>
LayerCount: 2
Fore
SplineSet
159.180664062 305.076171875 m 0
 215.688476562 305.076171875 293.806640625 262.240234375 293.806640625 154.07421875 c 0
 293.806640625 41.3603515625 226.506835938 -6.890625 167.973632812 -6.890625 c 0
 65.5703125 -6.890625 13.939453125 37.783203125 13.939453125 37.783203125 c 1
 13.939453125 73.2998046875 l 1
 13.939453125 424.845703125 l 1
 13.939453125 424.845703125 12.3203125 452.3203125 -3.40625 461.379882812 c 1
 70.6162109375 484.025390625 l 1
 88.931640625 484.087890625 l 1
 88.931640625 484.087890625 72.658203125 476.848632812 72.658203125 447.766601562 c 2
 72.658203125 341.149414062 l 1
 67.9560546875 337.189453125 l 1
 67.4609375 333.5390625 l 1
 62.263671875 333.5390625 l 1
 61.0263671875 330.877929688 l 1
 60.7783203125 327.908203125 l 1
 58.798828125 329.579101562 l 1
 59.0458984375 324.62890625 l 1
 62.5107421875 324.62890625 l 1
 65.2333984375 322.33984375 l 1
 68.203125 326.98046875 l 1
 71.916015625 329.26953125 l 1
 71.916015625 276.462890625 l 1
 94.19140625 298.056640625 128.180664062 305.076171875 159.180664062 305.076171875 c 0
155.66015625 51.2509765625 m 0
 221.759765625 51.2509765625 235.850585938 95.919921875 235.850585938 150.553710938 c 0
 235.850585938 194.48046875 214.719726562 244.576171875 156.897460938 244.576171875 c 0
 100.3203125 244.576171875 74.404296875 196.240234375 74.404296875 153.5234375 c 0
 74.404296875 101.200195312 98.5595703125 51.2509765625 155.66015625 51.2509765625 c 0
EndSplineSet
Validated: 1
EndChar

StartChar: c
Encoding: 99 99 73
Width: 286
VWidth: 0
Flags: W
HStem: 0.264648 292.263
VStem: 17.3633 63.498<78.1855 149.692>
LayerCount: 2
Fore
SplineSet
148.84765625 56.7841796875 m 1
 148.84765625 56.7841796875 212.959960938 50.16015625 253.822265625 131.384765625 c 1
 266.75390625 135.09765625 l 1
 268.514648438 63.177734375 l 1
 268.514648438 63.177734375 230.584960938 2.5537109375 148.724609375 0.2646484375 c 1
 148.724609375 0.2646484375 19.6533203125 -5.7373046875 17.36328125 149.692382812 c 1
 17.36328125 149.692382812 15.5078125 297.6015625 152.931640625 292.52734375 c 0
 205.7109375 292.52734375 240.856445312 264.841796875 240.856445312 264.841796875 c 1
 259.8515625 238.916992188 268.637695312 248.630859375 268.637695312 248.630859375 c 1
 257.995117188 221.34375 222.850585938 192.1875 222.850585938 192.1875 c 1
 211.568359375 198.092773438 l 1
 211.568359375 242 152.994140625 238.379882812 152.994140625 238.379882812 c 1
 152.994140625 238.379882812 80.861328125 236.719726562 80.861328125 144.990234375 c 0
 80.861328125 56.3203125 148.84765625 56.7841796875 148.84765625 56.7841796875 c 1
EndSplineSet
Validated: 33
EndChar

StartChar: d
Encoding: 100 100 74
Width: 308
VWidth: 0
Flags: W
HStem: -6.89062 58.1416<92.3989 204.049> 244.576 60.5<97.1132 205.895>
VStem: 13.3135 57.9561<73.2021 217.434> 234.462 58.7188<82.766 215.069>
LayerCount: 2
Fore
SplineSet
147.939453125 305.076171875 m 4
 91.431640625 305.076171875 13.3134765625 262.240234375 13.3134765625 154.07421875 c 4
 13.3134765625 41.3603515625 80.61328125 -6.890625 139.146484375 -6.890625 c 4
 241.549804688 -6.890625 293.180664062 37.783203125 293.180664062 37.783203125 c 5
 293.180664062 73.2998046875 l 5
 293.180664062 424.845703125 l 5
 293.180664062 424.845703125 294.799804688 452.3203125 310.526367188 461.379882812 c 5
 236.50390625 484.025390625 l 5
 218.188476562 484.087890625 l 5
 218.188476562 484.087890625 234.461914062 476.848632812 234.461914062 447.766601562 c 6
 234.461914062 341.149414062 l 5
 239.1640625 337.189453125 l 5
 239.659179688 333.5390625 l 5
 244.856445312 333.5390625 l 5
 246.09375 330.877929688 l 5
 246.341796875 327.908203125 l 5
 248.321289062 329.579101562 l 5
 248.07421875 324.62890625 l 5
 244.609375 324.62890625 l 5
 241.88671875 322.33984375 l 5
 238.916992188 326.98046875 l 5
 235.204101562 329.26953125 l 5
 235.204101562 276.462890625 l 5
 212.928710938 298.056640625 178.939453125 305.076171875 147.939453125 305.076171875 c 4
151.459960938 51.2509765625 m 4
 85.3603515625 51.2509765625 71.26953125 95.919921875 71.26953125 150.553710938 c 4
 71.26953125 194.48046875 92.400390625 244.576171875 150.22265625 244.576171875 c 4
 206.799804688 244.576171875 232.71484375 196.240234375 232.71484375 153.5234375 c 4
 232.71484375 101.200195312 208.559570312 51.2509765625 151.459960938 51.2509765625 c 4
EndSplineSet
Validated: 9
EndChar

StartChar: j
Encoding: 106 106 75
Width: 156
VWidth: 0
Flags: W
HStem: -161.608 59.29<-0.510742 31.5529> 296.088 1.79492<130.553 140.771>
VStem: 47.2568 60.9062<1.65234 234.337 350.302 392.419>
LayerCount: 2
Fore
SplineSet
41.5888671875 350.301757812 m 1
 41.5888671875 392.418945312 l 1
 78.052734375 413.475585938 l 1
 114.515625 392.418945312 l 1
 114.515625 350.301757812 l 1
 78.052734375 329.244140625 l 1
 41.5888671875 350.301757812 l 1
140.770507812 297.8828125 m 1
 131.489257812 296.087890625 l 1
 125.301757812 290.643554688 108.719726562 272.513671875 108.163085938 233.717773438 c 2
 108.163085938 207.173828125 l 1
 108.163085938 -8.9697265625 l 2
 108.163085938 -102.080078125 73.890625 -161.608398438 1.0986328125 -161.608398438 c 0
 -139.069335938 -161.608398438 -87.5068359375 -29.126953125 -87.5068359375 -29.126953125 c 1
 -83.6640625 -19.5498046875 l 1
 -65.4794921875 -5.3603515625 l 1
 -66 -109.120117188 -0.5107421875 -102.318359375 -0.5107421875 -102.318359375 c 1
 51.919921875 -102.318359375 47.2568359375 1.65234375 47.2568359375 1.65234375 c 1
 47.2568359375 234.336914062 l 1
 47.2568359375 234.336914062 45.759765625 270.16015625 25.8896484375 287.796875 c 1
 54.8056640625 292.747070312 l 1
 126.16796875 297.8828125 l 1
 133.59375 297.8828125 l 1
 133.779296875 297.8828125 l 1
 140.770507812 297.8828125 l 1
EndSplineSet
Validated: 33
EndChar

StartChar: g
Encoding: 103 103 76
Width: 336
VWidth: 0
Flags: W
HStem: -174.209 50.584<94.1989 246.542> 31.6338 53.8926<106.142 210.201> 241.123 51.3066<105.054 207.601>
VStem: 19.7373 66.4014<-110.512 -98.0508 101.284 222.161> 226.247 61.7764<101.323 223.449> 262.393 59.6543<-107.701 -54.5686>
LayerCount: 2
Fore
SplineSet
328.743164062 284.561523438 m 1xf4
 328.743164062 284.561523438 308.239257812 232.217773438 288.567382812 229.841796875 c 1
 258.188476562 238.641601562 l 1
 279.948242188 216.252929688 288.0234375 195.940429688 288.0234375 162.885742188 c 0xf8
 288.0234375 80.9599609375 238.573242188 31.6337890625 166.639648438 31.6337890625 c 0
 145.153320312 31.6337890625 123.99609375 31.37109375 106.13671875 40.2421875 c 1
 105.037109375 37.654296875 104.48828125 29.1708984375 104.48828125 27.111328125 c 0
 104.48828125 24.048828125 106.192382812 21.14453125 109.599609375 18.29296875 c 0
 113.060546875 15.4423828125 120.58984375 10.7958984375 130.53515625 9.52734375 c 0
 136.306640625 8.8408203125 150.814453125 8.2080078125 174.002929688 7.6796875 c 0
 216.646484375 6.78125 246.048828125 1.994140625 258.6875 0.4091796875 c 0
 277.920898438 -1.9130859375 293.318359375 -10.5595703125 304.79296875 -24.177734375 c 0
 314.596679688 -35.8125 322.046875 -51.740234375 322.046875 -66.314453125 c 0
 322.046875 -86.43359375 310.177734375 -130.803710938 288.251953125 -148.440429688 c 0
 255.939453125 -174.418945312 203.28515625 -174.208984375 151.299804688 -174.208984375 c 0
 111.349609375 -174.208984375 77.6083984375 -169.086914062 50.076171875 -153.616210938 c 0
 34.5244140625 -144.692382812 19.7373046875 -120.4921875 19.7373046875 -110.880859375 c 0
 19.7373046875 -106.604492188 20.5048828125 -102.884765625 20.5048828125 -98.05078125 c 0
 20.5048828125 -98.05078125 21.3984375 -82.7197265625 36.9853515625 -59.978515625 c 0
 38.19140625 -58.21875 47.205078125 -48.78515625 66.8779296875 -31.1474609375 c 1
 32.8076171875 -17.68359375 27.6572265625 27.9033203125 27.6572265625 27.9033203125 c 1
 47.4951171875 27.427734375 51.9326171875 39.4130859375 65.1220703125 47.6513671875 c 1
 45.759765625 60.7197265625 18.857421875 107.360351562 18.857421875 162.938476562 c 0
 18.857421875 254.3203125 85.9072265625 292.4296875 157.83984375 292.4296875 c 0
 184.6015625 292.4296875 209.49609375 284.66796875 230.158203125 271.361328125 c 1
 313.301757812 292.270507812 l 1
 328.743164062 284.561523438 l 1xf4
122.688476562 -37.712890625 m 1
 112.9609375 -46.7958984375 99.494140625 -59.5390625 94.4921875 -67.4072265625 c 0
 89.4921875 -75.2734375 86.138671875 -82.455078125 86.138671875 -89.0556640625 c 0
 86.138671875 -97.609375 86.8408203125 -103.00390625 97.9580078125 -110.879882812 c 0
 111.994140625 -120.823242188 131.89453125 -123.625 171.021484375 -123.625 c 0
 208.279296875 -123.625 234.154296875 -113.21875 242.890625 -107.5546875 c 0
 258.118164062 -97.6796875 262.392578125 -89.4951171875 262.392578125 -76.6640625 c 0xf4
 262.392578125 -73.919921875 264.879882812 -60.7197265625 228.965820312 -50.755859375 c 0
 217.924804688 -47.6923828125 210.598632812 -44.8798828125 191.401367188 -43.8388671875 c 0
 144.913085938 -41.31640625 147.747070312 -40.72265625 122.688476562 -37.712890625 c 1
41.552734375 192.950195312 m 1
 41.552734375 192.950195312 44.8505859375 203.879882812 57.1591796875 206.09765625 c 1
 49.19140625 206.09765625 l 1
 44.3544921875 201.767578125 l 1
 40.8935546875 202.084960938 l 1
 38.8046875 198.440429688 l 1
 33.2548828125 198.125 l 1
 41.552734375 192.950195312 l 1
160.53515625 85.5263671875 m 0
 207.6796875 85.5263671875 226.247070312 120.559570312 226.247070312 159.381835938 c 0xf8
 226.247070312 205.040039062 205.040039062 241.123046875 159.048828125 241.123046875 c 0
 102.959960938 241.123046875 84.8115234375 198 84.8115234375 171.685546875 c 0
 84.8115234375 160.16015625 80.025390625 120.03125 102.103515625 102.51171875 c 1
 102.322265625 102.669921875 l 2
 102.322265625 102.669921875 102.212890625 102.564453125 102.103515625 102.51171875 c 1
 124.959960938 88 146.248046875 85.5263671875 160.53515625 85.5263671875 c 0
EndSplineSet
Validated: 37
EndChar

StartChar: h
Encoding: 104 104 77
Width: 277
VWidth: 0
Flags: W
HStem: 0.219727 23.6025<91.3007 101.644 254.23 267.51> 251.707 55.5781<92.5966 182.694>
VStem: 23.207 56.9727<89.3477 201.575 284.948 340.78 358.291 430.1> 193.308 58.5479<47.8916 189.895>
LayerCount: 2
Fore
SplineSet
251.85546875 47.8916015625 m 5
 251.85546875 47.8916015625 252.96875 23.3271484375 267.509765625 23.388671875 c 5
 267.509765625 0.2822265625 l 5
 178.024414062 0.2822265625 l 5
 178.024414062 23.5126953125 l 5
 178.024414062 23.5126953125 192.565429688 23.63671875 193.307617188 48.2001953125 c 6
 193.307617188 61.8134765625 l 5
 193.307617188 189.89453125 l 5
 193.307617188 189.89453125 195.360351562 251.70703125 144.673828125 251.70703125 c 4
 80.9599609375 251.70703125 83.6376953125 201.575195312 83.6376953125 201.575195312 c 5
 83.6376953125 89.34765625 l 5
 83.6376953125 89.34765625 84.875 23.822265625 101.643554688 23.822265625 c 5
 101.643554688 0.2197265625 l 5
 5.7578125 0.2197265625 l 5
 5.7578125 23.3271484375 l 5
 5.7578125 23.3271484375 22.33984375 31.6181640625 23.20703125 90.08984375 c 6
 23.20703125 157.774414062 l 5
 23.20703125 430.099609375 l 5
 23.20703125 430.099609375 21.8037109375 456.733398438 0.890625 465.272460938 c 5
 78.7568359375 486.248046875 l 5
 97.009765625 486.309570312 l 5
 97.009765625 486.309570312 80.798828125 461.965820312 80.798828125 434.98828125 c 6
 80.798828125 358.291015625 l 5
 76.158203125 354.639648438 l 5
 75.6630859375 351.237304688 l 5
 70.52734375 351.237304688 l 5
 69.2900390625 348.76171875 l 5
 69.0419921875 345.977539062 l 5
 67.0625 347.524414062 l 5
 67.3095703125 342.9453125 l 5
 70.7744140625 342.9453125 l 5
 73.4970703125 340.780273438 l 5
 76.466796875 345.049804688 l 5
 80.1796875 347.21484375 l 5
 80.1796875 284.948242188 l 5
 90.9921875 297.440429688 117.392578125 307.28515625 144.076171875 307.28515625 c 4
 220 307.28515625 251.586914062 258.719726562 251.731445312 205.610351562 c 6
 251.85546875 186.594726562 l 5
 251.85546875 47.8916015625 l 5
EndSplineSet
Validated: 33
EndChar

StartChar: e
Encoding: 101 101 78
Width: 295
VWidth: 0
Flags: W
HStem: -0.106445 21G<172.886 214.435> 135.469 46.165<81.2002 212.534>
VStem: 21.9453 58.2031<86.1349 135.469>
LayerCount: 2
Fore
SplineSet
155.34765625 60.4892578125 m 5
 155.34765625 60.4892578125 233.200195312 57.2001953125 249.672851562 101.512695312 c 5
 276.051757812 105.287109375 l 5
 276.931640625 46.2587890625 l 5
 276.931640625 46.2587890625 255.983398438 2.2451171875 172.885742188 -0.1064453125 c 5
 172.885742188 -0.1064453125 24.6396484375 -1.759765625 21.9453125 136.588867188 c 5
 21.9453125 136.588867188 21.8828125 138.07421875 22.0068359375 140.611328125 c 5
 22.9345703125 140.611328125 l 5
 25.41015625 139.930664062 l 5
 27.2666015625 141.600585938 l 5
 30.1123046875 142.590820312 l 5
 30.6689453125 147.7265625 l 5
 27.0810546875 145.994140625 l 5
 26.708984375 144.447265625 l 5
 22.7490234375 144.447265625 l 5
 21.8212890625 143.333007812 l 5
 21.6357421875 142.034179688 l 5
 20.150390625 142.71484375 l 5
 20.2744140625 141.415039062 l 5
 6.7236328125 143.024414062 13.75390625 159.280273438 4.5029296875 174.498046875 c 5
 22.9970703125 181.90234375 l 5
 27.2041015625 220.264648438 66.3984375 310.251953125 177.155273438 306.16796875 c 5
 177.155273438 306.16796875 246.131835938 304.9921875 266.921875 260.627929688 c 4
 280.47265625 231.732421875 291.176757812 250.356445312 291.176757812 250.356445312 c 5
 289.444335938 230.927734375 283.751953125 210.680664062 283.751953125 210.680664062 c 5
 269.087890625 164.645507812 l 5
 256.959960938 137.280273438 212.534179688 138.376953125 212.534179688 138.376953125 c 5
 121.37109375 135.46875 l 5
 80.1484375 135.46875 l 5
 80.0869140625 132.807617188 82.509765625 129.497070312 82.7197265625 126.719726562 c 4
 87.1201171875 68.6396484375 155.34765625 60.4892578125 155.34765625 60.4892578125 c 5
168.35546875 262.208984375 m 5
 168.35546875 262.208984375 105.599609375 270.16015625 81.2001953125 181.633789062 c 5
 134.598632812 181.633789062 l 6
 169.372070312 183.614257812 224.970703125 196.669921875 224.970703125 196.669921875 c 5
 228.799804688 263.120117188 168.35546875 262.208984375 168.35546875 262.208984375 c 5
EndSplineSet
Validated: 33
EndChar

StartChar: f
Encoding: 102 102 79
Width: 321
VWidth: 0
Flags: W
HStem: 0.219727 30.7178<148.419 160.226> 245.885 39.8398<46.7461 82.084>
VStem: 82.084 60.4453<89.8428 244.585 287.024 323.984> 282.112 22.6396<366.417 406.677>
LayerCount: 2
Fore
SplineSet
222.904296875 431.200195312 m 1
 139.040039062 431.200195312 142.466796875 323.984375 142.466796875 323.984375 c 2
 142.466796875 287.024414062 l 1
 165.85546875 291.7265625 176.622070312 300.946289062 176.622070312 300.946289062 c 1
 241.120117188 293.919921875 252.866210938 310.2890625 252.866210938 310.2890625 c 1
 274.873046875 299.447265625 l 1
 257.733398438 277.419921875 l 2
 230.793945312 242.796875 206.012695312 245.884765625 206.012695312 245.884765625 c 1
 142.529296875 245.141601562 l 1
 142.529296875 89.8427734375 l 1
 142.529296875 89.8427734375 143.705078125 30.9375 160.225585938 30.9375 c 1
 160.225585938 0.2197265625 l 1
 64.9443359375 0.2197265625 l 1
 64.9443359375 31.37109375 l 1
 64.9443359375 31.37109375 81.2177734375 31.6796875 82.083984375 90.5849609375 c 2
 82.083984375 123.254882812 l 1
 82.083984375 244.584960938 l 1
 24.623046875 245.884765625 l 1
 25.6748046875 262.418945312 l 1
 46.74609375 285.724609375 l 1
 82.1455078125 284.858398438 l 1
 82.1455078125 341.522460938 l 2
 82.1455078125 449.061523438 151.756835938 482.821289062 197.920898438 488.887695312 c 0
 274.559570312 498.959960938 302.393554688 447.390625 302.393554688 447.390625 c 1
 315.057617188 450.986328125 l 1
 304.751953125 366.403320312 l 1
 282.112304688 366.416992188 l 1
 281.599609375 433.83984375 222.904296875 431.200195312 222.904296875 431.200195312 c 1
EndSplineSet
Validated: 33
EndChar

StartChar: i
Encoding: 105 105 80
Width: 123
VWidth: 0
Flags: W
HStem: 0.18457 16.3018<97.2153 105.946>
VStem: 30.3936 61.9951<50.0117 190.903 200.926 279.532 356.462 392.419>
LayerCount: 2
Fore
SplineSet
24.501953125 356.461914062 m 1
 24.501953125 392.418945312 l 1
 60.9658203125 418.755859375 l 1
 97.427734375 392.418945312 l 1
 97.427734375 356.461914062 l 1
 60.9658203125 330.125 l 1
 24.501953125 356.461914062 l 1
92.388671875 50.01171875 m 5
 92.388671875 50.01171875 93.3388671875 16.486328125 105.946289062 16.486328125 c 5
 105.946289062 0.1845703125 l 5
 17.25390625 0.1845703125 l 5
 17.25390625 16.720703125 l 5
 17.25390625 16.720703125 29.7392578125 16.8974609375 30.3935546875 50.4208984375 c 6
 30.3935546875 69.060546875 l 5
 30.3935546875 279.532226562 l 5
 30.3935546875 279.532226562 30.404296875 288.639648438 19.1025390625 290.641601562 c 5
 91.4365234375 301.62890625 l 5
 105.172851562 301.6875 l 5
 105.172851562 301.6875 92.9833984375 297.819335938 92.9833984375 282.345703125 c 6
 92.9833984375 200.92578125 l 5
 89.474609375 198.81640625 l 5
 86.583984375 196.881835938 l 5
 85.25390625 196.881835938 l 5
 84.3017578125 195.475585938 l 5
 82.36328125 193.892578125 l 5
 80.876953125 194.772460938 l 5
 81.0556640625 192.134765625 l 5
 85.37109375 192.134765625 l 5
 87.39453125 190.903320312 l 5
 89.59375 193.364257812 l 5
 92.388671875 194.595703125 l 5
 92.388671875 50.01171875 l 5
EndSplineSet
Validated: 1
EndChar

StartChar: k
Encoding: 107 107 81
Width: 325
VWidth: 0
Flags: W
HStem: 0.219727 30.6562<104.243 116.022 276.802 310.2> 283.16 23.0459<269.966 293.838>
VStem: 34.7939 63.5322<89.3477 332.86 350.371 421.3>
LayerCount: 2
Fore
SplineSet
98.326171875 89.34765625 m 1
 98.326171875 89.34765625 99.5634765625 30.8759765625 116.022460938 30.8759765625 c 1
 116.022460938 0.2197265625 l 1
 17.7783203125 0.2197265625 l 1
 17.7783203125 31.30859375 l 1
 17.7783203125 31.30859375 33.927734375 31.6181640625 34.7939453125 90.08984375 c 2
 34.7939453125 113.774414062 l 1
 34.7939453125 421.299804688 l 1
 34.7939453125 421.299804688 34.5849609375 452.3203125 15.400390625 465.272460938 c 1
 97.0888671875 486.248046875 l 1
 108.749023438 486.309570312 l 1
 108.749023438 486.309570312 99.068359375 479.565429688 99.068359375 452.587890625 c 2
 99.068359375 350.37109375 l 1
 94.490234375 346.719726562 l 1
 93.9951171875 343.31640625 l 1
 88.9833984375 343.31640625 l 1
 87.8076171875 340.841796875 l 1
 87.5595703125 338.057617188 l 1
 85.6416015625 339.604492188 l 1
 85.8896484375 335.025390625 l 1
 89.23046875 335.025390625 l 1
 91.8916015625 332.860351562 l 1
 94.7373046875 337.12890625 l 1
 98.326171875 339.294921875 l 1
 98.326171875 89.34765625 l 1
259.895507812 64.3994140625 m 2
 292.936523438 23.0673828125 310.137695312 25.7900390625 310.200195312 25.7900390625 c 2
 310.200195312 -0.2255859375 l 1
 229.068359375 -0.2255859375 l 1
 202.66796875 27.7080078125 l 1
 207.618164062 33.1533203125 200.688476562 42.125 200.688476562 42.125 c 1
 161.70703125 86.005859375 l 1
 161.70703125 91.1416015625 l 1
 182.497070312 91.1416015625 l 1
 186.45703125 93.3076171875 l 1
 178.846679688 96.0302734375 l 1
 177.17578125 97.1435546875 l 1
 174.514648438 94.978515625 l 1
 174.514648438 94.978515625 165.9140625 96.33984375 164.924804688 96.33984375 c 0
 163.934570312 96.33984375 164.924804688 99.3095703125 164.924804688 99.3095703125 c 1
 153.353515625 100.422851562 l 1
 113.251953125 157.258789062 l 1
 191.014648438 257.358398438 l 2
 208.958984375 274.74609375 191.014648438 283.16015625 191.014648438 283.16015625 c 1
 191.014648438 306.206054688 l 1
 293.837890625 306.206054688 l 1
 294.146484375 283.16015625 l 1
 271.919921875 276.3203125 264.866210938 267.3828125 264.866210938 267.3828125 c 1
 174.143554688 157.258789062 l 1
 201.5546875 122.793945312 218.294921875 124.403320312 218.294921875 124.403320312 c 1
 259.895507812 64.3994140625 l 2
192.520507812 91.0185546875 m 1
 204.166992188 92.0703125 l 1
 193.696289062 93.18359375 l 1
 192.520507812 95.90625 l 1
 188.375 93.18359375 l 1
 192.520507812 91.0185546875 l 1
EndSplineSet
Validated: 33
EndChar

StartChar: l
Encoding: 108 108 82
Width: 136
VWidth: 0
Flags: W
HStem: 0.219727 30.6562<106.863 118.642>
VStem: 34.7734 66.1719<89.3477 332.86 350.371 421.3>
LayerCount: 2
Fore
SplineSet
100.9453125 89.34765625 m 1
 100.9453125 89.34765625 102.18359375 30.8759765625 118.641601562 30.8759765625 c 1
 118.641601562 0.2197265625 l 1
 17.7578125 0.2197265625 l 1
 17.7578125 31.30859375 l 1
 17.7578125 31.30859375 33.9072265625 31.6181640625 34.7734375 90.08984375 c 2
 34.7734375 122.57421875 l 1
 34.7734375 421.299804688 l 1
 34.7734375 421.299804688 31.1728515625 449.6796875 20.263671875 465.272460938 c 1
 99.7080078125 486.248046875 l 1
 117.528320312 486.309570312 l 1
 117.528320312 486.309570312 101.688476562 470.765625 101.688476562 443.788085938 c 2
 101.688476562 350.37109375 l 1
 97.109375 346.719726562 l 1
 96.6142578125 343.31640625 l 1
 91.6025390625 343.31640625 l 1
 90.4267578125 340.841796875 l 1
 90.1796875 338.057617188 l 1
 88.26171875 339.604492188 l 1
 88.5087890625 335.025390625 l 1
 91.849609375 335.025390625 l 1
 94.5107421875 332.860351562 l 1
 97.3564453125 337.12890625 l 1
 100.9453125 339.294921875 l 1
 100.9453125 89.34765625 l 1
EndSplineSet
Validated: 1
EndChar

StartChar: m
Encoding: 109 109 83
Width: 440
VWidth: 0
Flags: W
HStem: -0.0419922 23.292<102.546 116.146 254.656 268.152 407.895 421.444> 232.491 55.9971<106.764 178.322 266.31 333.796>
VStem: 36.6846 60.7139<61.9844 138.008> 193.05 58.7061<48.8047 136.522> 348.981 56.0039<48.8047 136.461>
LayerCount: 2
Fore
SplineSet
404.985351562 48.8046875 m 1
 404.985351562 48.8046875 406.099609375 23.25 421.444335938 23.25 c 1
 421.444335938 -0.0419921875 l 1
 333.080078125 -0.0419921875 l 1
 333.080078125 23.435546875 l 1
 333.080078125 23.435546875 348.177734375 23.5595703125 348.981445312 49.1142578125 c 2
 348.981445312 63.283203125 l 1
 348.981445312 136.4609375 l 1
 348.981445312 136.4609375 353.759765625 232.428710938 299.509765625 232.428710938 c 4
 251.528320312 232.428710938 251.817382812 153.91015625 251.5703125 141.040039062 c 0
 251.5703125 139.493164062 251.631835938 137.946289062 251.631835938 136.399414062 c 2
 251.755859375 103.20703125 l 1
 251.755859375 48.8046875 l 1
 251.755859375 48.8046875 252.869140625 23.25 268.15234375 23.25 c 1
 268.15234375 -0.0419921875 l 1
 177.1484375 -0.0419921875 l 1
 177.1484375 23.435546875 l 1
 177.1484375 23.435546875 192.24609375 23.5595703125 193.049804688 49.1142578125 c 2
 193.049804688 63.283203125 l 1
 193.049804688 136.522460938 l 1
 193.049804688 136.522460938 198.879882812 232.491210938 143.577148438 232.491210938 c 4
 84.48046875 232.491210938 97.4599609375 137.822265625 97.4599609375 137.822265625 c 1
 97.3984375 138.0078125 l 1
 97.3984375 61.984375 l 1
 97.3984375 61.984375 98.697265625 21.2705078125 116.146484375 21.2705078125 c 1
 116.146484375 -0.0419921875 l 1
 18.5556640625 -0.0419921875 l 1
 18.5556640625 20.9609375 l 1
 18.5556640625 20.9609375 35.7568359375 26.0966796875 36.6845703125 62.4169921875 c 2
 36.6845703125 82.5888671875 l 1
 36.6845703125 247.918945312 l 1
 36.6845703125 247.918945312 34.1689453125 278.080078125 22.6533203125 285.208984375 c 1
 78.4365234375 298.202148438 l 1
 107.9921875 298.263671875 l 1
 107.9921875 298.263671875 98.140625 294.056640625 98.140625 277.288085938 c 2
 98.140625 264.569335938 l 1
 101.224609375 274.559570312 112.502929688 288.48828125 145.048828125 288.48828125 c 0
 168.994140625 288.48828125 197.642578125 287.59375 219.608398438 244.28125 c 1
 231.797851562 273.610351562 268.880859375 288.48828125 309.71875 288.48828125 c 0
 340.470703125 288.48828125 404.862304688 276.85546875 404.862304688 191.838867188 c 2
 404.985351562 144.56640625 l 1
 404.985351562 48.8046875 l 1
90.4677734375 147.537109375 m 1
 91.7060546875 148.711914062 l 1
 88.9208984375 154.033203125 l 1
 87.3740234375 154.033203125 l 1
 86.0751953125 170.086914062 l 1
 85.8271484375 168.354492188 l 1
 83.78515625 169.282226562 l 1
 84.033203125 166.435546875 l 1
 87.6220703125 148.8359375 l 1
 90.4677734375 147.537109375 l 1
EndSplineSet
Validated: 33
EndChar

StartChar: n
Encoding: 110 110 84
Width: 299
VWidth: 0
Flags: W
HStem: -0.0419922 23.3447<98.619 111.863 272.942 282.287> 230.731 57.7568<109.818 197.481>
VStem: 35.042 58.0732<61.9844 143.288> 210.767 59.5859<49.6846 150.603>
LayerCount: 2
Fore
SplineSet
270.352539062 49.6845703125 m 1
 270.352539062 49.6845703125 271.919921875 23.3125 282.287109375 23.3125 c 1
 282.287109375 0.01953125 l 1
 194.865234375 0.01953125 l 1
 194.865234375 5.8974609375 l 1
 194.865234375 5.8974609375 209.962890625 23.6220703125 210.766601562 49.17578125 c 2
 210.766601562 63.345703125 l 1
 210.766601562 150.602539062 l 1
 210.766601562 150.602539062 219.319335938 230.731445312 152.494140625 230.731445312 c 0
 88.08203125 230.731445312 93.1767578125 143.102539062 93.1767578125 143.102539062 c 1
 93.115234375 143.288085938 l 1
 93.115234375 61.984375 l 1
 93.115234375 61.984375 94.4140625 23.302734375 111.86328125 23.302734375 c 1
 111.86328125 -0.0419921875 l 1
 16.912109375 -0.0419921875 l 1
 16.912109375 22.6689453125 l 1
 16.912109375 22.6689453125 35.0419921875 26.0966796875 35.0419921875 62.4169921875 c 2
 35.0419921875 73.7880859375 l 1
 35.0419921875 247.856445312 l 1
 35.0419921875 247.856445312 34.4013671875 276.3203125 20.9482421875 285.208984375 c 1
 87.2919921875 298.202148438 l 1
 106.287109375 298.263671875 l 1
 106.287109375 298.263671875 90.337890625 294.056640625 90.337890625 277.288085938 c 2
 90.337890625 267.209960938 l 1
 108.095703125 287.443359375 130.219726562 288.48828125 162.765625 288.48828125 c 0
 227.919921875 288.48828125 270.09765625 242.879882812 270.228515625 192.71875 c 6
 270.352539062 154.247070312 l 1
 270.352539062 49.6845703125 l 1
86.2470703125 152.81640625 m 1
 87.484375 154.053710938 l 1
 84.7001953125 159.375 l 1
 83.1533203125 159.375 l 1
 81.853515625 157.828125 l 1
 81.6064453125 156.095703125 l 1
 79.564453125 157.024414062 l 1
 79.8115234375 154.177734375 l 1
 83.462890625 154.177734375 l 1
 86.2470703125 152.81640625 l 1
EndSplineSet
Validated: 33
EndChar

StartChar: o
Encoding: 111 111 85
Width: 343
VWidth: 0
Flags: W
HStem: 0.158203 57.7568<115.651 230.315> 236.308 55.7764<119.734 226.857>
VStem: 16.8369 71.4102<85.6651 204.461> 257.489 68.874<86.23 205.771>
LayerCount: 2
Fore
SplineSet
171.599609375 292.083984375 m 4
 252.22265625 292.083984375 326.36328125 240.240234375 326.36328125 146.12109375 c 4
 326.36328125 42.240234375 252.22265625 0.158203125 171.599609375 0.158203125 c 4
 90.9765625 0.158203125 16.8369140625 52.7998046875 16.8369140625 146.12109375 c 4
 16.8369140625 238.48046875 90.9765625 292.083984375 171.599609375 292.083984375 c 4
172.404296875 57.9150390625 m 4
 226.16015625 57.9150390625 257.489257812 98.5595703125 257.489257812 147.111328125 c 4
 257.489257812 194.48046875 221.759765625 236.307617188 171.599609375 236.307617188 c 4
 123.200195312 236.307617188 88.2470703125 190.080078125 88.2470703125 146.12109375 c 4
 88.2470703125 102.080078125 115.280273438 57.9150390625 172.404296875 57.9150390625 c 4
EndSplineSet
Validated: 1
EndChar

StartChar: p
Encoding: 112 112 86
Width: 321
VWidth: 0
Flags: W
HStem: 236.134 52.1543<114.807 219.475>
VStem: 29.6348 59.7295<-104.359 -53.2441 -34.5576 25.0576 82.1525 210.371> 247.606 57.2412<82.7489 207.735>
LayerCount: 2
Fore
SplineSet
171.741210938 288.288085938 m 0
 250.18359375 288.288085938 304.786132812 235.694335938 304.84765625 139.911132812 c 0
 304.84765625 52.5439453125 251.240234375 -6.16015625 160.046875 0.259765625 c 0
 136.16015625 1.94140625 111.639648438 3.7109375 89.3642578125 25.0576171875 c 1
 89.3642578125 -41.42578125 l 1
 85.8994140625 -39.13671875 l 1
 83.1767578125 -34.5576171875 l 1
 80.640625 -36.84765625 l 1
 77.4228515625 -36.84765625 l 1
 77.17578125 -41.7978515625 l 1
 79.03125 -40.126953125 l 1
 79.279296875 -43.0966796875 l 1
 80.455078125 -45.6953125 l 1
 85.28125 -45.6953125 l 1
 85.7138671875 -49.2841796875 l 1
 90.044921875 -53.244140625 l 1
 90.044921875 -109.556640625 l 2
 90.044921875 -138.373046875 105.142578125 -172.091796875 105.142578125 -172.091796875 c 1
 88.126953125 -172.029296875 l 1
 13.361328125 -149.569335938 l 1
 29.38671875 -137.0703125 29.634765625 -104.359375 29.634765625 -104.359375 c 1
 29.634765625 202.453125 l 1
 29.634765625 237.721679688 l 1
 29.634765625 237.721679688 29.7587890625 237.784179688 29.8818359375 237.969726562 c 2
 29.3251953125 237.721679688 l 1
 29.3251953125 237.721679688 26.912109375 260.69140625 15.9599609375 258.7734375 c 1
 11.072265625 262.547851562 l 1
 52.3291015625 290.88671875 l 1
 86.8896484375 290.88671875 l 1
 86.8896484375 269.147460938 l 1
 110.440429688 282.48046875 131.522460938 288.288085938 168.213867188 288.288085938 c 1
 168.213867188 288.225585938 l 2
 169.389648438 288.288085938 170.565429688 288.288085938 171.741210938 288.288085938 c 0
166.9765625 54.400390625 m 0
 214.719726562 54.400390625 247.606445312 95.0400390625 247.606445312 139.911132812 c 0
 247.606445312 198.879882812 216.040039062 236.133789062 160.287109375 236.133789062 c 0
 126.103515625 236.133789062 89.8662109375 203.280273438 89.8662109375 140.791015625 c 0
 89.8662109375 108.240234375 111.759765625 54.400390625 166.9765625 54.400390625 c 0
EndSplineSet
Validated: 33
EndChar

StartChar: q
Encoding: 113 113 87
Width: 318
VWidth: 0
Flags: W
HStem: -173.017 21G<259.724 292.456> 0.196289 58.4785<108.414 214.486> 235.204 52.0303<107.733 215.781>
VStem: 19.6143 58.6924<87.3335 206.954> 233.612 61.9854<-100.251 -55.5605 -36.9355 22.292 77.7929 218.356>
LayerCount: 2
Fore
SplineSet
363.845703125 -88.94921875 m 1
 365.825195312 -89.3203125 l 1
 361.803710938 -101.818359375 l 2
 355.548828125 -121.2578125 334.764648438 -140.600585938 334.764648438 -140.600585938 c 1
 292.456054688 -165.956054688 l 1
 259.78515625 -173.016601562 l 1
 259.723632812 -172.892578125 l 1
 259.228515625 -173.078125 l 1
 227.315429688 -173.139648438 l 1
 227.315429688 -173.139648438 233.612304688 -150.940429688 233.612304688 -122.168945312 c 2
 233.612304688 -55.560546875 l 1
 237.943359375 -51.662109375 l 1
 238.376953125 -48.0732421875 l 1
 243.203125 -48.0732421875 l 1
 244.31640625 -45.474609375 l 1
 244.564453125 -42.5048828125 l 1
 246.420898438 -44.11328125 l 1
 246.172851562 -39.2255859375 l 1
 242.956054688 -39.2255859375 l 1
 240.418945312 -36.935546875 l 1
 237.696289062 -41.5146484375 l 1
 234.29296875 -43.8037109375 l 1
 234.29296875 22.2919921875 l 1
 215.599609375 6.16015625 187.7421875 0.24609375 163.920898438 0.1962890625 c 0
 69.51953125 0 19.6142578125 52.294921875 19.6142578125 139.415039062 c 0
 19.6142578125 234.826171875 73.919921875 287.234375 152.2265625 287.234375 c 0
 153.33984375 287.234375 154.515625 287.171875 155.69140625 287.171875 c 2
 155.69140625 287.234375 l 1
 224.400390625 287.234375 236.706054688 264.635742188 236.706054688 264.635742188 c 1
 236.706054688 289.89453125 l 1
 258.004882812 289.89453125 l 1
 305.297851562 261.618164062 l 1
 300.41015625 257.84375 l 1
 295.6796875 253.440429688 295.907226562 236.854492188 295.907226562 236.854492188 c 1
 295.349609375 237.1015625 l 2
 295.53515625 236.977539062 295.59765625 236.854492188 295.59765625 236.854492188 c 1
 295.59765625 201.708984375 l 1
 295.59765625 -100.250976562 l 1
 295.59765625 -100.250976562 295.721679688 -104.149414062 303.517578125 -111.822265625 c 1
 312.1796875 -106.376953125 315.150390625 -101.241210938 315.150390625 -101.241210938 c 1
 364.650390625 -88.1240234375 363.845703125 -88.94921875 363.845703125 -88.94921875 c 1
156.928710938 58.6748046875 m 0
 205.919921875 58.6748046875 239.071289062 92.400390625 239.071289062 142.0546875 c 0
 239.071289062 203.280273438 208.559570312 235.204101562 164.498046875 235.204101562 c 0
 99.4404296875 235.204101562 78.306640625 183.919921875 78.306640625 142.934570312 c 0
 78.306640625 95.0400390625 120.559570312 58.6748046875 156.928710938 58.6748046875 c 0
EndSplineSet
Validated: 33
EndChar

StartChar: r
Encoding: 114 114 88
Width: 246
VWidth: 0
Flags: W
HStem: -0.0117188 25.5195<93.0015 103.478> 245.391 48.9229<95.9667 144.837>
VStem: 32.0801 56.0312<60.9004 172.922 183.502 237.025> 200.429 27.5684<197.624 215.861>
LayerCount: 2
Fore
SplineSet
196.950195312 273.40625 m 1
 196.950195312 273.40625 230.209960938 247.666992188 228.92578125 220.668945312 c 2
 228.92578125 220.668945312 228.92578125 207.729492188 227.997070312 205.564453125 c 0
 227.069335938 203.3984375 200.428710938 175.465820312 200.428710938 175.465820312 c 1
 192.55859375 241.120117188 144.836914062 245.390625 144.836914062 245.390625 c 1
 93.998046875 245.390625 88.73046875 211.200195312 88.73046875 196.9296875 c 1
 88.73046875 183.501953125 l 1
 84.08984375 181.274414062 l 1
 83.5947265625 179.233398438 l 1
 78.458984375 179.233398438 l 1
 77.2216796875 177.748046875 l 1
 76.974609375 176.077148438 l 1
 74.994140625 177.005859375 l 1
 75.2421875 174.220703125 l 1
 78.70703125 174.220703125 l 1
 81.4296875 172.921875 l 1
 84.3994140625 175.520507812 l 1
 88.111328125 176.8203125 l 1
 88.111328125 60.900390625 l 1
 88.111328125 60.900390625 91.3583984375 25.51953125 103.477539062 25.5078125 c 1
 103.477539062 -0.01171875 l 1
 18.1513671875 -0.01171875 l 1
 18.1513671875 25.755859375 l 1
 18.1513671875 25.755859375 31.2138671875 25.87890625 32.080078125 61.271484375 c 2
 32.080078125 80.8857421875 l 1
 32.080078125 270.505859375 l 1
 32.080078125 270.505859375 32.3984375 287.759765625 17.4384765625 292.587890625 c 1
 66.5107421875 302.5703125 l 1
 105.00390625 302.6328125 l 1
 105.00390625 302.6328125 88.7919921875 292.388671875 88.7919921875 276.053710938 c 2
 88.7919921875 272.086914062 l 1
 104.5703125 289.844726562 130.078125 294.313476562 144.1015625 294.313476562 c 0
 172.440429688 294.313476562 196.950195312 273.40625 196.950195312 273.40625 c 1
EndSplineSet
Validated: 33
EndChar

StartChar: s
Encoding: 115 115 89
Width: 227
VWidth: 0
Flags: W
HStem: 235.448 40.2051<170.049 196.965> 267.567 20G<50.8877 76.5352>
VStem: 17.0391 193.531
LayerCount: 2
Fore
SplineSet
210.5703125 91.0732421875 m 1xa0
 210.5703125 91.0732421875 215.150390625 66.8798828125 189.181640625 29.8994140625 c 1
 189.181640625 29.8994140625 166.563476562 -2.193359375 107.47265625 0.4052734375 c 1
 107.47265625 0.4052734375 36.900390625 0.4404296875 17.0390625 39.978515625 c 1
 17.0390625 85.4833984375 l 1
 44.9033203125 85.4833984375 l 1
 44.9033203125 85.4833984375 55.8701171875 53.6796875 105.389648438 50.888671875 c 1
 105.389648438 50.888671875 160.692382812 51.0400390625 160.692382812 87.498046875 c 1
 160.692382812 87.498046875 167.06640625 116.16015625 84.8740234375 130.047851562 c 1
 84.8740234375 130.047851562 88.4013671875 138.462890625 102.508789062 145.516601562 c 1
 93.537109375 145.516601562 l 1
 88.0302734375 140.442382812 l 1
 84.1318359375 140.813476562 l 1
 81.7802734375 136.482421875 l 1
 75.53125 136.111328125 l 1
 75.53125 136.111328125 23.7763671875 158.400390625 23.7763671875 217.614257812 c 1
 23.7763671875 217.614257812 25.240234375 271.108398438 76.53515625 287.567382812 c 1x60
 76.53515625 287.567382812 132.3671875 308.94140625 196.96484375 275.653320312 c 1
 196.96484375 235.448242188 l 1
 170.048828125 235.448242188 l 1
 170.048828125 235.448242188 96.666015625 271.040039062 75.5458984375 218.240234375 c 1
 75.5458984375 218.240234375 64.9794921875 188.729492188 115.43359375 168.41015625 c 2
 115.43359375 168.41015625 123.200195312 165.440429688 168.364257812 154.990234375 c 1
 168.364257812 154.990234375 209.305664062 145.200195312 210.5703125 91.0732421875 c 1xa0
EndSplineSet
Validated: 33
EndChar

StartChar: t
Encoding: 116 116 90
Width: 257
VWidth: 0
Flags: W
HStem: -0.166016 22.6602<144.954 153.202> 257.248 44.9004<27.9258 81.4619 144.705 172.988>
VStem: 82.0322 54.2441<93.293 257.619 303.111 336.159>
LayerCount: 2
Fore
SplineSet
222.921875 309.484375 m 2
 222.674804688 309.669921875 222.426757812 309.731445312 222.426757812 309.731445312 c 1
 222.921875 309.484375 l 2
222.921875 309.484375 m 2
 225.891601562 307.999023438 l 1
 212.588867188 276.8828125 l 1
 203.016601562 260.48046875 172.98828125 259.337890625 172.98828125 259.337890625 c 1
 136.461914062 259.104492188 l 1
 136.276367188 93.29296875 l 1
 136.276367188 93.29296875 139.919921875 22.494140625 153.202148438 22.494140625 c 1
 153.202148438 -0.166015625 l 1
 63.96484375 -0.166015625 l 1
 63.96484375 21.1669921875 l 1
 63.96484375 21.1669921875 82.0322265625 24.6396484375 82.0322265625 94.09765625 c 2
 82.0322265625 128.5 l 1
 82.2802734375 257.619140625 l 1
 68.419921875 257.248046875 l 1
 8.1884765625 257.248046875 l 1
 8.1884765625 273.734375 l 1
 27.92578125 302.1484375 l 1
 81.4619140625 302.1484375 l 1
 81.4619140625 336.159179688 l 1
 81.4619140625 336.159179688 118.270507812 355.51953125 118.270507812 376.790039062 c 1
 137.465820312 351.359375 l 1
 137.403320312 303.111328125 l 1
 142.416015625 305.771484375 144.705078125 307.9375 144.705078125 307.9375 c 1
 232.443359375 303.234375 225.025390625 308.247070312 222.921875 309.484375 c 2
EndSplineSet
Validated: 37
EndChar

StartChar: u
Encoding: 117 117 91
Width: 272
VWidth: 0
Flags: W
HStem: 0.219727 52.1885<134.712 179.495> 268.503 19.7998G<16.5586 91.9355 181.943 256.241>
VStem: 27.2627 53.9072<97.5226 254.637> 192.71 52.7656<99.8389 103.428 103.52 254.836>
LayerCount: 2
Fore
SplineSet
181.943359375 288.502929688 m 1
 256.241210938 288.365234375 l 1
 256.241210938 271.280273438 l 1
 256.241210938 271.280273438 245.104492188 266.516601562 245.475585938 248.7578125 c 0
 245.846679688 231 245.227539062 103.427734375 245.227539062 103.427734375 c 1
 245.227539062 99.8388671875 l 1
 242.504882812 94.8271484375 l 1
 245.227539062 93.9609375 l 1
 245.227539062 93.9609375 242 0.4599609375 131.495117188 0.2197265625 c 0
 29.919921875 0 27.2626953125 97.42578125 27.2626953125 97.42578125 c 1
 27.2626953125 97.42578125 26.953125 230.938476562 27.32421875 248.696289062 c 0
 27.6962890625 266.454101562 16.55859375 271.21875 16.55859375 271.21875 c 1
 16.55859375 288.302734375 l 1
 91.935546875 288.302734375 l 1
 91.935546875 272.146484375 l 1
 80.798828125 267.815429688 81.169921875 254.63671875 81.169921875 254.63671875 c 1
 81.169921875 123.130859375 l 2
 81.169921875 51.8515625 134.711914062 52.408203125 134.711914062 52.408203125 c 1
 181.61328125 52.408203125 189.4921875 88.1103515625 192.090820312 109.147460938 c 0
 192.276367188 113.416992188 192.461914062 117.872070312 192.709960938 122.512695312 c 2
 192.524414062 129.009765625 l 1
 192.709960938 254.8359375 l 1
 192.709960938 254.8359375 193.081054688 268.014648438 181.943359375 272.346679688 c 1
 181.943359375 288.502929688 l 1
EndSplineSet
Validated: 33
EndChar

StartChar: v
Encoding: 118 118 92
Width: 325
VWidth: 0
Flags: W
HStem: 0.219727 294.058
VStem: 22.7188 280.163
LayerCount: 2
Fore
SplineSet
206.604492188 294.27734375 m 1
 206.604492188 294.215820312 l 1
 302.881835938 294.215820312 l 1
 302.881835938 280.630859375 l 1
 302.881835938 280.630859375 286.237304688 262.666015625 268.602539062 219.724609375 c 2
 250.040039062 177.092773438 l 1
 252.08203125 184.084960938 l 1
 249.854492188 183.713867188 l 1
 251.586914062 185.5078125 l 1
 253.196289062 191.138671875 l 1
 252.577148438 189.591796875 l 1
 252.020507812 188.106445312 l 1
 252.020507812 188.106445312 250.411132812 187.735351562 249.236328125 187.735351562 c 0
 248.060546875 187.735351562 252.020507812 189.40625 252.020507812 189.40625 c 1
 249.978515625 189.40625 l 1
 249.978515625 200.543945312 l 1
 248.18359375 201.719726562 l 1
 251.772460938 189.282226562 246.389648438 182.909179688 246.389648438 182.909179688 c 1
 247.998046875 180.9296875 l 1
 247.998046875 178.94921875 l 1
 249.916992188 177.155273438 l 1
 184.693359375 0.2197265625 l 1
 145.973632812 0.2197265625 l 1
 54.583984375 218.116210938 l 1
 54.583984375 218.116210938 33.6083984375 274.2578125 22.71875 281.806640625 c 1
 22.71875 294.33984375 l 1
 118.99609375 294.33984375 l 1
 118.93359375 281.868164062 l 1
 118.93359375 281.868164062 90.966796875 261.3046875 118.129882812 196.70703125 c 2
 163.45703125 78.072265625 l 1
 166.34375 78.072265625 l 1
 215.947265625 221.890625 l 1
 215.947265625 221.890625 231.848632812 272.833984375 206.48046875 281.1875 c 1
 206.604492188 294.27734375 l 1
EndSplineSet
Validated: 37
EndChar

StartChar: w
Encoding: 119 119 93
Width: 404
VWidth: 0
Flags: W
HStem: 0.158203 21G<110.706 154.352 253.268 293.678> 224.73 15.7295<156.296 165.756 239.742 248.318>
VStem: 156.173 92.2686<178.536 240.46>
LayerCount: 2
Fore
SplineSet
305.903320312 294.139648438 m 1
 393.346679688 294.139648438 l 1
 393.346679688 278.966796875 l 1
 384.436523438 271.356445312 367.358398438 227.47265625 367.358398438 227.47265625 c 1
 286.5703125 0.158203125 l 1
 261.59375 0.158203125 l 1
 220.701171875 98.3876953125 l 1
 222.248046875 100.182617188 l 1
 222.248046875 102.162109375 l 1
 223.547851562 104.142578125 l 1
 223.547851562 104.142578125 219.154296875 110.577148438 222.124023438 123.014648438 c 1
 220.701171875 121.838867188 l 1
 220.701171875 110.701171875 l 1
 219.030273438 110.701171875 l 1
 219.030273438 110.701171875 222.248046875 109.030273438 221.3203125 109.030273438 c 0
 220.330078125 109.030273438 219.030273438 109.40234375 219.030273438 109.40234375 c 1
 218.59765625 110.88671875 l 1
 218.102539062 112.43359375 l 1
 219.40234375 106.802734375 l 1
 220.825195312 105.008789062 l 1
 219.030273438 105.379882812 l 1
 220.701171875 98.326171875 l 1
 204.16015625 138.9921875 l 1
 187.619140625 98.326171875 l 1
 189.2890625 105.379882812 l 1
 187.495117188 105.008789062 l 1
 188.91796875 106.802734375 l 1
 190.217773438 112.43359375 l 1
 189.72265625 110.88671875 l 1
 189.2890625 109.40234375 l 1
 189.2890625 109.40234375 187.927734375 109.030273438 187 109.030273438 c 0
 186.072265625 109.030273438 189.2890625 110.701171875 189.2890625 110.701171875 c 1
 187.619140625 110.701171875 l 1
 187.619140625 121.838867188 l 1
 186.1953125 123.014648438 l 1
 189.166015625 110.577148438 184.772460938 104.142578125 184.772460938 104.142578125 c 1
 186.072265625 102.162109375 l 1
 186.072265625 100.182617188 l 1
 187.619140625 98.3876953125 l 1
 145.846679688 0.158203125 l 1
 117.349609375 0.158203125 l 1
 41.8408203125 227.47265625 l 1
 41.8408203125 227.47265625 27.2802734375 267.51953125 11.4541015625 278.966796875 c 1
 11.4541015625 294.139648438 l 1
 98.7109375 294.139648438 l 1
 98.6494140625 279.028320312 l 1
 98.6494140625 279.028320312 75.87890625 270.78515625 98.0302734375 206.002929688 c 2
 131.51171875 108.177734375 l 1
 138.194335938 108.177734375 l 1
 163.907226562 178.509765625 l 1
 163.907226562 178.509765625 181.556640625 214.719726562 156.172851562 224.73046875 c 1
 156.295898438 240.459960938 l 1
 158.15234375 240.459960938 l 1
 246.461914062 240.459960938 l 1
 248.318359375 240.459960938 l 1
 248.44140625 224.73046875 l 1
 225.556640625 213.83984375 240.70703125 178.509765625 240.70703125 178.509765625 c 1
 267.362304688 109.938476562 l 1
 274.043945312 109.938476562 l 1
 306.583984375 206.002929688 l 2
 328.796875 270.78515625 305.96484375 279.028320312 305.96484375 279.028320312 c 1
 305.903320312 294.139648438 l 1
EndSplineSet
Validated: 33
EndChar

StartChar: x
Encoding: 120 120 94
Width: 302
VWidth: 0
Flags: W
HStem: 0.158203 14.2109<103.885 113.792> 277.963 14.2109<15.0391 27.6515 196.271 207.696>
VStem: 17.04 267.3
LayerCount: 2
Fore
SplineSet
254.94921875 40.974609375 m 1
 254.94921875 40.974609375 271.216796875 14.9599609375 284.33984375 16.0048828125 c 1
 284.33984375 0.158203125 l 1
 189.567382812 0.158203125 l 1
 189.629882812 14.939453125 l 1
 189.629882812 14.939453125 210.60546875 25.939453125 190.43359375 52.2978515625 c 2
 156.209960938 102.4375 l 1
 150.05078125 102.4375 l 1
 104.696289062 38.87109375 l 1
 104.696289062 38.87109375 91.697265625 23.759765625 113.915039062 14.369140625 c 1
 113.791992188 0.158203125 l 1
 17.0400390625 0.158203125 l 1
 17.0400390625 15.55859375 l 1
 17.0400390625 15.55859375 24.451171875 17.21484375 41.65234375 40.046875 c 2
 117.56640625 143.646484375 l 1
 46.251953125 251.418945312 l 1
 46.251953125 251.418945312 25.697265625 278.080078125 15.0390625 278.086914062 c 1
 15.0390625 292.173828125 l 1
 106.291015625 292.173828125 l 1
 106.229492188 278.272460938 l 1
 106.229492188 278.272460938 85.25390625 281.352539062 105.424804688 254.994140625 c 2
 146.702148438 182.208007812 l 1
 141.346679688 182.083984375 l 1
 138.5 179.98046875 l 1
 128.415039062 179.98046875 l 1
 128.04296875 177.62890625 l 1
 121.91796875 174.96875 l 1
 132.498046875 173.916992188 l 1
 134.540039062 176.020507812 l 1
 142.3984375 175.463867188 l 1
 145.801757812 177.815429688 l 1
 144.440429688 172.802734375 l 1
 155.268554688 190.774414062 l 1
 157.372070312 190.774414062 l 1
 205.366210938 253.4609375 l 1
 205.366210938 253.4609375 221.056640625 270.16015625 196.147460938 277.962890625 c 1
 196.270507812 292.173828125 l 1
 287.680664062 292.173828125 l 1
 287.680664062 277.653320312 l 1
 287.680664062 277.653320312 275.870117188 275.1171875 258.66796875 252.28515625 c 2
 182.754882812 146.107421875 l 1
 254.94921875 40.974609375 l 1
EndSplineSet
Validated: 33
EndChar

StartChar: y
Encoding: 121 121 95
Width: 365
VWidth: 0
Flags: W
VStem: 17.1963 40.373<-96.5417 -68.8516>
LayerCount: 2
Fore
SplineSet
244.2734375 293.524414062 m 1
 244.2734375 293.462890625 l 1
 345.013671875 293.462890625 l 1
 345.013671875 277.23828125 l 1
 345.013671875 277.23828125 328.369140625 256.633789062 310.672851562 213.692382812 c 2
 292.110351562 175.3984375 l 1
 294.15234375 182.390625 l 1
 291.924804688 182.01953125 l 1
 293.657226562 183.813476562 l 1
 295.265625 189.444335938 l 1
 294.647460938 187.897460938 l 1
 294.08984375 186.412109375 l 1
 294.08984375 186.412109375 292.481445312 186.041015625 291.305664062 186.041015625 c 0
 290.129882812 186.041015625 294.08984375 187.711914062 294.08984375 187.711914062 c 1
 292.047851562 187.711914062 l 1
 292.047851562 198.848632812 l 1
 290.25390625 200.024414062 l 1
 293.842773438 187.649414062 288.459960938 181.21484375 288.459960938 181.21484375 c 1
 290.068359375 179.234375 l 1
 290.068359375 177.254882812 l 1
 291.986328125 175.459960938 l 1
 172.71875 -84.48046875 l 2
 99.126953125 -263.509765625 14.408203125 -105.770507812 11.38671875 -120.172851562 c 1
 17.1962890625 -68.8515625 l 1
 57.5693359375 -50.7578125 l 1
 79.2001953125 -187.440429688 176.239257812 0 148.092773438 43.59765625 c 1
 60.4501953125 212.083007812 l 1
 60.4501953125 212.083007812 30.736328125 270.864257812 19.7841796875 278.413085938 c 1
 19.7841796875 293.586914062 l 1
 129.26171875 293.586914062 l 1
 129.200195312 278.475585938 l 1
 129.200195312 278.475585938 101.232421875 268.47265625 128.395507812 203.8125 c 2
 186.984375 91.2763671875 l 1
 191.631835938 91.2763671875 l 1
 253.6171875 215.795898438 l 1
 253.6171875 215.795898438 276.3203125 264 244.150390625 277.794921875 c 1
 244.2734375 293.524414062 l 1
EndSplineSet
Validated: 37
EndChar

StartChar: z
Encoding: 122 122 96
Width: 302
VWidth: 0
Flags: W
HStem: 0.21582 57.2725<100.479 133.904 144.032 216.913> 237.581 54.8945<75.9277 217.753>
VStem: 258.891 25.1182<61.0303 71.8564>
LayerCount: 2
Fore
SplineSet
284.008789062 292.475585938 m 1
 283.947265625 292.475585938 l 1
 283.947265625 229.28515625 l 1
 100.478515625 58.28515625 l 1
 133.904296875 58.28515625 l 1
 136.016601562 53.1328125 l 1
 137.942382812 52.580078125 l 1
 137.942382812 46.8759765625 l 1
 139.37109375 45.5263671875 l 1
 140.986328125 45.28125 l 1
 140.1171875 43.1337890625 l 1
 142.7890625 43.3798828125 l 1
 142.7890625 47.1826171875 l 1
 144.032226562 50.1884765625 l 1
 141.545898438 53.439453125 l 1
 140.303710938 57.48828125 l 1
 216.913085938 57.48828125 l 1
 216.913085938 57.48828125 258.25 56.3203125 258.890625 71.8564453125 c 1
 284.008789062 76.2568359375 l 1
 284.008789062 0.2158203125 l 1
 24.73828125 0.2158203125 l 1
 24.73828125 0.2158203125 24.73828125 0.2158203125 18.7109375 0.2158203125 c 1
 18.7109375 46.6630859375 l 1
 18.7109375 64.6357421875 l 1
 21.3212890625 66.7822265625 l 1
 217.752929688 238.194335938 l 1
 75.927734375 237.581054688 l 1
 75.927734375 237.581054688 46.4384765625 236.907226562 42.337890625 225.866210938 c 1
 18.7109375 222.307617188 l 1
 18.7109375 285.7890625 l 1
 18.7109375 292.475585938 l 1
 276.491210938 292.475585938 l 1
 284.008789062 292.475585938 l 1
EndSplineSet
Validated: 37
EndChar

StartChar: at
Encoding: 64 64 97
Width: 586
VWidth: 0
Flags: W
HStem: 0.0986328 21G<293.161 326.959 337.457 439.903>
VStem: 342.908 54.0723<90.6699 161.001>
LayerCount: 2
Fore
SplineSet
410.056640625 0.0986328125 m 2
 385.33203125 54.9755859375 l 1
 438.788085938 54.9755859375 466.545898438 108.048828125 436.435546875 214.712890625 c 0
 411.83984375 301.83984375 337.228515625 335.188476562 260.435546875 314.215820312 c 0
 183.643554688 293.244140625 144.3203125 242.879882812 129.744140625 171.255859375 c 0
 110.482421875 76.6025390625 131.265625 -60.09375 302.337890625 -50.462890625 c 0
 325.780273438 -49.1318359375 321.53515625 -41.71875 324.1328125 -46.0908203125 c 0
 326.73046875 -50.462890625 318.952148438 -81.2841796875 311.094726562 -87.3662109375 c 0
 303.23828125 -93.51171875 267.010742188 -106.2890625 202.447265625 -82.7197265625 c 0
 137.8828125 -59.150390625 82.337890625 3.3857421875 76.76171875 77.70703125 c 0
 67.193359375 206.010742188 99.4404296875 266.639648438 174.899414062 324.311523438 c 0
 234.583984375 369.928710938 322.959960938 381.040039062 396.560546875 345.262695312 c 0
 447.961914062 320.276367188 469.040039062 270.16015625 481.646484375 225.990234375 c 0
 534.592773438 40.4765625 444.400390625 0 413.731445312 0.03515625 c 0
 412.400390625 0.037109375 411.323242188 0.0986328125 410.056640625 0.0986328125 c 2
443.833984375 26.34765625 m 1
 445.256835938 23.6865234375 l 1
 410.056640625 0.0986328125 l 1
 342.83984375 0.0986328125 l 1
 337.45703125 8.748046875 l 1
 337.704101562 26.044921875 l 1
 293.161132812 -0.3134765625 l 1
 293.161132812 -0.3134765625 234.959960938 -28.16015625 192.078125 20.5791015625 c 1
 192.078125 20.5791015625 158.338867188 59.3232421875 191.658203125 134.676757812 c 0
 210.3203125 176.879882812 277.4453125 191.162109375 277.4453125 191.162109375 c 1
 344.668945312 195.974609375 l 1
 344.668945312 195.974609375 353.759765625 262.240234375 248.28125 216.551757812 c 1
 230.399414062 200.896484375 l 1
 211.84375 198.154296875 l 1
 211.47265625 250.940429688 l 1
 211.47265625 250.940429688 340.559570312 330.879882812 395.014648438 224.099609375 c 1
 395.014648438 224.099609375 396.98046875 227.303710938 396.98046875 173.224609375 c 0
 396.98046875 119.146484375 396.98046875 46.009765625 396.98046875 46.009765625 c 1
 396.98046875 46.009765625 398.549804688 33.6015625 412.44921875 29.3173828125 c 0
 416.205078125 28.16015625 443.833984375 26.34765625 443.833984375 26.34765625 c 1
320.090820312 90.669921875 m 1
 342.908203125 90.669921875 l 1
 343.7890625 161.000976562 l 1
 293.298828125 160.692382812 307.874023438 140.362304688 307.874023438 140.362304688 c 1
 271.120117188 162.76171875 235.452148438 114.038085938 235.452148438 114.038085938 c 1
 220 11.4404296875 292.1640625 66.2294921875 292.1640625 66.2294921875 c 1
 320.090820312 90.669921875 l 1
EndSplineSet
Validated: 37
EndChar

StartChar: Edieresis
Encoding: 203 203 98
Width: 351
VWidth: 0
Flags: W
HStem: 0.450195 65.7666<140.414 247.923 247.962 301.586> 221.027 57.3652<166.578 186.46> 221.131 43.4092<123.451 166.572> 396.271 89.7734<264.951 328.793> 422.974 63.0713<177.097 214.889>
VStem: 45.0967 78.292<83.1335 221.131 264.54 328.855 347.418 418.49> 90.5098 67.1406<541.601 579.519> 192.59 67.1406<541.601 579.519>
LayerCount: 2
Fore
SplineSet
259.73046875 579.518554688 m 1x81
 259.73046875 541.600585938 l 1
 226.159179688 523.171875 l 1
 192.58984375 541.600585938 l 1
 192.58984375 579.518554688 l 1
 226.86328125 598.65234375 l 1
 259.73046875 579.518554688 l 1x81
157.650390625 579.518554688 m 1x83
 157.650390625 541.600585938 l 1
 124.079101562 523.171875 l 1
 90.509765625 541.600585938 l 1
 90.509765625 579.518554688 l 1
 124.783203125 598.65234375 l 1
 157.650390625 579.518554688 l 1x83
328.79296875 396.642578125 m 1
 306.73828125 396.271484375 l 1x95
 291.280273438 423.280273438 214.888671875 422.973632812 214.888671875 422.973632812 c 1
 177.096679688 422.973632812 l 1
 177.096679688 422.973632812 130.133789062 426.129882812 124.193359375 397.419921875 c 1
 124.193359375 347.41796875 l 1
 118.129882812 343.458007812 l 1
 117.510742188 339.807617188 l 1
 110.766601562 339.807617188 l 1
 109.158203125 337.146484375 l 1
 108.848632812 334.176757812 l 1
 106.311523438 335.84765625 l 1
 106.62109375 330.897460938 l 1
 111.076171875 330.897460938 l 1
 114.231445312 328.85546875 l 1
 115.778320312 329.96875 l 1
 118.500976562 333.186523438 l 1
 123.327148438 335.475585938 l 1
 123.388671875 264.540039062 l 1xad
 158.83984375 264.540039062 166.578125 278.392578125 166.578125 278.392578125 c 1
 265.3203125 272.799804688 289.61328125 282.786132812 289.61328125 282.786132812 c 1
 282.919921875 261.360351562 l 1
 275.443359375 243.680664062 l 2
 264.984375 221.4140625 186.459960938 221.02734375 186.459960938 221.02734375 c 1xc5
 123.451171875 221.130859375 l 1
 123.63671875 133.227539062 l 2
 125.18359375 115.592773438 134.432617188 66.216796875 189.904296875 66.216796875 c 0
 279.400390625 66.216796875 301.602539062 85.2607421875 301.602539062 85.2607421875 c 1
 328.79296875 85.2607421875 l 1
 328.79296875 0.326171875 l 1
 301.321289062 0.388671875 247.922851562 0.2646484375 247.922851562 0.2646484375 c 1
 127.940429688 0.4501953125 l 1
 127.81640625 0.326171875 l 1
 22.326171875 0.326171875 l 1
 22.326171875 51.765625 l 1
 22.326171875 51.765625 43.1162109375 51.33203125 44.97265625 110.546875 c 2
 45.0966796875 364.474609375 l 1
 45.0966796875 386.935546875 l 2
 44.2919921875 397.639648438 42.25 410.32421875 37.30078125 420.41015625 c 0
 33.958984375 426.349609375 29.1943359375 431.91796875 22.326171875 435.754882812 c 1
 22.326171875 436.125976562 l 1
 22.326171875 485.673828125 l 1
 22.326171875 486.044921875 l 1
 55.86328125 486.044921875 l 1
 146.426757812 486.044921875 l 1xad
 328.79296875 486.044921875 l 1x95
 328.79296875 396.642578125 l 1
EndSplineSet
Validated: 33
EndChar

StartChar: AE
Encoding: 198 198 99
Width: 701
VWidth: 0
Flags: W
HStem: 0.450195 65.7666<493.252 600.761 600.8 654.424> 112.745 76.4668<239.352 275.441> 221.027 57.3652<519.416 539.298> 221.131 43.4092<476.289 519.41> 396.271 89.7734<617.789 681.631> 422.974 63.0713<529.935 567.727>
VStem: 397.839 78.6357<169.447 221.131 264.54 328.855 347.418 418.49>
LayerCount: 2
Fore
SplineSet
322.228515625 186.041015625 m 1xc2
 327.69140625 189.578125 l 2
 324.717773438 190.930664062 323.58984375 192.220703125 323.370117188 193.3203125 c 2
 318.709960938 186.041015625 l 1
 322.228515625 186.041015625 l 1xc2
681.630859375 396.642578125 m 1
 659.576171875 396.271484375 l 1xca
 644.118164062 423.280273438 567.7265625 422.973632812 567.7265625 422.973632812 c 1
 529.934570312 422.973632812 l 1
 529.934570312 422.973632812 482.971679688 426.129882812 477.03125 397.419921875 c 1
 477.03125 347.41796875 l 1
 470.967773438 343.458007812 l 1
 470.348632812 339.807617188 l 1
 463.604492188 339.807617188 l 1
 461.99609375 337.146484375 l 1
 461.686523438 334.176757812 l 1
 459.149414062 335.84765625 l 1
 459.458984375 330.897460938 l 1
 463.9140625 330.897460938 l 1
 467.069335938 328.85546875 l 1
 468.616210938 329.96875 l 1
 471.338867188 333.186523438 l 1
 476.165039062 335.475585938 l 1
 476.2265625 264.540039062 l 1xd6
 511.677734375 264.540039062 519.416015625 278.392578125 519.416015625 278.392578125 c 1
 618.158203125 272.799804688 642.451171875 282.786132812 642.451171875 282.786132812 c 1
 635.7578125 261.360351562 l 1
 628.28125 243.680664062 l 2
 617.822265625 221.4140625 539.297851562 221.02734375 539.297851562 221.02734375 c 1xe2
 476.2890625 221.130859375 l 1
 476.474609375 133.227539062 l 2
 478.021484375 115.592773438 487.270507812 66.216796875 542.7421875 66.216796875 c 0
 632.23828125 66.216796875 654.440429688 85.2607421875 654.440429688 85.2607421875 c 1
 681.630859375 85.2607421875 l 1
 681.630859375 0.326171875 l 1
 654.159179688 0.388671875 600.760742188 0.2646484375 600.760742188 0.2646484375 c 1
 480.778320312 0.4501953125 l 1
 480.654296875 0.326171875 l 1
 375.1640625 0.326171875 l 1
 375.1640625 0.56640625 l 1
 371.502929688 0.56640625 l 1
 371.502929688 28.9013671875 l 1
 371.502929688 28.9013671875 384.288085938 53.19140625 357.344726562 85.6435546875 c 2
 333.301757812 118.662109375 l 1
 307.040039062 111.28125 275.44140625 112.745117188 275.44140625 112.745117188 c 1
 148.163085938 109.452148438 l 1
 119.1640625 49.4560546875 l 1
 114.135742188 30.609375 121.213867188 28.9013671875 121.213867188 28.9013671875 c 1
 121.213867188 0.56640625 l 1
 105.071289062 0.56640625 l 1
 19.728515625 0.56640625 l 1
 19.728515625 29.5732421875 l 1
 23.8271484375 33.048828125 29.724609375 42.748046875 35.4990234375 53.603515625 c 2
 241.727539062 487.565429688 l 1
 397.838867188 169.447265625 l 1
 397.934570312 364.474609375 l 1
 397.934570312 386.935546875 l 2
 397.129882812 397.639648438 395.087890625 410.32421875 390.138671875 420.41015625 c 0
 386.796875 426.349609375 382.032226562 431.91796875 375.1640625 435.754882812 c 1
 375.1640625 436.125976562 l 1
 375.1640625 485.673828125 l 1
 375.1640625 486.044921875 l 1
 408.701171875 486.044921875 l 1
 499.264648438 486.044921875 l 1xd6
 681.630859375 486.044921875 l 1xca
 681.630859375 396.642578125 l 1
313.000976562 186.041015625 m 1
 314.166015625 194.458007812 l 1
 314.166015625 199.336914062 l 1
 304.108398438 200.435546875 l 1
 244.045898438 336.471679688 l 1
 221.401367188 281.211914062 l 2
 220.533203125 282.310546875 219.104492188 284.018554688 217.490234375 285.237304688 c 0
 214.9453125 287.189453125 212.08984375 298.534179688 208.922851562 286.154296875 c 1
 211.094726562 283.774414062 l 1
 210.412109375 281.211914062 l 1
 213.951171875 278.7109375 l 1
 216.434570312 270.35546875 l 1
 172.258789062 161.947265625 l 1
 216.154296875 167.986328125 237.616210938 191.712890625 237.616210938 191.712890625 c 1
 275.48828125 189.760742188 258.609375 189.08984375 279.40625 189.211914062 c 1
 293.794921875 177.623046875 l 1
 299.07421875 186.041015625 l 1
 313.000976562 186.041015625 l 1
EndSplineSet
Validated: 33
EndChar

StartChar: Ecircumflex
Encoding: 202 202 100
Width: 351
VWidth: 0
Flags: W
HStem: 0.450195 65.7666<140.414 247.923 247.962 301.586> 221.027 57.3652<166.578 186.46> 221.131 43.4092<123.451 166.572> 396.271 89.7734<264.951 328.793> 422.974 63.0713<177.097 214.889>
VStem: 45.0967 78.292<83.1335 221.131 264.54 328.855 347.418 418.49>
LayerCount: 2
Fore
SplineSet
205.581054688 542.150390625 m 5x84
 205.581054688 542.150390625 201.068359375 559.50390625 182.211914062 582.83203125 c 5
 161.951171875 564.29296875 156.967773438 545.09765625 156.967773438 545.09765625 c 5
 156.967773438 545.09765625 110.43359375 534.684570312 109.815429688 535.021484375 c 4
 105.857421875 537.182617188 171.012695312 627.765625 181.509765625 641.827148438 c 4
 181.875 642.557617188 182.240234375 643.314453125 182.6328125 644.12890625 c 6
 182.6328125 644.12890625 252.727539062 533.196289062 248.3203125 531.119140625 c 4
 247.67578125 530.810546875 205.581054688 542.150390625 205.581054688 542.150390625 c 5x84
328.79296875 396.642578125 m 1
 306.73828125 396.271484375 l 1x94
 291.280273438 423.280273438 214.888671875 422.973632812 214.888671875 422.973632812 c 1
 177.096679688 422.973632812 l 1
 177.096679688 422.973632812 130.133789062 426.129882812 124.193359375 397.419921875 c 1
 124.193359375 347.41796875 l 1
 118.129882812 343.458007812 l 1
 117.510742188 339.807617188 l 1
 110.766601562 339.807617188 l 1
 109.158203125 337.146484375 l 1
 108.848632812 334.176757812 l 1
 106.311523438 335.84765625 l 1
 106.62109375 330.897460938 l 1
 111.076171875 330.897460938 l 1
 114.231445312 328.85546875 l 1
 115.778320312 329.96875 l 1
 118.500976562 333.186523438 l 1
 123.327148438 335.475585938 l 1
 123.388671875 264.540039062 l 1xac
 158.83984375 264.540039062 166.578125 278.392578125 166.578125 278.392578125 c 1
 265.3203125 272.799804688 289.61328125 282.786132812 289.61328125 282.786132812 c 1
 282.919921875 261.360351562 l 1
 275.443359375 243.680664062 l 2
 264.984375 221.4140625 186.459960938 221.02734375 186.459960938 221.02734375 c 1xc4
 123.451171875 221.130859375 l 1
 123.63671875 133.227539062 l 2
 125.18359375 115.592773438 134.432617188 66.216796875 189.904296875 66.216796875 c 0
 279.400390625 66.216796875 301.602539062 85.2607421875 301.602539062 85.2607421875 c 1
 328.79296875 85.2607421875 l 1
 328.79296875 0.326171875 l 1
 301.321289062 0.388671875 247.922851562 0.2646484375 247.922851562 0.2646484375 c 1
 127.940429688 0.4501953125 l 1
 127.81640625 0.326171875 l 1
 22.326171875 0.326171875 l 1
 22.326171875 51.765625 l 1
 22.326171875 51.765625 43.1162109375 51.33203125 44.97265625 110.546875 c 2
 45.0966796875 364.474609375 l 1
 45.0966796875 386.935546875 l 2
 44.2919921875 397.639648438 42.25 410.32421875 37.30078125 420.41015625 c 0
 33.958984375 426.349609375 29.1943359375 431.91796875 22.326171875 435.754882812 c 1
 22.326171875 436.125976562 l 1
 22.326171875 485.673828125 l 1
 22.326171875 486.044921875 l 1
 55.86328125 486.044921875 l 1
 146.426757812 486.044921875 l 1xac
 328.79296875 486.044921875 l 1x94
 328.79296875 396.642578125 l 1
EndSplineSet
Validated: 33
EndChar

StartChar: Eacute
Encoding: 201 201 101
Width: 351
VWidth: 0
Flags: W
HStem: 0.450195 65.7666<140.414 247.923 247.962 301.586> 221.027 57.3652<166.578 186.46> 221.131 43.4092<123.451 166.572> 396.271 89.7734<264.951 328.793> 422.974 63.0713<177.097 214.889>
VStem: 45.0967 78.292<83.1335 221.131 264.54 328.855 347.418 418.49>
LayerCount: 2
Fore
SplineSet
226.338867188 633.3984375 m 1x84
 226.338867188 633.3984375 234.7578125 611.733398438 224.096679688 582.165039062 c 0
 214.719726562 556.16015625 186.662109375 546.763671875 186.662109375 546.763671875 c 2
 171.5078125 537.014648438 131.6875 533.169921875 131.6875 533.169921875 c 1
 203.734375 574.846679688 174.786132812 607.82421875 174.786132812 607.82421875 c 1
 185.131835938 637.23046875 l 1
 226.338867188 633.3984375 l 1x84
328.79296875 396.642578125 m 1
 306.73828125 396.271484375 l 1x94
 291.280273438 423.280273438 214.888671875 422.973632812 214.888671875 422.973632812 c 1
 177.096679688 422.973632812 l 1
 177.096679688 422.973632812 130.133789062 426.129882812 124.193359375 397.419921875 c 1
 124.193359375 347.41796875 l 1
 118.129882812 343.458007812 l 1
 117.510742188 339.807617188 l 1
 110.766601562 339.807617188 l 1
 109.158203125 337.146484375 l 1
 108.848632812 334.176757812 l 1
 106.311523438 335.84765625 l 1
 106.62109375 330.897460938 l 1
 111.076171875 330.897460938 l 1
 114.231445312 328.85546875 l 1
 115.778320312 329.96875 l 1
 118.500976562 333.186523438 l 1
 123.327148438 335.475585938 l 1
 123.388671875 264.540039062 l 1xac
 158.83984375 264.540039062 166.578125 278.392578125 166.578125 278.392578125 c 1
 265.3203125 272.799804688 289.61328125 282.786132812 289.61328125 282.786132812 c 1
 282.919921875 261.360351562 l 1
 275.443359375 243.680664062 l 2
 264.984375 221.4140625 186.459960938 221.02734375 186.459960938 221.02734375 c 1xc4
 123.451171875 221.130859375 l 1
 123.63671875 133.227539062 l 2
 125.18359375 115.592773438 134.432617188 66.216796875 189.904296875 66.216796875 c 0
 279.400390625 66.216796875 301.602539062 85.2607421875 301.602539062 85.2607421875 c 1
 328.79296875 85.2607421875 l 1
 328.79296875 0.326171875 l 1
 301.321289062 0.388671875 247.922851562 0.2646484375 247.922851562 0.2646484375 c 1
 127.940429688 0.4501953125 l 1
 127.81640625 0.326171875 l 1
 22.326171875 0.326171875 l 1
 22.326171875 51.765625 l 1
 22.326171875 51.765625 43.1162109375 51.33203125 44.97265625 110.546875 c 2
 45.0966796875 364.474609375 l 1
 45.0966796875 386.935546875 l 2
 44.2919921875 397.639648438 42.25 410.32421875 37.30078125 420.41015625 c 0
 33.958984375 426.349609375 29.1943359375 431.91796875 22.326171875 435.754882812 c 1
 22.326171875 436.125976562 l 1
 22.326171875 485.673828125 l 1
 22.326171875 486.044921875 l 1
 55.86328125 486.044921875 l 1
 146.426757812 486.044921875 l 1xac
 328.79296875 486.044921875 l 1x94
 328.79296875 396.642578125 l 1
EndSplineSet
Validated: 33
EndChar

StartChar: Egrave
Encoding: 200 200 102
Width: 351
VWidth: 0
Flags: W
HStem: 0.450195 65.7666<140.414 247.923 247.962 301.586> 221.027 57.3652<166.578 186.46> 221.131 43.4092<123.451 166.572> 396.271 89.7734<264.951 328.793> 422.974 63.0713<177.097 214.889>
VStem: 45.0967 78.292<83.1335 221.131 264.54 328.855 347.418 418.49>
LayerCount: 2
Fore
SplineSet
141.500976562 633.3984375 m 1x84
 141.500976562 633.3984375 133.08203125 611.733398438 143.743164062 582.165039062 c 0
 153.120117188 556.16015625 181.177734375 546.763671875 181.177734375 546.763671875 c 2
 196.33203125 537.014648438 236.15234375 533.169921875 236.15234375 533.169921875 c 1
 164.10546875 574.846679688 193.0546875 607.82421875 193.0546875 607.82421875 c 1
 182.708007812 637.23046875 l 1
 141.500976562 633.3984375 l 1x84
328.79296875 396.642578125 m 1
 306.73828125 396.271484375 l 1x94
 291.280273438 423.280273438 214.888671875 422.973632812 214.888671875 422.973632812 c 1
 177.096679688 422.973632812 l 1
 177.096679688 422.973632812 130.133789062 426.129882812 124.193359375 397.419921875 c 1
 124.193359375 347.41796875 l 1
 118.129882812 343.458007812 l 1
 117.510742188 339.807617188 l 1
 110.766601562 339.807617188 l 1
 109.158203125 337.146484375 l 1
 108.848632812 334.176757812 l 1
 106.311523438 335.84765625 l 1
 106.62109375 330.897460938 l 1
 111.076171875 330.897460938 l 1
 114.231445312 328.85546875 l 1
 115.778320312 329.96875 l 1
 118.500976562 333.186523438 l 1
 123.327148438 335.475585938 l 1
 123.388671875 264.540039062 l 1xac
 158.83984375 264.540039062 166.578125 278.392578125 166.578125 278.392578125 c 1
 265.3203125 272.799804688 289.61328125 282.786132812 289.61328125 282.786132812 c 1
 282.919921875 261.360351562 l 1
 275.443359375 243.680664062 l 2
 264.984375 221.4140625 186.459960938 221.02734375 186.459960938 221.02734375 c 1xc4
 123.451171875 221.130859375 l 1
 123.63671875 133.227539062 l 2
 125.18359375 115.592773438 134.432617188 66.216796875 189.904296875 66.216796875 c 0
 279.400390625 66.216796875 301.602539062 85.2607421875 301.602539062 85.2607421875 c 1
 328.79296875 85.2607421875 l 1
 328.79296875 0.326171875 l 1
 301.321289062 0.388671875 247.922851562 0.2646484375 247.922851562 0.2646484375 c 1
 127.940429688 0.4501953125 l 1
 127.81640625 0.326171875 l 1
 22.326171875 0.326171875 l 1
 22.326171875 51.765625 l 1
 22.326171875 51.765625 43.1162109375 51.33203125 44.97265625 110.546875 c 2
 45.0966796875 364.474609375 l 1
 45.0966796875 386.935546875 l 2
 44.2919921875 397.639648438 42.25 410.32421875 37.30078125 420.41015625 c 0
 33.958984375 426.349609375 29.1943359375 431.91796875 22.326171875 435.754882812 c 1
 22.326171875 436.125976562 l 1
 22.326171875 485.673828125 l 1
 22.326171875 486.044921875 l 1
 55.86328125 486.044921875 l 1
 146.426757812 486.044921875 l 1xac
 328.79296875 486.044921875 l 1x94
 328.79296875 396.642578125 l 1
EndSplineSet
Validated: 41
EndChar

StartChar: Adieresis
Encoding: 196 196 103
Width: 507
VWidth: 0
Flags: W
HStem: 0.566406 21G<27.6904 129.176 379.465 480.069> 112.745 76.4668<247.314 283.404> 467.565 20G<240.185 259.504>
VStem: 168.279 67.1416<541.601 579.519> 270.359 67.1416<541.601 579.519>
LayerCount: 2
Fore
SplineSet
337.500976562 579.518554688 m 5
 337.500976562 541.600585938 l 5
 303.928710938 523.171875 l 5
 270.359375 541.600585938 l 5
 270.359375 579.518554688 l 5
 304.6328125 598.65234375 l 5
 337.500976562 579.518554688 l 5
235.420898438 579.518554688 m 5
 235.420898438 541.600585938 l 5
 201.849609375 523.171875 l 5
 168.279296875 541.600585938 l 5
 168.279296875 579.518554688 l 5
 202.552734375 598.65234375 l 5
 235.420898438 579.518554688 l 5
456.403320312 70.150390625 m 2
 464.041015625 54.5966796875 474.232421875 34.5126953125 480.069335938 29.5732421875 c 1
 480.069335938 0.56640625 l 1
 399.208007812 0.56640625 l 1
 379.46484375 0.56640625 l 1
 379.46484375 28.9013671875 l 1
 379.46484375 28.9013671875 392.250976562 53.19140625 365.306640625 85.6435546875 c 2
 341.263671875 118.662109375 l 1
 315.001953125 111.28125 283.404296875 112.745117188 283.404296875 112.745117188 c 1
 156.125 109.452148438 l 1
 127.126953125 49.4560546875 l 1
 122.09765625 30.609375 129.17578125 28.9013671875 129.17578125 28.9013671875 c 1
 129.17578125 0.56640625 l 1
 113.033203125 0.56640625 l 1
 27.6904296875 0.56640625 l 1
 27.6904296875 29.5732421875 l 1
 31.7890625 33.048828125 37.6875 42.748046875 43.4609375 53.603515625 c 2
 249.689453125 487.565429688 l 1
 442.103515625 95.47265625 l 1
 456.403320312 70.150390625 l 2
330.190429688 186.041015625 m 1
 335.654296875 189.578125 l 1
 327.334960938 193.360351562 333.465820312 196.653320312 333.465820312 196.653320312 c 1
 319.387695312 174.662109375 l 1
 322.127929688 194.458007812 l 1
 322.127929688 199.336914062 l 1
 312.071289062 200.435546875 l 1
 252.0078125 336.471679688 l 1
 229.36328125 281.211914062 l 2
 228.495117188 282.310546875 227.06640625 284.018554688 225.452148438 285.237304688 c 0
 222.907226562 287.189453125 220.051757812 298.534179688 216.884765625 286.154296875 c 1
 219.057617188 283.774414062 l 1
 218.374023438 281.211914062 l 1
 221.913085938 278.7109375 l 1
 224.396484375 270.35546875 l 1
 180.221679688 161.947265625 l 1
 224.116210938 167.986328125 245.578125 191.712890625 245.578125 191.712890625 c 1
 283.450195312 189.760742188 266.571289062 189.08984375 287.368164062 189.211914062 c 1
 301.756835938 177.623046875 l 1
 307.037109375 186.041015625 l 1
 330.190429688 186.041015625 l 1
EndSplineSet
Validated: 37
EndChar

StartChar: Acircumflex
Encoding: 194 194 104
Width: 507
VWidth: 0
Flags: W
HStem: 0.566406 21G<27.6904 129.176 379.465 480.069> 112.745 76.4668<247.314 283.404> 467.565 20G<240.185 259.504>
LayerCount: 2
Fore
SplineSet
279.500976562 542.150390625 m 5
 279.500976562 542.150390625 274.989257812 559.50390625 256.131835938 582.83203125 c 5
 235.87109375 564.29296875 230.887695312 545.09765625 230.887695312 545.09765625 c 5
 230.887695312 545.09765625 184.353515625 534.684570312 183.735351562 535.021484375 c 4
 179.77734375 537.182617188 244.932617188 627.765625 255.4296875 641.827148438 c 4
 255.794921875 642.557617188 256.16015625 643.314453125 256.552734375 644.12890625 c 6
 256.552734375 644.12890625 326.647460938 533.196289062 322.240234375 531.119140625 c 4
 321.595703125 530.810546875 279.500976562 542.150390625 279.500976562 542.150390625 c 5
456.403320312 70.150390625 m 2
 464.041015625 54.5966796875 474.232421875 34.5126953125 480.069335938 29.5732421875 c 1
 480.069335938 0.56640625 l 1
 399.208007812 0.56640625 l 1
 379.46484375 0.56640625 l 1
 379.46484375 28.9013671875 l 1
 379.46484375 28.9013671875 392.250976562 53.19140625 365.306640625 85.6435546875 c 2
 341.263671875 118.662109375 l 1
 315.001953125 111.28125 283.404296875 112.745117188 283.404296875 112.745117188 c 1
 156.125 109.452148438 l 1
 127.126953125 49.4560546875 l 1
 122.09765625 30.609375 129.17578125 28.9013671875 129.17578125 28.9013671875 c 1
 129.17578125 0.56640625 l 1
 113.033203125 0.56640625 l 1
 27.6904296875 0.56640625 l 1
 27.6904296875 29.5732421875 l 1
 31.7890625 33.048828125 37.6875 42.748046875 43.4609375 53.603515625 c 2
 249.689453125 487.565429688 l 1
 442.103515625 95.47265625 l 1
 456.403320312 70.150390625 l 2
330.190429688 186.041015625 m 1
 335.654296875 189.578125 l 1
 327.334960938 193.360351562 333.465820312 196.653320312 333.465820312 196.653320312 c 1
 319.387695312 174.662109375 l 1
 322.127929688 194.458007812 l 1
 322.127929688 199.336914062 l 1
 312.071289062 200.435546875 l 1
 252.0078125 336.471679688 l 1
 229.36328125 281.211914062 l 2
 228.495117188 282.310546875 227.06640625 284.018554688 225.452148438 285.237304688 c 0
 222.907226562 287.189453125 220.051757812 298.534179688 216.884765625 286.154296875 c 1
 219.057617188 283.774414062 l 1
 218.374023438 281.211914062 l 1
 221.913085938 278.7109375 l 1
 224.396484375 270.35546875 l 1
 180.221679688 161.947265625 l 1
 224.116210938 167.986328125 245.578125 191.712890625 245.578125 191.712890625 c 1
 283.450195312 189.760742188 266.571289062 189.08984375 287.368164062 189.211914062 c 1
 301.756835938 177.623046875 l 1
 307.037109375 186.041015625 l 1
 330.190429688 186.041015625 l 1
EndSplineSet
Validated: 37
EndChar

StartChar: Agrave
Encoding: 192 192 105
Width: 507
VWidth: 0
Flags: W
HStem: 0.566406 21G<27.6904 129.176 379.465 480.069> 112.745 76.4668<247.314 283.404> 467.565 20G<240.185 259.504>
LayerCount: 2
Fore
SplineSet
220.701171875 633.3984375 m 1
 220.701171875 633.3984375 212.282226562 611.733398438 222.943359375 582.165039062 c 0
 232.3203125 556.16015625 260.377929688 546.763671875 260.377929688 546.763671875 c 2
 275.532226562 537.014648438 315.352539062 533.169921875 315.352539062 533.169921875 c 1
 243.305664062 574.846679688 272.25390625 607.82421875 272.25390625 607.82421875 c 1
 261.908203125 637.23046875 l 1
 220.701171875 633.3984375 l 1
456.403320312 70.150390625 m 2
 464.041015625 54.5966796875 474.232421875 34.5126953125 480.069335938 29.5732421875 c 1
 480.069335938 0.56640625 l 1
 399.208007812 0.56640625 l 1
 379.46484375 0.56640625 l 1
 379.46484375 28.9013671875 l 1
 379.46484375 28.9013671875 392.250976562 53.19140625 365.306640625 85.6435546875 c 2
 341.263671875 118.662109375 l 1
 315.001953125 111.28125 283.404296875 112.745117188 283.404296875 112.745117188 c 1
 156.125 109.452148438 l 1
 127.126953125 49.4560546875 l 1
 122.09765625 30.609375 129.17578125 28.9013671875 129.17578125 28.9013671875 c 1
 129.17578125 0.56640625 l 1
 113.033203125 0.56640625 l 1
 27.6904296875 0.56640625 l 1
 27.6904296875 29.5732421875 l 1
 31.7890625 33.048828125 37.6875 42.748046875 43.4609375 53.603515625 c 2
 249.689453125 487.565429688 l 1
 442.103515625 95.47265625 l 1
 456.403320312 70.150390625 l 2
330.190429688 186.041015625 m 1
 335.654296875 189.578125 l 1
 327.334960938 193.360351562 333.465820312 196.653320312 333.465820312 196.653320312 c 1
 319.387695312 174.662109375 l 1
 322.127929688 194.458007812 l 1
 322.127929688 199.336914062 l 1
 312.071289062 200.435546875 l 1
 252.0078125 336.471679688 l 1
 229.36328125 281.211914062 l 2
 228.495117188 282.310546875 227.06640625 284.018554688 225.452148438 285.237304688 c 0
 222.907226562 287.189453125 220.051757812 298.534179688 216.884765625 286.154296875 c 1
 219.057617188 283.774414062 l 1
 218.374023438 281.211914062 l 1
 221.913085938 278.7109375 l 1
 224.396484375 270.35546875 l 1
 180.221679688 161.947265625 l 1
 224.116210938 167.986328125 245.578125 191.712890625 245.578125 191.712890625 c 1
 283.450195312 189.760742188 266.571289062 189.08984375 287.368164062 189.211914062 c 1
 301.756835938 177.623046875 l 1
 307.037109375 186.041015625 l 1
 330.190429688 186.041015625 l 1
EndSplineSet
Validated: 37
EndChar

StartChar: Aacute
Encoding: 193 193 106
Width: 507
VWidth: 0
Flags: W
HStem: 0.566406 21G<27.6904 129.176 379.465 480.069> 112.745 76.4668<247.314 283.404> 467.565 20G<240.185 259.504>
LayerCount: 2
Fore
SplineSet
305.5390625 633.3984375 m 1
 305.5390625 633.3984375 313.958007812 611.733398438 303.296875 582.165039062 c 0
 293.919921875 556.16015625 265.862304688 546.763671875 265.862304688 546.763671875 c 2
 250.708007812 537.014648438 210.88671875 533.169921875 210.88671875 533.169921875 c 1
 282.934570312 574.846679688 253.985351562 607.82421875 253.985351562 607.82421875 c 1
 264.33203125 637.23046875 l 1
 305.5390625 633.3984375 l 1
456.403320312 70.150390625 m 2
 464.041015625 54.5966796875 474.232421875 34.5126953125 480.069335938 29.5732421875 c 1
 480.069335938 0.56640625 l 1
 399.208007812 0.56640625 l 1
 379.46484375 0.56640625 l 1
 379.46484375 28.9013671875 l 1
 379.46484375 28.9013671875 392.250976562 53.19140625 365.306640625 85.6435546875 c 2
 341.263671875 118.662109375 l 1
 315.001953125 111.28125 283.404296875 112.745117188 283.404296875 112.745117188 c 1
 156.125 109.452148438 l 1
 127.126953125 49.4560546875 l 1
 122.09765625 30.609375 129.17578125 28.9013671875 129.17578125 28.9013671875 c 1
 129.17578125 0.56640625 l 1
 113.033203125 0.56640625 l 1
 27.6904296875 0.56640625 l 1
 27.6904296875 29.5732421875 l 1
 31.7890625 33.048828125 37.6875 42.748046875 43.4609375 53.603515625 c 2
 249.689453125 487.565429688 l 1
 442.103515625 95.47265625 l 1
 456.403320312 70.150390625 l 2
330.190429688 186.041015625 m 1
 335.654296875 189.578125 l 1
 327.334960938 193.360351562 333.465820312 196.653320312 333.465820312 196.653320312 c 1
 319.387695312 174.662109375 l 1
 322.127929688 194.458007812 l 1
 322.127929688 199.336914062 l 1
 312.071289062 200.435546875 l 1
 252.0078125 336.471679688 l 1
 229.36328125 281.211914062 l 2
 228.495117188 282.310546875 227.06640625 284.018554688 225.452148438 285.237304688 c 0
 222.907226562 287.189453125 220.051757812 298.534179688 216.884765625 286.154296875 c 1
 219.057617188 283.774414062 l 1
 218.374023438 281.211914062 l 1
 221.913085938 278.7109375 l 1
 224.396484375 270.35546875 l 1
 180.221679688 161.947265625 l 1
 224.116210938 167.986328125 245.578125 191.712890625 245.578125 191.712890625 c 1
 283.450195312 189.760742188 266.571289062 189.08984375 287.368164062 189.211914062 c 1
 301.756835938 177.623046875 l 1
 307.037109375 186.041015625 l 1
 330.190429688 186.041015625 l 1
EndSplineSet
Validated: 37
EndChar

